<svg xmlns="http://www.w3.org/2000/svg" xmlns:xlink="http://www.w3.org/1999/xlink" width="500" zoomAndPan="magnify" viewBox="0 0 375 374.999991" height="500" preserveAspectRatio="xMidYMid meet" version="1.0"><path fill="#cddc29" d="M 65.035156 245.828125 L 312.871094 245.828125 C 313.820312 245.828125 314.769531 245.875 315.714844 245.964844 C 316.660156 246.058594 317.597656 246.199219 318.527344 246.382812 C 319.460938 246.570312 320.382812 246.800781 321.289062 247.074219 C 322.199219 247.351562 323.09375 247.671875 323.96875 248.035156 C 324.847656 248.398438 325.703125 248.804688 326.542969 249.25 C 327.378906 249.699219 328.195312 250.1875 328.984375 250.714844 C 329.773438 251.242188 330.535156 251.808594 331.269531 252.410156 C 332.003906 253.011719 332.707031 253.652344 333.378906 254.324219 C 334.050781 254.996094 334.6875 255.699219 335.289062 256.433594 C 335.890625 257.167969 336.457031 257.929688 336.984375 258.71875 C 337.511719 259.507812 338 260.320312 338.449219 261.160156 C 338.894531 261.996094 339.300781 262.855469 339.664062 263.734375 C 340.027344 264.609375 340.347656 265.503906 340.625 266.414062 C 340.898438 267.324219 341.128906 268.242188 341.316406 269.175781 C 341.5 270.105469 341.640625 271.046875 341.734375 271.992188 C 341.828125 272.9375 341.871094 273.882812 341.871094 274.835938 L 341.871094 338.136719 C 341.871094 339.085938 341.828125 340.03125 341.734375 340.976562 C 341.640625 341.921875 341.5 342.863281 341.316406 343.792969 C 341.128906 344.726562 340.898438 345.644531 340.625 346.554688 C 340.347656 347.464844 340.027344 348.359375 339.664062 349.234375 C 339.300781 350.113281 338.894531 350.972656 338.449219 351.808594 C 338 352.648438 337.511719 353.460938 336.984375 354.25 C 336.457031 355.039062 335.890625 355.800781 335.289062 356.535156 C 334.6875 357.269531 334.050781 357.972656 333.378906 358.644531 C 332.707031 359.316406 332.003906 359.957031 331.269531 360.558594 C 330.535156 361.160156 329.773438 361.726562 328.984375 362.253906 C 328.195312 362.78125 327.378906 363.269531 326.542969 363.71875 C 325.703125 364.164062 324.847656 364.570312 323.96875 364.933594 C 323.09375 365.296875 322.199219 365.617188 321.289062 365.894531 C 320.382812 366.167969 319.460938 366.398438 318.527344 366.585938 C 317.597656 366.769531 316.660156 366.910156 315.714844 367.003906 C 314.769531 367.097656 313.820312 367.140625 312.871094 367.140625 L 65.035156 367.140625 C 64.085938 367.140625 63.140625 367.097656 62.195312 367.003906 C 61.25 366.910156 60.3125 366.769531 59.378906 366.585938 C 58.449219 366.398438 57.527344 366.167969 56.617188 365.894531 C 55.710938 365.617188 54.816406 365.296875 53.9375 364.933594 C 53.0625 364.570312 52.203125 364.164062 51.367188 363.71875 C 50.527344 363.269531 49.714844 362.78125 48.925781 362.253906 C 48.136719 361.726562 47.371094 361.160156 46.640625 360.558594 C 45.90625 359.957031 45.203125 359.316406 44.53125 358.644531 C 43.859375 357.972656 43.222656 357.269531 42.617188 356.535156 C 42.015625 355.800781 41.449219 355.039062 40.921875 354.25 C 40.394531 353.460938 39.90625 352.648438 39.460938 351.808594 C 39.011719 350.972656 38.605469 350.113281 38.242188 349.234375 C 37.878906 348.359375 37.558594 347.464844 37.285156 346.554688 C 37.007812 345.644531 36.777344 344.726562 36.59375 343.792969 C 36.40625 342.863281 36.269531 341.921875 36.175781 340.976562 C 36.082031 340.03125 36.035156 339.085938 36.035156 338.136719 L 36.035156 274.835938 C 36.035156 273.882812 36.082031 272.9375 36.175781 271.992188 C 36.269531 271.046875 36.40625 270.105469 36.59375 269.175781 C 36.777344 268.242188 37.007812 267.324219 37.285156 266.414062 C 37.558594 265.503906 37.878906 264.609375 38.242188 263.734375 C 38.605469 262.855469 39.011719 261.996094 39.460938 261.160156 C 39.90625 260.320312 40.394531 259.507812 40.921875 258.71875 C 41.449219 257.929688 42.015625 257.167969 42.617188 256.433594 C 43.222656 255.699219 43.859375 254.996094 44.53125 254.324219 C 45.203125 253.652344 45.90625 253.011719 46.640625 252.410156 C 47.371094 251.808594 48.136719 251.242188 48.925781 250.714844 C 49.714844 250.1875 50.527344 249.699219 51.367188 249.25 C 52.203125 248.804688 53.0625 248.398438 53.9375 248.035156 C 54.816406 247.671875 55.710938 247.351562 56.617188 247.074219 C 57.527344 246.800781 58.449219 246.570312 59.378906 246.382812 C 60.3125 246.199219 61.25 246.058594 62.195312 245.964844 C 63.140625 245.875 64.085938 245.828125 65.035156 245.828125 Z M 65.035156 245.828125 " fill-opacity="1" fill-rule="nonzero"/><path fill="#cdda3f" d="M 332.914062 148.984375 C 332.914062 151.335938 332.855469 153.6875 332.742188 156.035156 C 332.625 158.382812 332.453125 160.730469 332.222656 163.070312 C 331.992188 165.410156 331.703125 167.742188 331.359375 170.070312 C 331.015625 172.398438 330.613281 174.714844 330.15625 177.019531 C 329.695312 179.328125 329.179688 181.621094 328.609375 183.902344 C 328.039062 186.183594 327.410156 188.449219 326.730469 190.699219 C 326.046875 192.949219 325.308594 195.183594 324.519531 197.398438 C 323.726562 199.613281 322.878906 201.804688 321.980469 203.980469 C 321.082031 206.152344 320.128906 208.300781 319.125 210.425781 C 318.117188 212.554688 317.0625 214.652344 315.953125 216.726562 C 314.847656 218.800781 313.6875 220.847656 312.480469 222.867188 C 311.269531 224.882812 310.011719 226.867188 308.707031 228.824219 C 307.402344 230.78125 306.046875 232.703125 304.648438 234.589844 C 303.246094 236.480469 301.800781 238.335938 300.3125 240.152344 C 298.820312 241.96875 297.285156 243.75 295.707031 245.492188 C 294.128906 247.234375 292.507812 248.9375 290.84375 250.601562 C 289.183594 252.265625 287.480469 253.886719 285.738281 255.464844 C 283.996094 257.046875 282.21875 258.582031 280.402344 260.074219 C 278.582031 261.566406 276.730469 263.011719 274.84375 264.414062 C 272.953125 265.8125 271.035156 267.167969 269.078125 268.472656 C 267.125 269.78125 265.140625 271.039062 263.121094 272.246094 C 261.105469 273.457031 259.0625 274.617188 256.988281 275.722656 C 254.914062 276.832031 252.816406 277.890625 250.691406 278.894531 C 248.566406 279.902344 246.417969 280.855469 244.246094 281.753906 C 242.074219 282.65625 239.882812 283.5 237.667969 284.292969 C 235.457031 285.085938 233.222656 285.824219 230.972656 286.503906 C 228.726562 287.1875 226.460938 287.816406 224.179688 288.386719 C 221.898438 288.957031 219.605469 289.472656 217.300781 289.933594 C 214.996094 290.390625 212.679688 290.792969 210.355469 291.136719 C 208.03125 291.484375 205.699219 291.769531 203.359375 292 C 201.019531 292.230469 198.675781 292.40625 196.328125 292.519531 C 193.980469 292.636719 191.628906 292.695312 189.28125 292.695312 C 186.929688 292.695312 184.578125 292.636719 182.230469 292.519531 C 179.882812 292.40625 177.539062 292.230469 175.199219 292 C 172.863281 291.769531 170.527344 291.484375 168.203125 291.136719 C 165.878906 290.792969 163.5625 290.390625 161.257812 289.933594 C 158.953125 289.472656 156.660156 288.957031 154.378906 288.386719 C 152.097656 287.816406 149.832031 287.1875 147.585938 286.503906 C 145.335938 285.824219 143.101562 285.085938 140.890625 284.292969 C 138.675781 283.5 136.484375 282.652344 134.3125 281.753906 C 132.140625 280.855469 129.992188 279.902344 127.867188 278.894531 C 125.742188 277.890625 123.644531 276.832031 121.570312 275.722656 C 119.496094 274.617188 117.453125 273.457031 115.4375 272.246094 C 113.421875 271.039062 111.433594 269.78125 109.480469 268.472656 C 107.527344 267.167969 105.605469 265.8125 103.714844 264.414062 C 101.828125 263.011719 99.976562 261.566406 98.160156 260.074219 C 96.339844 258.582031 94.5625 257.046875 92.820312 255.464844 C 91.078125 253.886719 89.375 252.265625 87.714844 250.601562 C 86.050781 248.9375 84.429688 247.234375 82.851562 245.492188 C 81.273438 243.75 79.738281 241.96875 78.246094 240.152344 C 76.757812 238.335938 75.3125 236.480469 73.910156 234.589844 C 72.511719 232.703125 71.15625 230.78125 69.851562 228.824219 C 68.546875 226.867188 67.289062 224.882812 66.078125 222.867188 C 64.871094 220.847656 63.710938 218.800781 62.605469 216.726562 C 61.496094 214.652344 60.441406 212.554688 59.433594 210.425781 C 58.429688 208.300781 57.476562 206.152344 56.578125 203.980469 C 55.679688 201.804688 54.832031 199.613281 54.039062 197.398438 C 53.25 195.183594 52.511719 192.949219 51.828125 190.699219 C 51.148438 188.449219 50.519531 186.183594 49.949219 183.902344 C 49.378906 181.621094 48.863281 179.328125 48.402344 177.019531 C 47.945312 174.714844 47.542969 172.398438 47.199219 170.070312 C 46.855469 167.742188 46.566406 165.410156 46.335938 163.070312 C 46.105469 160.730469 45.933594 158.382812 45.816406 156.035156 C 45.703125 153.6875 45.644531 151.335938 45.644531 148.984375 C 45.644531 146.632812 45.703125 144.28125 45.816406 141.933594 C 45.933594 139.582031 46.105469 137.238281 46.335938 134.898438 C 46.566406 132.558594 46.855469 130.222656 47.199219 127.898438 C 47.542969 125.570312 47.945312 123.253906 48.402344 120.949219 C 48.863281 118.640625 49.378906 116.347656 49.949219 114.066406 C 50.519531 111.785156 51.148438 109.515625 51.828125 107.265625 C 52.511719 105.015625 53.25 102.785156 54.039062 100.570312 C 54.832031 98.355469 55.679688 96.160156 56.578125 93.988281 C 57.476562 91.816406 58.429688 89.664062 59.433594 87.539062 C 60.441406 85.414062 61.496094 83.3125 62.605469 81.238281 C 63.710938 79.164062 64.871094 77.121094 66.078125 75.101562 C 67.289062 73.085938 68.546875 71.097656 69.851562 69.144531 C 71.15625 67.1875 72.511719 65.265625 73.910156 63.375 C 75.3125 61.488281 76.757812 59.632812 78.246094 57.816406 C 79.738281 55.996094 81.273438 54.214844 82.851562 52.472656 C 84.429688 50.730469 86.050781 49.027344 87.714844 47.367188 C 89.375 45.703125 91.078125 44.082031 92.820312 42.5 C 94.5625 40.921875 96.339844 39.386719 98.160156 37.894531 C 99.976562 36.402344 101.828125 34.957031 103.714844 33.554688 C 105.605469 32.152344 107.527344 30.800781 109.480469 29.492188 C 111.433594 28.1875 113.421875 26.929688 115.4375 25.71875 C 117.453125 24.511719 119.496094 23.351562 121.570312 22.242188 C 123.644531 21.132812 125.742188 20.078125 127.867188 19.070312 C 129.992188 18.066406 132.140625 17.113281 134.3125 16.214844 C 136.484375 15.3125 138.675781 14.46875 140.890625 13.675781 C 143.101562 12.882812 145.335938 12.144531 147.585938 11.460938 C 149.832031 10.777344 152.097656 10.152344 154.378906 9.582031 C 156.660156 9.007812 158.953125 8.492188 161.257812 8.035156 C 163.5625 7.578125 165.878906 7.175781 168.203125 6.828125 C 170.527344 6.484375 172.863281 6.195312 175.199219 5.964844 C 177.539062 5.734375 179.882812 5.5625 182.230469 5.445312 C 184.578125 5.332031 186.929688 5.273438 189.28125 5.273438 C 191.628906 5.273438 193.980469 5.332031 196.328125 5.445312 C 198.675781 5.5625 201.019531 5.734375 203.359375 5.964844 C 205.699219 6.195312 208.03125 6.484375 210.355469 6.828125 C 212.679688 7.175781 214.996094 7.578125 217.300781 8.035156 C 219.605469 8.492188 221.898438 9.007812 224.179688 9.582031 C 226.460938 10.152344 228.726562 10.777344 230.972656 11.460938 C 233.222656 12.144531 235.457031 12.882812 237.667969 13.675781 C 239.882812 14.46875 242.074219 15.3125 244.246094 16.214844 C 246.417969 17.113281 248.566406 18.066406 250.691406 19.070312 C 252.816406 20.078125 254.914062 21.132812 256.988281 22.242188 C 259.0625 23.351562 261.105469 24.511719 263.121094 25.71875 C 265.140625 26.929688 267.125 28.1875 269.078125 29.492188 C 271.035156 30.800781 272.953125 32.152344 274.84375 33.554688 C 276.730469 34.957031 278.582031 36.402344 280.402344 37.894531 C 282.21875 39.386719 283.996094 40.921875 285.738281 42.5 C 287.480469 44.082031 289.183594 45.703125 290.84375 47.367188 C 292.507812 49.027344 294.128906 50.730469 295.707031 52.472656 C 297.285156 54.214844 298.820312 55.996094 300.3125 57.816406 C 301.800781 59.632812 303.246094 61.488281 304.648438 63.375 C 306.046875 65.265625 307.402344 67.1875 308.707031 69.144531 C 310.011719 71.097656 311.269531 73.085938 312.480469 75.101562 C 313.6875 77.121094 314.847656 79.164062 315.953125 81.238281 C 317.0625 83.3125 318.117188 85.414062 319.125 87.539062 C 320.128906 89.664062 321.082031 91.816406 321.980469 93.988281 C 322.878906 96.160156 323.726562 98.355469 324.519531 100.570312 C 325.308594 102.785156 326.046875 105.015625 326.730469 107.265625 C 327.410156 109.515625 328.039062 111.785156 328.609375 114.066406 C 329.179688 116.347656 329.695312 118.640625 330.15625 120.949219 C 330.613281 123.253906 331.015625 125.570312 331.359375 127.898438 C 331.703125 130.222656 331.992188 132.558594 332.222656 134.898438 C 332.453125 137.238281 332.625 139.582031 332.742188 141.933594 C 332.855469 144.28125 332.914062 146.632812 332.914062 148.984375 Z M 332.914062 148.984375 " fill-opacity="1" fill-rule="nonzero"/><path fill="#37a640" d="M 266.230469 59.847656 L 112.332031 59.847656 C 74.429688 92.117188 60.664062 144.609375 77.847656 191.339844 C 95.027344 238.070312 139.515625 269.121094 189.28125 269.121094 C 239.046875 269.121094 283.53125 238.070312 300.714844 191.339844 C 317.894531 144.609375 304.128906 92.117188 266.230469 59.847656 Z M 266.230469 59.847656 " fill-opacity="1" fill-rule="nonzero"/><path fill="#ffffff" d="M 253.027344 201.683594 C 253.027344 202.566406 252.984375 203.449219 252.898438 204.328125 C 252.808594 205.207031 252.679688 206.082031 252.507812 206.945312 C 252.335938 207.8125 252.121094 208.667969 251.867188 209.515625 C 251.609375 210.359375 251.3125 211.191406 250.972656 212.007812 C 250.636719 212.824219 250.257812 213.621094 249.84375 214.398438 C 249.425781 215.179688 248.972656 215.9375 248.484375 216.671875 C 247.992188 217.40625 247.46875 218.113281 246.90625 218.796875 C 246.347656 219.480469 245.753906 220.132812 245.128906 220.757812 C 244.507812 221.382812 243.851562 221.976562 243.171875 222.535156 C 242.488281 223.097656 241.777344 223.621094 241.046875 224.113281 C 240.3125 224.601562 239.554688 225.058594 238.777344 225.472656 C 237.996094 225.890625 237.199219 226.265625 236.382812 226.605469 C 235.570312 226.941406 234.738281 227.242188 233.894531 227.496094 C 233.046875 227.753906 232.191406 227.96875 231.328125 228.140625 C 230.460938 228.3125 229.589844 228.441406 228.710938 228.527344 C 227.832031 228.613281 226.949219 228.660156 226.066406 228.660156 C 225.183594 228.660156 224.304688 228.613281 223.425781 228.527344 C 222.546875 228.441406 221.675781 228.3125 220.808594 228.140625 C 219.941406 227.96875 219.085938 227.753906 218.242188 227.496094 C 217.398438 227.242188 216.566406 226.941406 215.75 226.605469 C 214.933594 226.265625 214.136719 225.890625 213.359375 225.472656 C 212.582031 225.058594 211.824219 224.601562 211.089844 224.113281 C 210.355469 223.621094 209.648438 223.097656 208.964844 222.535156 C 208.28125 221.976562 207.628906 221.382812 207.003906 220.757812 C 206.378906 220.132812 205.789062 219.480469 205.226562 218.796875 C 204.667969 218.113281 204.140625 217.40625 203.652344 216.671875 C 203.160156 215.9375 202.707031 215.179688 202.292969 214.398438 C 201.875 213.621094 201.5 212.824219 201.160156 212.007812 C 200.824219 211.191406 200.527344 210.359375 200.269531 209.515625 C 200.011719 208.667969 199.800781 207.8125 199.625 206.945312 C 199.453125 206.082031 199.324219 205.207031 199.238281 204.328125 C 199.152344 203.449219 199.109375 202.566406 199.109375 201.683594 C 199.109375 200.800781 199.152344 199.921875 199.238281 199.039062 C 199.324219 198.160156 199.453125 197.289062 199.625 196.421875 C 199.800781 195.554688 200.011719 194.699219 200.269531 193.855469 C 200.527344 193.007812 200.824219 192.179688 201.160156 191.363281 C 201.5 190.546875 201.875 189.75 202.292969 188.96875 C 202.707031 188.191406 203.160156 187.433594 203.652344 186.699219 C 204.140625 185.964844 204.667969 185.257812 205.226562 184.574219 C 205.789062 183.890625 206.378906 183.238281 207.003906 182.613281 C 207.628906 181.988281 208.28125 181.394531 208.964844 180.835938 C 209.648438 180.273438 210.355469 179.746094 211.089844 179.257812 C 211.824219 178.765625 212.582031 178.3125 213.359375 177.894531 C 214.136719 177.480469 214.933594 177.101562 215.75 176.765625 C 216.566406 176.425781 217.398438 176.128906 218.242188 175.871094 C 219.085938 175.617188 219.941406 175.402344 220.808594 175.230469 C 221.675781 175.058594 222.546875 174.929688 223.425781 174.839844 C 224.304688 174.753906 225.183594 174.710938 226.066406 174.710938 C 226.949219 174.710938 227.832031 174.753906 228.710938 174.839844 C 229.589844 174.929688 230.460938 175.058594 231.328125 175.230469 C 232.191406 175.402344 233.046875 175.617188 233.894531 175.871094 C 234.738281 176.128906 235.570312 176.425781 236.382812 176.765625 C 237.199219 177.101562 237.996094 177.480469 238.777344 177.894531 C 239.554688 178.3125 240.3125 178.765625 241.046875 179.257812 C 241.777344 179.746094 242.488281 180.273438 243.171875 180.835938 C 243.851562 181.394531 244.507812 181.988281 245.128906 182.613281 C 245.753906 183.238281 246.347656 183.890625 246.90625 184.574219 C 247.46875 185.257812 247.992188 185.964844 248.484375 186.699219 C 248.972656 187.433594 249.425781 188.191406 249.84375 188.96875 C 250.257812 189.75 250.636719 190.546875 250.972656 191.363281 C 251.3125 192.179688 251.609375 193.007812 251.867188 193.855469 C 252.121094 194.699219 252.335938 195.554688 252.507812 196.421875 C 252.679688 197.289062 252.808594 198.160156 252.898438 199.039062 C 252.984375 199.921875 253.027344 200.800781 253.027344 201.683594 Z M 253.027344 201.683594 " fill-opacity="1" fill-rule="nonzero"/><path fill="#ffffff" d="M 291.332031 144.007812 C 291.332031 144.894531 291.289062 145.773438 291.203125 146.652344 C 291.113281 147.53125 290.984375 148.40625 290.8125 149.269531 C 290.640625 150.136719 290.425781 150.992188 290.171875 151.839844 C 289.914062 152.683594 289.617188 153.515625 289.28125 154.332031 C 288.941406 155.148438 288.566406 155.945312 288.148438 156.722656 C 287.730469 157.503906 287.277344 158.261719 286.789062 158.996094 C 286.296875 159.730469 285.773438 160.4375 285.210938 161.121094 C 284.652344 161.804688 284.058594 162.457031 283.433594 163.082031 C 282.8125 163.707031 282.15625 164.300781 281.476562 164.859375 C 280.792969 165.421875 280.085938 165.945312 279.351562 166.4375 C 278.617188 166.925781 277.859375 167.382812 277.082031 167.796875 C 276.300781 168.214844 275.503906 168.589844 274.6875 168.929688 C 273.875 169.265625 273.042969 169.566406 272.199219 169.820312 C 271.351562 170.078125 270.496094 170.292969 269.632812 170.464844 C 268.765625 170.636719 267.894531 170.765625 267.015625 170.851562 C 266.136719 170.9375 265.253906 170.984375 264.371094 170.984375 C 263.488281 170.984375 262.609375 170.9375 261.730469 170.851562 C 260.851562 170.765625 259.980469 170.636719 259.113281 170.464844 C 258.246094 170.292969 257.390625 170.078125 256.546875 169.820312 C 255.703125 169.566406 254.871094 169.265625 254.054688 168.929688 C 253.238281 168.589844 252.441406 168.214844 251.664062 167.796875 C 250.886719 167.382812 250.128906 166.925781 249.394531 166.4375 C 248.660156 165.945312 247.953125 165.421875 247.269531 164.859375 C 246.585938 164.300781 245.933594 163.707031 245.308594 163.082031 C 244.683594 162.457031 244.09375 161.804688 243.53125 161.121094 C 242.972656 160.4375 242.449219 159.730469 241.957031 158.996094 C 241.464844 158.261719 241.011719 157.503906 240.597656 156.722656 C 240.179688 155.945312 239.804688 155.148438 239.464844 154.332031 C 239.128906 153.515625 238.832031 152.683594 238.574219 151.839844 C 238.316406 150.992188 238.105469 150.136719 237.933594 149.269531 C 237.757812 148.40625 237.628906 147.53125 237.542969 146.652344 C 237.457031 145.773438 237.414062 144.894531 237.414062 144.007812 C 237.414062 143.125 237.457031 142.246094 237.542969 141.367188 C 237.628906 140.484375 237.757812 139.613281 237.933594 138.746094 C 238.105469 137.878906 238.316406 137.023438 238.574219 136.179688 C 238.832031 135.332031 239.128906 134.503906 239.464844 133.6875 C 239.804688 132.871094 240.179688 132.074219 240.597656 131.292969 C 241.011719 130.515625 241.464844 129.757812 241.957031 129.023438 C 242.449219 128.289062 242.972656 127.582031 243.53125 126.898438 C 244.09375 126.214844 244.683594 125.5625 245.308594 124.9375 C 245.933594 124.3125 246.585938 123.71875 247.269531 123.160156 C 247.953125 122.597656 248.660156 122.074219 249.394531 121.582031 C 250.128906 121.089844 250.886719 120.636719 251.664062 120.222656 C 252.441406 119.804688 253.238281 119.425781 254.054688 119.089844 C 254.871094 118.75 255.703125 118.453125 256.546875 118.195312 C 257.390625 117.941406 258.246094 117.726562 259.113281 117.554688 C 259.980469 117.382812 260.851562 117.253906 261.730469 117.164062 C 262.609375 117.078125 263.488281 117.035156 264.371094 117.035156 C 265.253906 117.035156 266.136719 117.078125 267.015625 117.164062 C 267.894531 117.253906 268.765625 117.382812 269.632812 117.554688 C 270.496094 117.726562 271.351562 117.941406 272.199219 118.195312 C 273.042969 118.453125 273.875 118.75 274.6875 119.089844 C 275.503906 119.425781 276.300781 119.804688 277.082031 120.222656 C 277.859375 120.636719 278.617188 121.089844 279.351562 121.582031 C 280.085938 122.074219 280.792969 122.597656 281.476562 123.160156 C 282.15625 123.71875 282.8125 124.3125 283.433594 124.9375 C 284.058594 125.5625 284.652344 126.214844 285.210938 126.898438 C 285.773438 127.582031 286.296875 128.289062 286.789062 129.023438 C 287.277344 129.757812 287.730469 130.515625 288.148438 131.292969 C 288.566406 132.074219 288.941406 132.871094 289.28125 133.6875 C 289.617188 134.503906 289.914062 135.332031 290.171875 136.179688 C 290.425781 137.023438 290.640625 137.878906 290.8125 138.746094 C 290.984375 139.613281 291.113281 140.484375 291.203125 141.367188 C 291.289062 142.246094 291.332031 143.125 291.332031 144.007812 Z M 291.332031 144.007812 " fill-opacity="1" fill-rule="nonzero"/><path fill="#ffffff" d="M 147.203125 144.007812 C 147.203125 144.894531 147.160156 145.773438 147.074219 146.652344 C 146.988281 147.53125 146.859375 148.40625 146.6875 149.269531 C 146.515625 150.136719 146.300781 150.992188 146.042969 151.839844 C 145.789062 152.683594 145.488281 153.515625 145.152344 154.332031 C 144.8125 155.148438 144.4375 155.945312 144.019531 156.722656 C 143.605469 157.503906 143.152344 158.261719 142.660156 158.996094 C 142.171875 159.730469 141.644531 160.4375 141.085938 161.121094 C 140.523438 161.804688 139.933594 162.457031 139.308594 163.082031 C 138.683594 163.707031 138.03125 164.300781 137.347656 164.859375 C 136.664062 165.421875 135.957031 165.945312 135.222656 166.4375 C 134.488281 166.925781 133.734375 167.382812 132.953125 167.796875 C 132.175781 168.214844 131.378906 168.589844 130.5625 168.929688 C 129.746094 169.265625 128.917969 169.566406 128.070312 169.820312 C 127.226562 170.078125 126.371094 170.292969 125.503906 170.464844 C 124.640625 170.636719 123.765625 170.765625 122.886719 170.851562 C 122.007812 170.9375 121.128906 170.984375 120.246094 170.984375 C 119.363281 170.984375 118.480469 170.9375 117.601562 170.851562 C 116.722656 170.765625 115.851562 170.636719 114.984375 170.464844 C 114.121094 170.292969 113.265625 170.078125 112.417969 169.820312 C 111.574219 169.566406 110.746094 169.265625 109.929688 168.929688 C 109.113281 168.589844 108.316406 168.214844 107.535156 167.796875 C 106.757812 167.382812 106.003906 166.925781 105.269531 166.4375 C 104.535156 165.945312 103.824219 165.421875 103.144531 164.859375 C 102.460938 164.300781 101.808594 163.707031 101.183594 163.082031 C 100.558594 162.457031 99.964844 161.804688 99.40625 161.121094 C 98.847656 160.4375 98.320312 159.730469 97.828125 158.996094 C 97.339844 158.261719 96.886719 157.503906 96.46875 156.722656 C 96.054688 155.945312 95.675781 155.148438 95.339844 154.332031 C 95 153.515625 94.703125 152.683594 94.449219 151.839844 C 94.191406 150.992188 93.976562 150.136719 93.804688 149.269531 C 93.632812 148.40625 93.503906 147.53125 93.417969 146.652344 C 93.328125 145.773438 93.285156 144.894531 93.285156 144.007812 C 93.285156 143.125 93.328125 142.246094 93.417969 141.367188 C 93.503906 140.484375 93.632812 139.613281 93.804688 138.746094 C 93.976562 137.878906 94.191406 137.023438 94.449219 136.179688 C 94.703125 135.332031 95 134.503906 95.339844 133.6875 C 95.675781 132.871094 96.054688 132.074219 96.46875 131.292969 C 96.886719 130.515625 97.339844 129.757812 97.828125 129.023438 C 98.320312 128.289062 98.847656 127.582031 99.40625 126.898438 C 99.964844 126.214844 100.558594 125.5625 101.183594 124.9375 C 101.808594 124.3125 102.460938 123.71875 103.144531 123.160156 C 103.824219 122.597656 104.535156 122.074219 105.269531 121.582031 C 106.003906 121.089844 106.757812 120.636719 107.535156 120.222656 C 108.316406 119.804688 109.113281 119.425781 109.929688 119.089844 C 110.746094 118.75 111.574219 118.453125 112.417969 118.195312 C 113.265625 117.941406 114.121094 117.726562 114.984375 117.554688 C 115.851562 117.382812 116.722656 117.253906 117.601562 117.164062 C 118.480469 117.078125 119.363281 117.035156 120.246094 117.035156 C 121.128906 117.035156 122.007812 117.078125 122.886719 117.164062 C 123.765625 117.253906 124.640625 117.382812 125.503906 117.554688 C 126.371094 117.726562 127.226562 117.941406 128.070312 118.195312 C 128.917969 118.453125 129.746094 118.75 130.5625 119.089844 C 131.378906 119.425781 132.175781 119.804688 132.953125 120.222656 C 133.734375 120.636719 134.488281 121.089844 135.222656 121.582031 C 135.957031 122.074219 136.664062 122.597656 137.347656 123.160156 C 138.03125 123.71875 138.683594 124.3125 139.308594 124.9375 C 139.933594 125.5625 140.523438 126.214844 141.085938 126.898438 C 141.644531 127.582031 142.171875 128.289062 142.660156 129.023438 C 143.152344 129.757812 143.605469 130.515625 144.019531 131.292969 C 144.4375 132.074219 144.8125 132.871094 145.152344 133.6875 C 145.488281 134.503906 145.789062 135.332031 146.042969 136.179688 C 146.300781 137.023438 146.515625 137.878906 146.6875 138.746094 C 146.859375 139.613281 146.988281 140.484375 147.074219 141.367188 C 147.160156 142.246094 147.203125 143.125 147.203125 144.007812 Z M 147.203125 144.007812 " fill-opacity="1" fill-rule="nonzero"/><path fill="#ffffff" d="M 179.816406 201.683594 C 179.816406 202.566406 179.773438 203.449219 179.6875 204.328125 C 179.601562 205.207031 179.472656 206.082031 179.300781 206.945312 C 179.128906 207.8125 178.914062 208.667969 178.65625 209.515625 C 178.398438 210.359375 178.101562 211.191406 177.765625 212.007812 C 177.425781 212.824219 177.050781 213.621094 176.632812 214.398438 C 176.21875 215.179688 175.765625 215.9375 175.273438 216.671875 C 174.785156 217.40625 174.257812 218.113281 173.699219 218.796875 C 173.136719 219.480469 172.546875 220.132812 171.921875 220.757812 C 171.296875 221.382812 170.644531 221.976562 169.960938 222.535156 C 169.277344 223.097656 168.570312 223.621094 167.835938 224.113281 C 167.101562 224.601562 166.34375 225.058594 165.566406 225.472656 C 164.789062 225.890625 163.992188 226.265625 163.175781 226.605469 C 162.359375 226.941406 161.527344 227.242188 160.683594 227.496094 C 159.839844 227.753906 158.984375 227.96875 158.117188 228.140625 C 157.253906 228.3125 156.378906 228.441406 155.5 228.527344 C 154.621094 228.613281 153.742188 228.660156 152.859375 228.660156 C 151.976562 228.660156 151.09375 228.613281 150.214844 228.527344 C 149.335938 228.441406 148.464844 228.3125 147.597656 228.140625 C 146.734375 227.96875 145.878906 227.753906 145.03125 227.496094 C 144.1875 227.242188 143.359375 226.941406 142.542969 226.605469 C 141.726562 226.265625 140.929688 225.890625 140.148438 225.472656 C 139.371094 225.058594 138.613281 224.601562 137.882812 224.113281 C 137.148438 223.621094 136.4375 223.097656 135.757812 222.535156 C 135.074219 221.976562 134.421875 221.382812 133.796875 220.757812 C 133.171875 220.132812 132.578125 219.480469 132.019531 218.796875 C 131.457031 218.113281 130.933594 217.40625 130.441406 216.671875 C 129.953125 215.9375 129.5 215.179688 129.082031 214.398438 C 128.667969 213.621094 128.289062 212.824219 127.953125 212.007812 C 127.613281 211.191406 127.316406 210.359375 127.058594 209.515625 C 126.804688 208.667969 126.589844 207.8125 126.417969 206.945312 C 126.246094 206.082031 126.117188 205.207031 126.03125 204.328125 C 125.941406 203.449219 125.898438 202.566406 125.898438 201.683594 C 125.898438 200.800781 125.941406 199.921875 126.03125 199.039062 C 126.117188 198.160156 126.246094 197.289062 126.417969 196.421875 C 126.589844 195.554688 126.804688 194.699219 127.058594 193.855469 C 127.316406 193.007812 127.613281 192.179688 127.953125 191.363281 C 128.289062 190.546875 128.667969 189.75 129.082031 188.96875 C 129.5 188.191406 129.953125 187.433594 130.441406 186.699219 C 130.933594 185.964844 131.457031 185.257812 132.019531 184.574219 C 132.578125 183.890625 133.171875 183.238281 133.796875 182.613281 C 134.421875 181.988281 135.074219 181.394531 135.757812 180.835938 C 136.4375 180.273438 137.148438 179.746094 137.882812 179.257812 C 138.613281 178.765625 139.371094 178.3125 140.148438 177.894531 C 140.929688 177.480469 141.726562 177.101562 142.542969 176.765625 C 143.359375 176.425781 144.1875 176.128906 145.03125 175.871094 C 145.878906 175.617188 146.734375 175.402344 147.597656 175.230469 C 148.464844 175.058594 149.335938 174.929688 150.214844 174.839844 C 151.09375 174.753906 151.976562 174.710938 152.859375 174.710938 C 153.742188 174.710938 154.621094 174.753906 155.5 174.839844 C 156.378906 174.929688 157.253906 175.058594 158.117188 175.230469 C 158.984375 175.402344 159.839844 175.617188 160.683594 175.871094 C 161.527344 176.128906 162.359375 176.425781 163.175781 176.765625 C 163.992188 177.101562 164.789062 177.480469 165.566406 177.894531 C 166.34375 178.3125 167.101562 178.765625 167.835938 179.257812 C 168.570312 179.746094 169.277344 180.273438 169.960938 180.835938 C 170.644531 181.394531 171.296875 181.988281 171.921875 182.613281 C 172.546875 183.238281 173.136719 183.890625 173.699219 184.574219 C 174.257812 185.257812 174.785156 185.964844 175.273438 186.699219 C 175.765625 187.433594 176.21875 188.191406 176.632812 188.96875 C 177.050781 189.75 177.425781 190.546875 177.765625 191.363281 C 178.101562 192.179688 178.398438 193.007812 178.65625 193.855469 C 178.914062 194.699219 179.128906 195.554688 179.300781 196.421875 C 179.472656 197.289062 179.601562 198.160156 179.6875 199.039062 C 179.773438 199.921875 179.816406 200.800781 179.816406 201.683594 Z M 179.816406 201.683594 " fill-opacity="1" fill-rule="nonzero"/><path fill="#ffffff" d="M 216.4375 145.167969 C 216.4375 146.050781 216.390625 146.929688 216.304688 147.808594 C 216.21875 148.6875 216.089844 149.5625 215.917969 150.429688 C 215.746094 151.296875 215.53125 152.152344 215.273438 152.996094 C 215.019531 153.839844 214.722656 154.671875 214.382812 155.488281 C 214.046875 156.304688 213.667969 157.101562 213.253906 157.882812 C 212.835938 158.660156 212.382812 159.417969 211.890625 160.152344 C 211.402344 160.886719 210.875 161.59375 210.316406 162.277344 C 209.757812 162.960938 209.164062 163.613281 208.539062 164.238281 C 207.914062 164.863281 207.261719 165.457031 206.578125 166.015625 C 205.898438 166.578125 205.1875 167.101562 204.453125 167.59375 C 203.71875 168.085938 202.964844 168.539062 202.183594 168.953125 C 201.40625 169.371094 200.609375 169.75 199.792969 170.085938 C 198.976562 170.425781 198.148438 170.722656 197.300781 170.976562 C 196.457031 171.234375 195.601562 171.449219 194.734375 171.621094 C 193.871094 171.792969 192.996094 171.921875 192.121094 172.011719 C 191.242188 172.097656 190.359375 172.140625 189.476562 172.140625 C 188.59375 172.140625 187.714844 172.097656 186.835938 172.011719 C 185.957031 171.921875 185.082031 171.792969 184.21875 171.621094 C 183.351562 171.449219 182.496094 171.234375 181.652344 170.976562 C 180.804688 170.722656 179.976562 170.425781 179.160156 170.085938 C 178.34375 169.75 177.546875 169.371094 176.769531 168.953125 C 175.988281 168.539062 175.234375 168.085938 174.5 167.59375 C 173.765625 167.101562 173.058594 166.578125 172.375 166.015625 C 171.691406 165.457031 171.039062 164.863281 170.414062 164.238281 C 169.789062 163.613281 169.199219 162.960938 168.636719 162.277344 C 168.078125 161.59375 167.550781 160.886719 167.0625 160.152344 C 166.570312 159.417969 166.117188 158.660156 165.703125 157.882812 C 165.285156 157.101562 164.90625 156.304688 164.570312 155.488281 C 164.230469 154.671875 163.933594 153.839844 163.679688 152.996094 C 163.421875 152.152344 163.207031 151.296875 163.035156 150.429688 C 162.863281 149.5625 162.734375 148.6875 162.648438 147.808594 C 162.5625 146.929688 162.519531 146.050781 162.519531 145.167969 C 162.519531 144.28125 162.5625 143.402344 162.648438 142.523438 C 162.734375 141.644531 162.863281 140.769531 163.035156 139.902344 C 163.207031 139.039062 163.421875 138.183594 163.679688 137.335938 C 163.933594 136.492188 164.230469 135.660156 164.570312 134.84375 C 164.90625 134.027344 165.285156 133.230469 165.703125 132.453125 C 166.117188 131.671875 166.570312 130.914062 167.0625 130.179688 C 167.550781 129.445312 168.078125 128.738281 168.636719 128.054688 C 169.199219 127.371094 169.789062 126.71875 170.414062 126.09375 C 171.039062 125.46875 171.691406 124.875 172.375 124.316406 C 173.058594 123.753906 173.765625 123.230469 174.5 122.738281 C 175.234375 122.246094 175.988281 121.792969 176.769531 121.378906 C 177.546875 120.960938 178.34375 120.585938 179.160156 120.246094 C 179.976562 119.90625 180.804688 119.609375 181.652344 119.355469 C 182.496094 119.097656 183.351562 118.882812 184.21875 118.710938 C 185.082031 118.539062 185.957031 118.410156 186.835938 118.324219 C 187.714844 118.234375 188.59375 118.191406 189.476562 118.191406 C 190.359375 118.191406 191.242188 118.234375 192.121094 118.324219 C 192.996094 118.410156 193.871094 118.539062 194.734375 118.710938 C 195.601562 118.882812 196.457031 119.097656 197.300781 119.355469 C 198.148438 119.609375 198.976562 119.90625 199.792969 120.246094 C 200.609375 120.585938 201.40625 120.960938 202.183594 121.378906 C 202.964844 121.792969 203.71875 122.246094 204.453125 122.738281 C 205.1875 123.230469 205.898438 123.753906 206.578125 124.316406 C 207.261719 124.875 207.914062 125.46875 208.539062 126.09375 C 209.164062 126.71875 209.757812 127.371094 210.316406 128.054688 C 210.875 128.738281 211.402344 129.445312 211.890625 130.179688 C 212.382812 130.914062 212.835938 131.671875 213.253906 132.453125 C 213.667969 133.230469 214.046875 134.027344 214.382812 134.84375 C 214.722656 135.660156 215.019531 136.492188 215.273438 137.335938 C 215.53125 138.183594 215.746094 139.039062 215.917969 139.902344 C 216.089844 140.769531 216.21875 141.644531 216.304688 142.523438 C 216.390625 143.402344 216.4375 144.28125 216.4375 145.167969 Z M 216.4375 145.167969 " fill-opacity="1" fill-rule="nonzero"/><path fill="#ffffff" d="M 240.742188 98.582031 C 240.742188 99.144531 240.714844 99.703125 240.660156 100.257812 C 240.605469 100.816406 240.523438 101.367188 240.414062 101.917969 C 240.304688 102.464844 240.171875 103.007812 240.007812 103.542969 C 239.847656 104.078125 239.65625 104.605469 239.445312 105.125 C 239.230469 105.640625 238.992188 106.144531 238.726562 106.640625 C 238.464844 107.132812 238.175781 107.613281 237.867188 108.078125 C 237.554688 108.542969 237.222656 108.992188 236.867188 109.425781 C 236.511719 109.855469 236.136719 110.273438 235.742188 110.667969 C 235.347656 111.0625 234.933594 111.4375 234.5 111.792969 C 234.066406 112.148438 233.617188 112.480469 233.152344 112.792969 C 232.6875 113.101562 232.210938 113.390625 231.714844 113.65625 C 231.222656 113.917969 230.71875 114.15625 230.199219 114.371094 C 229.683594 114.585938 229.15625 114.773438 228.621094 114.9375 C 228.085938 115.097656 227.546875 115.234375 226.996094 115.34375 C 226.449219 115.453125 225.894531 115.535156 225.339844 115.589844 C 224.78125 115.644531 224.222656 115.671875 223.664062 115.671875 C 223.105469 115.671875 222.546875 115.644531 221.992188 115.589844 C 221.433594 115.535156 220.882812 115.453125 220.332031 115.34375 C 219.785156 115.234375 219.242188 115.097656 218.707031 114.9375 C 218.171875 114.773438 217.644531 114.585938 217.128906 114.371094 C 216.613281 114.15625 216.105469 113.917969 215.613281 113.65625 C 215.121094 113.390625 214.640625 113.101562 214.175781 112.792969 C 213.710938 112.480469 213.261719 112.148438 212.832031 111.792969 C 212.398438 111.4375 211.984375 111.0625 211.589844 110.667969 C 211.191406 110.273438 210.816406 109.855469 210.460938 109.425781 C 210.109375 108.992188 209.773438 108.542969 209.464844 108.078125 C 209.152344 107.613281 208.867188 107.132812 208.601562 106.640625 C 208.339844 106.144531 208.101562 105.640625 207.886719 105.125 C 207.671875 104.605469 207.484375 104.078125 207.320312 103.542969 C 207.160156 103.007812 207.023438 102.464844 206.914062 101.917969 C 206.804688 101.367188 206.722656 100.816406 206.667969 100.257812 C 206.613281 99.703125 206.585938 99.144531 206.585938 98.582031 C 206.585938 98.023438 206.613281 97.464844 206.667969 96.910156 C 206.722656 96.351562 206.804688 95.800781 206.914062 95.25 C 207.023438 94.703125 207.160156 94.160156 207.320312 93.625 C 207.484375 93.089844 207.671875 92.5625 207.886719 92.042969 C 208.101562 91.527344 208.339844 91.023438 208.601562 90.527344 C 208.867188 90.035156 209.152344 89.554688 209.464844 89.089844 C 209.773438 88.625 210.109375 88.175781 210.460938 87.742188 C 210.816406 87.3125 211.191406 86.894531 211.589844 86.5 C 211.984375 86.105469 212.398438 85.730469 212.832031 85.375 C 213.261719 85.019531 213.710938 84.6875 214.175781 84.375 C 214.640625 84.066406 215.121094 83.777344 215.613281 83.511719 C 216.105469 83.25 216.613281 83.011719 217.128906 82.796875 C 217.644531 82.582031 218.171875 82.394531 218.707031 82.230469 C 219.242188 82.070312 219.785156 81.933594 220.332031 81.824219 C 220.882812 81.714844 221.433594 81.632812 221.992188 81.578125 C 222.546875 81.523438 223.105469 81.496094 223.664062 81.496094 C 224.222656 81.496094 224.78125 81.523438 225.339844 81.578125 C 225.894531 81.632812 226.449219 81.714844 226.996094 81.824219 C 227.546875 81.933594 228.085938 82.070312 228.621094 82.230469 C 229.15625 82.394531 229.683594 82.582031 230.199219 82.796875 C 230.71875 83.011719 231.222656 83.25 231.714844 83.511719 C 232.210938 83.777344 232.6875 84.066406 233.152344 84.375 C 233.617188 84.6875 234.066406 85.019531 234.5 85.375 C 234.933594 85.730469 235.347656 86.105469 235.742188 86.5 C 236.136719 86.894531 236.511719 87.3125 236.867188 87.742188 C 237.222656 88.175781 237.554688 88.625 237.867188 89.089844 C 238.175781 89.554688 238.464844 90.035156 238.726562 90.527344 C 238.992188 91.023438 239.230469 91.527344 239.445312 92.042969 C 239.65625 92.5625 239.847656 93.089844 240.007812 93.625 C 240.171875 94.160156 240.304688 94.703125 240.414062 95.25 C 240.523438 95.800781 240.605469 96.351562 240.660156 96.910156 C 240.714844 97.464844 240.742188 98.023438 240.742188 98.582031 Z M 240.742188 98.582031 " fill-opacity="1" fill-rule="nonzero"/><path fill="#ffffff" d="M 179.597656 98.582031 C 179.597656 99.144531 179.570312 99.703125 179.515625 100.257812 C 179.460938 100.816406 179.378906 101.367188 179.269531 101.917969 C 179.160156 102.464844 179.023438 103.007812 178.863281 103.542969 C 178.699219 104.078125 178.511719 104.605469 178.296875 105.125 C 178.082031 105.640625 177.84375 106.144531 177.582031 106.640625 C 177.316406 107.132812 177.027344 107.613281 176.71875 108.078125 C 176.40625 108.542969 176.074219 108.992188 175.71875 109.425781 C 175.363281 109.855469 174.988281 110.273438 174.59375 110.667969 C 174.199219 111.0625 173.785156 111.4375 173.351562 111.792969 C 172.921875 112.148438 172.472656 112.480469 172.007812 112.792969 C 171.542969 113.101562 171.0625 113.390625 170.570312 113.65625 C 170.074219 113.917969 169.570312 114.15625 169.054688 114.371094 C 168.535156 114.585938 168.011719 114.773438 167.476562 114.9375 C 166.941406 115.097656 166.398438 115.234375 165.851562 115.34375 C 165.300781 115.453125 164.75 115.535156 164.191406 115.589844 C 163.636719 115.644531 163.078125 115.671875 162.519531 115.671875 C 161.957031 115.671875 161.402344 115.644531 160.84375 115.589844 C 160.289062 115.535156 159.734375 115.453125 159.1875 115.34375 C 158.636719 115.234375 158.09375 115.097656 157.558594 114.9375 C 157.023438 114.773438 156.5 114.585938 155.980469 114.371094 C 155.464844 114.15625 154.960938 113.917969 154.46875 113.65625 C 153.972656 113.390625 153.496094 113.101562 153.03125 112.792969 C 152.5625 112.480469 152.117188 112.148438 151.683594 111.792969 C 151.25 111.4375 150.835938 111.0625 150.441406 110.667969 C 150.046875 110.273438 149.671875 109.855469 149.316406 109.425781 C 148.960938 108.992188 148.628906 108.542969 148.316406 108.078125 C 148.007812 107.613281 147.71875 107.132812 147.457031 106.640625 C 147.191406 106.144531 146.953125 105.640625 146.738281 105.125 C 146.523438 104.605469 146.335938 104.078125 146.175781 103.542969 C 146.011719 103.007812 145.875 102.464844 145.765625 101.917969 C 145.65625 101.367188 145.574219 100.816406 145.519531 100.257812 C 145.464844 99.703125 145.4375 99.144531 145.4375 98.582031 C 145.4375 98.023438 145.464844 97.464844 145.519531 96.910156 C 145.574219 96.351562 145.65625 95.800781 145.765625 95.25 C 145.875 94.703125 146.011719 94.160156 146.175781 93.625 C 146.335938 93.089844 146.523438 92.5625 146.738281 92.042969 C 146.953125 91.527344 147.191406 91.023438 147.457031 90.527344 C 147.71875 90.035156 148.007812 89.554688 148.316406 89.089844 C 148.628906 88.625 148.960938 88.175781 149.316406 87.742188 C 149.671875 87.3125 150.046875 86.894531 150.441406 86.5 C 150.835938 86.105469 151.25 85.730469 151.683594 85.375 C 152.117188 85.019531 152.5625 84.6875 153.03125 84.375 C 153.496094 84.066406 153.972656 83.777344 154.46875 83.511719 C 154.960938 83.25 155.464844 83.011719 155.980469 82.796875 C 156.5 82.582031 157.023438 82.394531 157.558594 82.230469 C 158.09375 82.070312 158.636719 81.933594 159.1875 81.824219 C 159.734375 81.714844 160.289062 81.632812 160.84375 81.578125 C 161.402344 81.523438 161.957031 81.496094 162.519531 81.496094 C 163.078125 81.496094 163.636719 81.523438 164.191406 81.578125 C 164.75 81.632812 165.300781 81.714844 165.851562 81.824219 C 166.398438 81.933594 166.941406 82.070312 167.476562 82.230469 C 168.011719 82.394531 168.535156 82.582031 169.054688 82.796875 C 169.570312 83.011719 170.074219 83.25 170.570312 83.511719 C 171.0625 83.777344 171.542969 84.066406 172.007812 84.375 C 172.472656 84.6875 172.921875 85.019531 173.351562 85.375 C 173.785156 85.730469 174.199219 86.105469 174.59375 86.5 C 174.988281 86.894531 175.363281 87.3125 175.71875 87.742188 C 176.074219 88.175781 176.40625 88.625 176.71875 89.089844 C 177.027344 89.554688 177.316406 90.035156 177.582031 90.527344 C 177.84375 91.023438 178.082031 91.527344 178.296875 92.042969 C 178.511719 92.5625 178.699219 93.089844 178.863281 93.625 C 179.023438 94.160156 179.160156 94.703125 179.269531 95.25 C 179.378906 95.800781 179.460938 96.351562 179.515625 96.910156 C 179.570312 97.464844 179.597656 98.023438 179.597656 98.582031 Z M 179.597656 98.582031 " fill-opacity="1" fill-rule="nonzero"/><path fill="#37a640" d="M 77.089844 262.941406 L 300.8125 262.941406 C 301.570312 262.941406 302.324219 262.976562 303.078125 263.050781 C 303.828125 263.125 304.574219 263.234375 305.316406 263.382812 C 306.058594 263.53125 306.792969 263.714844 307.515625 263.933594 C 308.238281 264.152344 308.949219 264.40625 309.648438 264.695312 C 310.347656 264.988281 311.027344 265.308594 311.695312 265.664062 C 312.363281 266.023438 313.011719 266.410156 313.640625 266.832031 C 314.265625 267.25 314.875 267.699219 315.457031 268.179688 C 316.042969 268.660156 316.601562 269.167969 317.136719 269.703125 C 317.671875 270.238281 318.179688 270.796875 318.660156 271.382812 C 319.136719 271.964844 319.585938 272.574219 320.007812 273.199219 C 320.429688 273.828125 320.816406 274.476562 321.171875 275.144531 C 321.527344 275.8125 321.851562 276.496094 322.140625 277.191406 C 322.429688 277.890625 322.683594 278.601562 322.902344 279.328125 C 323.125 280.050781 323.308594 280.78125 323.453125 281.523438 C 323.601562 282.265625 323.714844 283.011719 323.785156 283.765625 C 323.859375 284.519531 323.898438 285.273438 323.898438 286.027344 L 323.898438 326.9375 C 323.898438 327.695312 323.859375 328.449219 323.785156 329.203125 C 323.714844 329.953125 323.601562 330.703125 323.453125 331.441406 C 323.308594 332.183594 323.125 332.917969 322.902344 333.640625 C 322.683594 334.363281 322.429688 335.074219 322.140625 335.773438 C 321.851562 336.472656 321.527344 337.15625 321.171875 337.824219 C 320.816406 338.488281 320.429688 339.136719 320.007812 339.765625 C 319.585938 340.394531 319.136719 341 318.660156 341.585938 C 318.179688 342.171875 317.671875 342.730469 317.136719 343.265625 C 316.601562 343.800781 316.042969 344.308594 315.457031 344.785156 C 314.875 345.265625 314.265625 345.714844 313.640625 346.136719 C 313.011719 346.558594 312.363281 346.945312 311.695312 347.300781 C 311.027344 347.65625 310.347656 347.980469 309.648438 348.269531 C 308.949219 348.558594 308.238281 348.8125 307.515625 349.035156 C 306.792969 349.253906 306.058594 349.4375 305.316406 349.585938 C 304.574219 349.730469 303.828125 349.84375 303.078125 349.917969 C 302.324219 349.992188 301.570312 350.027344 300.8125 350.027344 L 77.089844 350.027344 C 76.335938 350.027344 75.582031 349.992188 74.828125 349.917969 C 74.078125 349.84375 73.328125 349.730469 72.589844 349.585938 C 71.847656 349.4375 71.113281 349.253906 70.390625 349.035156 C 69.667969 348.8125 68.957031 348.558594 68.257812 348.269531 C 67.558594 347.980469 66.875 347.65625 66.210938 347.300781 C 65.542969 346.945312 64.894531 346.558594 64.265625 346.136719 C 63.636719 345.714844 63.03125 345.265625 62.445312 344.785156 C 61.863281 344.308594 61.304688 343.800781 60.769531 343.265625 C 60.234375 342.730469 59.726562 342.171875 59.246094 341.585938 C 58.769531 341 58.316406 340.394531 57.898438 339.765625 C 57.476562 339.136719 57.089844 338.488281 56.734375 337.824219 C 56.375 337.15625 56.054688 336.472656 55.765625 335.773438 C 55.476562 335.074219 55.222656 334.363281 55 333.640625 C 54.78125 332.917969 54.597656 332.183594 54.449219 331.441406 C 54.304688 330.703125 54.191406 329.953125 54.117188 329.203125 C 54.042969 328.449219 54.007812 327.695312 54.007812 326.9375 L 54.007812 286.027344 C 54.007812 285.273438 54.042969 284.519531 54.117188 283.765625 C 54.191406 283.011719 54.304688 282.265625 54.449219 281.523438 C 54.597656 280.78125 54.78125 280.050781 55 279.328125 C 55.222656 278.601562 55.476562 277.890625 55.765625 277.191406 C 56.054688 276.496094 56.375 275.8125 56.734375 275.144531 C 57.089844 274.476562 57.476562 273.828125 57.898438 273.199219 C 58.316406 272.574219 58.769531 271.964844 59.246094 271.382812 C 59.726562 270.796875 60.234375 270.238281 60.769531 269.703125 C 61.304688 269.167969 61.863281 268.660156 62.445312 268.179688 C 63.03125 267.699219 63.636719 267.25 64.265625 266.832031 C 64.894531 266.410156 65.542969 266.023438 66.210938 265.664062 C 66.875 265.308594 67.558594 264.988281 68.257812 264.695312 C 68.957031 264.40625 69.667969 264.152344 70.390625 263.933594 C 71.113281 263.714844 71.847656 263.53125 72.589844 263.382812 C 73.328125 263.234375 74.078125 263.125 74.828125 263.050781 C 75.582031 262.976562 76.335938 262.941406 77.089844 262.941406 Z M 77.089844 262.941406 " fill-opacity="1" fill-rule="nonzero"/><path fill="#ffffff" d="M 288.140625 306.480469 C 288.140625 307.480469 288.089844 308.476562 287.992188 309.46875 C 287.894531 310.460938 287.75 311.449219 287.554688 312.429688 C 287.359375 313.40625 287.117188 314.375 286.828125 315.328125 C 286.539062 316.285156 286.203125 317.222656 285.820312 318.144531 C 285.4375 319.066406 285.011719 319.96875 284.542969 320.851562 C 284.070312 321.730469 283.558594 322.585938 283.003906 323.414062 C 282.449219 324.246094 281.855469 325.046875 281.222656 325.816406 C 280.589844 326.589844 279.921875 327.328125 279.214844 328.035156 C 278.511719 328.738281 277.773438 329.410156 277 330.042969 C 276.230469 330.675781 275.429688 331.269531 274.601562 331.824219 C 273.769531 332.378906 272.917969 332.890625 272.035156 333.363281 C 271.15625 333.832031 270.253906 334.257812 269.332031 334.640625 C 268.410156 335.023438 267.472656 335.359375 266.519531 335.648438 C 265.5625 335.9375 264.597656 336.179688 263.621094 336.375 C 262.640625 336.570312 261.65625 336.71875 260.660156 336.816406 C 259.667969 336.914062 258.671875 336.960938 257.675781 336.960938 C 256.679688 336.960938 255.683594 336.914062 254.691406 336.816406 C 253.699219 336.71875 252.710938 336.570312 251.734375 336.375 C 250.753906 336.179688 249.789062 335.9375 248.832031 335.648438 C 247.878906 335.359375 246.941406 335.023438 246.019531 334.640625 C 245.097656 334.257812 244.195312 333.832031 243.316406 333.363281 C 242.4375 332.890625 241.582031 332.378906 240.75 331.824219 C 239.921875 331.269531 239.121094 330.675781 238.351562 330.042969 C 237.578125 329.410156 236.839844 328.738281 236.136719 328.035156 C 235.429688 327.328125 234.761719 326.589844 234.128906 325.816406 C 233.496094 325.046875 232.902344 324.246094 232.347656 323.414062 C 231.792969 322.585938 231.28125 321.730469 230.808594 320.851562 C 230.339844 319.96875 229.914062 319.066406 229.53125 318.144531 C 229.148438 317.222656 228.8125 316.285156 228.523438 315.328125 C 228.234375 314.375 227.992188 313.40625 227.796875 312.429688 C 227.605469 311.449219 227.457031 310.460938 227.359375 309.46875 C 227.261719 308.476562 227.210938 307.480469 227.210938 306.480469 C 227.210938 305.484375 227.261719 304.488281 227.359375 303.492188 C 227.457031 302.5 227.605469 301.515625 227.796875 300.535156 C 227.992188 299.554688 228.234375 298.589844 228.523438 297.632812 C 228.8125 296.679688 229.148438 295.738281 229.53125 294.816406 C 229.914062 293.894531 230.339844 292.992188 230.808594 292.113281 C 231.28125 291.234375 231.792969 290.378906 232.347656 289.546875 C 232.902344 288.71875 233.496094 287.917969 234.128906 287.144531 C 234.761719 286.375 235.429688 285.636719 236.136719 284.929688 C 236.839844 284.222656 237.578125 283.554688 238.351562 282.921875 C 239.121094 282.285156 239.921875 281.691406 240.75 281.136719 C 241.582031 280.582031 242.4375 280.070312 243.316406 279.601562 C 244.195312 279.128906 245.097656 278.703125 246.019531 278.320312 C 246.941406 277.941406 247.878906 277.605469 248.832031 277.3125 C 249.789062 277.023438 250.753906 276.78125 251.734375 276.585938 C 252.710938 276.390625 253.699219 276.246094 254.691406 276.148438 C 255.683594 276.050781 256.679688 276 257.675781 276 C 258.671875 276 259.667969 276.050781 260.660156 276.148438 C 261.65625 276.246094 262.640625 276.390625 263.621094 276.585938 C 264.597656 276.78125 265.5625 277.023438 266.519531 277.3125 C 267.472656 277.605469 268.410156 277.941406 269.332031 278.320312 C 270.253906 278.703125 271.15625 279.128906 272.035156 279.601562 C 272.917969 280.070312 273.769531 280.582031 274.601562 281.136719 C 275.429688 281.691406 276.230469 282.285156 277 282.921875 C 277.773438 283.554688 278.511719 284.222656 279.214844 284.929688 C 279.921875 285.636719 280.589844 286.375 281.222656 287.144531 C 281.855469 287.917969 282.449219 288.71875 283.003906 289.546875 C 283.558594 290.378906 284.070312 291.234375 284.542969 292.113281 C 285.011719 292.992188 285.4375 293.894531 285.820312 294.816406 C 286.203125 295.738281 286.539062 296.679688 286.828125 297.632812 C 287.117188 298.589844 287.359375 299.554688 287.554688 300.535156 C 287.75 301.515625 287.894531 302.5 287.992188 303.492188 C 288.089844 304.488281 288.140625 305.484375 288.140625 306.480469 Z M 288.140625 306.480469 " fill-opacity="1" fill-rule="nonzero"/><path fill="#ffffff" d="M 157.703125 306.480469 C 157.703125 307.480469 157.65625 308.476562 157.558594 309.46875 C 157.460938 310.460938 157.3125 311.449219 157.117188 312.429688 C 156.925781 313.40625 156.683594 314.375 156.390625 315.328125 C 156.101562 316.285156 155.765625 317.222656 155.386719 318.144531 C 155.003906 319.066406 154.578125 319.96875 154.105469 320.851562 C 153.636719 321.730469 153.125 322.585938 152.570312 323.414062 C 152.015625 324.246094 151.421875 325.046875 150.789062 325.816406 C 150.15625 326.589844 149.488281 327.328125 148.78125 328.035156 C 148.078125 328.738281 147.335938 329.410156 146.566406 330.042969 C 145.796875 330.675781 144.996094 331.269531 144.164062 331.824219 C 143.335938 332.378906 142.480469 332.890625 141.601562 333.363281 C 140.722656 333.832031 139.820312 334.257812 138.898438 334.640625 C 137.976562 335.023438 137.039062 335.359375 136.085938 335.648438 C 135.128906 335.9375 134.164062 336.179688 133.183594 336.375 C 132.207031 336.570312 131.21875 336.71875 130.226562 336.816406 C 129.234375 336.914062 128.238281 336.960938 127.242188 336.960938 C 126.242188 336.960938 125.246094 336.914062 124.253906 336.816406 C 123.261719 336.71875 122.277344 336.570312 121.296875 336.375 C 120.320312 336.179688 119.351562 335.9375 118.398438 335.648438 C 117.441406 335.359375 116.503906 335.023438 115.582031 334.640625 C 114.660156 334.257812 113.761719 333.832031 112.878906 333.363281 C 112 332.890625 111.144531 332.378906 110.316406 331.824219 C 109.488281 331.269531 108.6875 330.675781 107.914062 330.042969 C 107.144531 329.410156 106.40625 328.738281 105.699219 328.035156 C 104.996094 327.328125 104.324219 326.589844 103.691406 325.816406 C 103.058594 325.046875 102.464844 324.246094 101.910156 323.414062 C 101.359375 322.585938 100.84375 321.730469 100.375 320.851562 C 99.90625 319.96875 99.476562 319.066406 99.097656 318.144531 C 98.714844 317.222656 98.378906 316.285156 98.089844 315.328125 C 97.800781 314.375 97.558594 313.40625 97.363281 312.429688 C 97.167969 311.449219 97.023438 310.460938 96.925781 309.46875 C 96.828125 308.476562 96.777344 307.480469 96.777344 306.480469 C 96.777344 305.484375 96.828125 304.488281 96.925781 303.492188 C 97.023438 302.5 97.167969 301.515625 97.363281 300.535156 C 97.558594 299.554688 97.800781 298.589844 98.089844 297.632812 C 98.378906 296.679688 98.714844 295.738281 99.097656 294.816406 C 99.476562 293.894531 99.90625 292.992188 100.375 292.113281 C 100.84375 291.234375 101.359375 290.378906 101.910156 289.546875 C 102.464844 288.71875 103.058594 287.917969 103.691406 287.144531 C 104.324219 286.375 104.996094 285.636719 105.699219 284.929688 C 106.40625 284.222656 107.144531 283.554688 107.914062 282.921875 C 108.6875 282.285156 109.488281 281.691406 110.316406 281.136719 C 111.144531 280.582031 112 280.070312 112.878906 279.601562 C 113.761719 279.128906 114.660156 278.703125 115.582031 278.320312 C 116.503906 277.941406 117.441406 277.605469 118.398438 277.3125 C 119.351562 277.023438 120.320312 276.78125 121.296875 276.585938 C 122.277344 276.390625 123.261719 276.246094 124.253906 276.148438 C 125.246094 276.050781 126.242188 276 127.242188 276 C 128.238281 276 129.234375 276.050781 130.226562 276.148438 C 131.21875 276.246094 132.207031 276.390625 133.183594 276.585938 C 134.164062 276.78125 135.128906 277.023438 136.085938 277.3125 C 137.039062 277.605469 137.976562 277.941406 138.898438 278.320312 C 139.820312 278.703125 140.722656 279.128906 141.601562 279.601562 C 142.480469 280.070312 143.335938 280.582031 144.164062 281.136719 C 144.996094 281.691406 145.796875 282.285156 146.566406 282.921875 C 147.335938 283.554688 148.078125 284.222656 148.78125 284.929688 C 149.488281 285.636719 150.15625 286.375 150.789062 287.144531 C 151.421875 287.917969 152.015625 288.71875 152.570312 289.546875 C 153.125 290.378906 153.636719 291.234375 154.105469 292.113281 C 154.578125 292.992188 155.003906 293.894531 155.386719 294.816406 C 155.765625 295.738281 156.101562 296.679688 156.390625 297.632812 C 156.683594 298.589844 156.925781 299.554688 157.117188 300.535156 C 157.3125 301.515625 157.460938 302.5 157.558594 303.492188 C 157.65625 304.488281 157.703125 305.484375 157.703125 306.480469 Z M 157.703125 306.480469 " fill-opacity="1" fill-rule="nonzero"/></svg>