<svg xmlns="http://www.w3.org/2000/svg" xmlns:xlink="http://www.w3.org/1999/xlink" width="500" zoomAndPan="magnify" viewBox="0 0 375 374.999991" height="500" preserveAspectRatio="xMidYMid meet" version="1.0"><path fill="#006cf4" d="M 189.105469 12.628906 C 258.605469 12.617188 321.269531 54.878906 347.871094 119.703125 C 374.472656 184.53125 359.773438 259.152344 310.628906 308.769531 C 261.484375 358.386719 187.574219 373.226562 123.363281 346.371094 C 59.15625 319.511719 17.296875 256.246094 17.308594 186.074219 C 17.308594 140.074219 35.40625 95.957031 67.625 63.429688 C 99.84375 30.902344 143.542969 12.628906 189.105469 12.628906 Z M 189.105469 12.628906 " fill-opacity="1" fill-rule="nonzero"/><path fill="#04589b" d="M 335.636719 186.074219 C 335.636719 188.496094 335.578125 190.917969 335.460938 193.335938 C 335.34375 195.753906 335.167969 198.167969 334.929688 200.578125 C 334.695312 202.988281 334.402344 205.386719 334.050781 207.785156 C 333.699219 210.179688 333.289062 212.5625 332.820312 214.9375 C 332.355469 217.3125 331.828125 219.675781 331.246094 222.023438 C 330.664062 224.371094 330.023438 226.703125 329.328125 229.019531 C 328.632812 231.339844 327.878906 233.636719 327.070312 235.917969 C 326.261719 238.195312 325.402344 240.453125 324.484375 242.691406 C 323.566406 244.929688 322.59375 247.140625 321.566406 249.328125 C 320.542969 251.519531 319.464844 253.679688 318.335938 255.816406 C 317.203125 257.949219 316.023438 260.058594 314.789062 262.132812 C 313.554688 264.210938 312.273438 266.253906 310.941406 268.269531 C 309.609375 270.28125 308.230469 272.261719 306.800781 274.207031 C 305.371094 276.148438 303.898438 278.058594 302.375 279.929688 C 300.855469 281.800781 299.289062 283.632812 297.679688 285.429688 C 296.066406 287.222656 294.414062 288.976562 292.71875 290.6875 C 291.023438 292.398438 289.285156 294.066406 287.507812 295.695312 C 285.734375 297.320312 283.917969 298.902344 282.0625 300.4375 C 280.210938 301.972656 278.320312 303.460938 276.394531 304.90625 C 274.46875 306.347656 272.507812 307.742188 270.511719 309.085938 C 268.519531 310.429688 266.492188 311.726562 264.4375 312.96875 C 262.378906 314.214844 260.292969 315.410156 258.179688 316.550781 C 256.0625 317.691406 253.921875 318.777344 251.753906 319.8125 C 249.585938 320.851562 247.394531 321.832031 245.179688 322.757812 C 242.964844 323.683594 240.726562 324.554688 238.46875 325.371094 C 236.210938 326.1875 233.933594 326.945312 231.640625 327.648438 C 229.34375 328.351562 227.035156 328.996094 224.707031 329.585938 C 222.382812 330.171875 220.042969 330.703125 217.691406 331.175781 C 215.339844 331.648438 212.976562 332.0625 210.605469 332.417969 C 208.234375 332.773438 205.851562 333.070312 203.464844 333.304688 C 201.078125 333.542969 198.6875 333.722656 196.292969 333.839844 C 193.898438 333.960938 191.5 334.019531 189.105469 334.019531 C 186.707031 334.019531 184.308594 333.960938 181.914062 333.839844 C 179.519531 333.722656 177.128906 333.542969 174.742188 333.304688 C 172.355469 333.070312 169.976562 332.773438 167.601562 332.417969 C 165.230469 332.0625 162.867188 331.648438 160.515625 331.175781 C 158.164062 330.703125 155.824219 330.171875 153.5 329.585938 C 151.171875 328.996094 148.863281 328.351562 146.566406 327.648438 C 144.273438 326.945312 141.996094 326.1875 139.738281 325.371094 C 137.480469 324.554688 135.242188 323.683594 133.027344 322.757812 C 130.8125 321.832031 128.621094 320.851562 126.453125 319.8125 C 124.285156 318.777344 122.144531 317.691406 120.027344 316.550781 C 117.914062 315.410156 115.828125 314.214844 113.769531 312.96875 C 111.714844 311.726562 109.6875 310.429688 107.695312 309.085938 C 105.699219 307.742188 103.742188 306.347656 101.8125 304.90625 C 99.886719 303.460938 97.996094 301.972656 96.144531 300.4375 C 94.289062 298.902344 92.476562 297.320312 90.699219 295.695312 C 88.921875 294.066406 87.183594 292.398438 85.488281 290.6875 C 83.792969 288.976562 82.140625 287.222656 80.53125 285.429688 C 78.917969 283.632812 77.351562 281.800781 75.832031 279.929688 C 74.3125 278.058594 72.835938 276.148438 71.40625 274.207031 C 69.980469 272.261719 68.597656 270.28125 67.265625 268.269531 C 65.933594 266.253906 64.652344 264.210938 63.417969 262.132812 C 62.183594 260.058594 61.003906 257.949219 59.875 255.816406 C 58.742188 253.679688 57.664062 251.519531 56.640625 249.328125 C 55.613281 247.140625 54.640625 244.929688 53.726562 242.691406 C 52.808594 240.453125 51.945312 238.195312 51.136719 235.917969 C 50.328125 233.636719 49.578125 231.339844 48.878906 229.019531 C 48.183594 226.703125 47.542969 224.371094 46.960938 222.023438 C 46.378906 219.675781 45.855469 217.3125 45.386719 214.9375 C 44.917969 212.5625 44.507812 210.179688 44.15625 207.785156 C 43.804688 205.386719 43.511719 202.988281 43.277344 200.578125 C 43.042969 198.167969 42.863281 195.753906 42.746094 193.335938 C 42.628906 190.917969 42.570312 188.496094 42.570312 186.074219 C 42.570312 183.65625 42.628906 181.234375 42.746094 178.816406 C 42.863281 176.398438 43.042969 173.984375 43.277344 171.574219 C 43.511719 169.164062 43.804688 166.761719 44.15625 164.367188 C 44.507812 161.972656 44.917969 159.589844 45.386719 157.214844 C 45.855469 154.839844 46.378906 152.476562 46.960938 150.128906 C 47.542969 147.78125 48.183594 145.449219 48.878906 143.128906 C 49.578125 140.8125 50.328125 138.515625 51.136719 136.234375 C 51.945312 133.957031 52.808594 131.699219 53.726562 129.460938 C 54.640625 127.222656 55.613281 125.011719 56.640625 122.824219 C 57.664062 120.632812 58.742188 118.472656 59.871094 116.335938 C 61.003906 114.199219 62.183594 112.09375 63.417969 110.019531 C 64.652344 107.941406 65.933594 105.898438 67.265625 103.882812 C 68.597656 101.871094 69.980469 99.890625 71.40625 97.945312 C 72.835938 96 74.3125 94.09375 75.832031 92.222656 C 77.351562 90.351562 78.917969 88.519531 80.53125 86.722656 C 82.140625 84.929688 83.792969 83.175781 85.488281 81.464844 C 87.183594 79.753906 88.921875 78.082031 90.699219 76.457031 C 92.476562 74.832031 94.289062 73.25 96.144531 71.714844 C 97.996094 70.179688 99.886719 68.691406 101.8125 67.246094 C 103.742188 65.804688 105.699219 64.410156 107.695312 63.066406 C 109.6875 61.722656 111.714844 60.425781 113.769531 59.179688 C 115.828125 57.9375 117.914062 56.742188 120.027344 55.601562 C 122.144531 54.460938 124.285156 53.371094 126.453125 52.335938 C 128.621094 51.300781 130.8125 50.320312 133.027344 49.394531 C 135.242188 48.46875 137.480469 47.597656 139.738281 46.78125 C 141.996094 45.964844 144.273438 45.207031 146.566406 44.503906 C 148.863281 43.800781 151.171875 43.15625 153.5 42.566406 C 155.824219 41.980469 158.164062 41.449219 160.515625 40.976562 C 162.867188 40.503906 165.230469 40.089844 167.601562 39.734375 C 169.976562 39.378906 172.355469 39.082031 174.742188 38.84375 C 177.128906 38.609375 179.519531 38.429688 181.914062 38.3125 C 184.308594 38.191406 186.707031 38.132812 189.105469 38.132812 C 191.5 38.132812 193.898438 38.191406 196.292969 38.3125 C 198.6875 38.429688 201.078125 38.609375 203.464844 38.84375 C 205.851562 39.082031 208.234375 39.378906 210.605469 39.734375 C 212.976562 40.089844 215.339844 40.503906 217.691406 40.976562 C 220.042969 41.449219 222.382812 41.980469 224.707031 42.566406 C 227.035156 43.15625 229.34375 43.800781 231.640625 44.503906 C 233.933594 45.207031 236.210938 45.964844 238.46875 46.78125 C 240.726562 47.597656 242.964844 48.46875 245.179688 49.394531 C 247.394531 50.320312 249.585938 51.300781 251.753906 52.335938 C 253.921875 53.371094 256.0625 54.460938 258.179688 55.601562 C 260.292969 56.742188 262.378906 57.9375 264.4375 59.179688 C 266.492188 60.425781 268.519531 61.722656 270.511719 63.066406 C 272.507812 64.410156 274.46875 65.804688 276.394531 67.246094 C 278.320312 68.691406 280.210938 70.179688 282.0625 71.714844 C 283.917969 73.25 285.734375 74.832031 287.507812 76.457031 C 289.285156 78.082031 291.023438 79.753906 292.71875 81.464844 C 294.414062 83.175781 296.066406 84.929688 297.679688 86.722656 C 299.289062 88.519531 300.855469 90.351562 302.375 92.222656 C 303.898438 94.09375 305.371094 96 306.800781 97.945312 C 308.230469 99.890625 309.609375 101.871094 310.941406 103.882812 C 312.273438 105.898438 313.554688 107.941406 314.789062 110.019531 C 316.023438 112.09375 317.203125 114.199219 318.335938 116.335938 C 319.464844 118.472656 320.542969 120.632812 321.566406 122.824219 C 322.59375 125.011719 323.566406 127.222656 324.484375 129.460938 C 325.402344 131.699219 326.261719 133.957031 327.070312 136.234375 C 327.878906 138.515625 328.632812 140.8125 329.328125 143.128906 C 330.023438 145.449219 330.664062 147.78125 331.246094 150.128906 C 331.828125 152.476562 332.355469 154.839844 332.820312 157.214844 C 333.289062 159.589844 333.699219 161.972656 334.050781 164.367188 C 334.402344 166.761719 334.695312 169.164062 334.929688 171.574219 C 335.167969 173.984375 335.34375 176.398438 335.460938 178.816406 C 335.578125 181.234375 335.636719 183.65625 335.636719 186.074219 Z M 335.636719 186.074219 " fill-opacity="1" fill-rule="nonzero"/><path fill="#ffffff" d="M 165.519531 186.074219 C 165.519531 187.433594 165.457031 188.789062 165.324219 190.140625 C 165.191406 191.492188 164.996094 192.835938 164.730469 194.167969 C 164.46875 195.5 164.144531 196.816406 163.753906 198.117188 C 163.363281 199.417969 162.910156 200.695312 162.394531 201.949219 C 161.878906 203.207031 161.304688 204.433594 160.671875 205.628906 C 160.035156 206.828125 159.34375 207.992188 158.597656 209.121094 C 157.847656 210.25 157.050781 211.339844 156.195312 212.390625 C 155.339844 213.441406 154.4375 214.445312 153.488281 215.40625 C 152.535156 216.367188 151.539062 217.28125 150.5 218.140625 C 149.460938 219.003906 148.378906 219.8125 147.261719 220.566406 C 146.144531 221.320312 144.988281 222.019531 143.804688 222.660156 C 142.617188 223.300781 141.402344 223.878906 140.160156 224.398438 C 138.914062 224.917969 137.648438 225.375 136.363281 225.769531 C 135.074219 226.164062 133.769531 226.496094 132.453125 226.761719 C 131.132812 227.023438 129.800781 227.222656 128.464844 227.355469 C 127.125 227.492188 125.78125 227.558594 124.4375 227.558594 C 123.089844 227.558594 121.75 227.492188 120.410156 227.355469 C 119.070312 227.222656 117.742188 227.023438 116.421875 226.761719 C 115.101562 226.496094 113.796875 226.164062 112.507812 225.769531 C 111.222656 225.375 109.957031 224.917969 108.714844 224.398438 C 107.46875 223.878906 106.253906 223.300781 105.070312 222.660156 C 103.882812 222.019531 102.730469 221.320312 101.609375 220.566406 C 100.492188 219.8125 99.410156 219.003906 98.371094 218.140625 C 97.332031 217.28125 96.335938 216.367188 95.382812 215.40625 C 94.433594 214.445312 93.53125 213.441406 92.675781 212.390625 C 91.824219 211.339844 91.023438 210.25 90.273438 209.121094 C 89.527344 207.992188 88.835938 206.828125 88.203125 205.628906 C 87.566406 204.433594 86.992188 203.207031 86.476562 201.949219 C 85.964844 200.695312 85.511719 199.417969 85.121094 198.117188 C 84.730469 196.816406 84.402344 195.5 84.140625 194.167969 C 83.878906 192.835938 83.679688 191.492188 83.546875 190.140625 C 83.417969 188.789062 83.351562 187.433594 83.351562 186.074219 C 83.351562 184.71875 83.417969 183.363281 83.546875 182.011719 C 83.679688 180.65625 83.878906 179.316406 84.140625 177.984375 C 84.402344 176.652344 84.730469 175.335938 85.121094 174.035156 C 85.511719 172.734375 85.964844 171.457031 86.476562 170.203125 C 86.992188 168.945312 87.566406 167.71875 88.203125 166.523438 C 88.835938 165.324219 89.527344 164.160156 90.273438 163.03125 C 91.023438 161.902344 91.824219 160.8125 92.675781 159.761719 C 93.53125 158.710938 94.433594 157.703125 95.382812 156.746094 C 96.335938 155.785156 97.332031 154.871094 98.371094 154.011719 C 99.410156 153.148438 100.492188 152.339844 101.609375 151.585938 C 102.730469 150.832031 103.882812 150.132812 105.070312 149.492188 C 106.253906 148.851562 107.46875 148.273438 108.714844 147.753906 C 109.957031 147.234375 111.222656 146.773438 112.507812 146.382812 C 113.796875 145.988281 115.101562 145.65625 116.421875 145.390625 C 117.742188 145.125 119.070312 144.929688 120.410156 144.792969 C 121.75 144.660156 123.089844 144.59375 124.4375 144.59375 C 125.78125 144.59375 127.125 144.660156 128.464844 144.792969 C 129.800781 144.929688 131.132812 145.125 132.453125 145.390625 C 133.769531 145.65625 135.074219 145.988281 136.363281 146.382812 C 137.648438 146.773438 138.914062 147.234375 140.160156 147.753906 C 141.402344 148.273438 142.617188 148.851562 143.804688 149.492188 C 144.988281 150.132812 146.144531 150.832031 147.261719 151.585938 C 148.378906 152.339844 149.460938 153.148438 150.5 154.011719 C 151.539062 154.871094 152.535156 155.785156 153.488281 156.746094 C 154.4375 157.703125 155.339844 158.710938 156.195312 159.761719 C 157.050781 160.8125 157.847656 161.902344 158.597656 163.03125 C 159.34375 164.160156 160.035156 165.324219 160.671875 166.523438 C 161.304688 167.71875 161.878906 168.945312 162.394531 170.203125 C 162.910156 171.457031 163.363281 172.734375 163.753906 174.035156 C 164.144531 175.335938 164.46875 176.652344 164.730469 177.984375 C 164.996094 179.316406 165.191406 180.65625 165.324219 182.011719 C 165.457031 183.363281 165.519531 184.71875 165.519531 186.074219 Z M 165.519531 186.074219 " fill-opacity="1" fill-rule="nonzero"/><path fill="#ffffff" d="M 294.855469 186.074219 C 294.855469 187.433594 294.789062 188.789062 294.660156 190.140625 C 294.527344 191.492188 294.328125 192.835938 294.066406 194.167969 C 293.804688 195.5 293.476562 196.816406 293.085938 198.117188 C 292.695312 199.417969 292.246094 200.695312 291.730469 201.949219 C 291.214844 203.207031 290.640625 204.433594 290.003906 205.628906 C 289.371094 206.828125 288.679688 207.992188 287.933594 209.121094 C 287.183594 210.25 286.382812 211.339844 285.53125 212.390625 C 284.675781 213.441406 283.773438 214.445312 282.824219 215.40625 C 281.871094 216.367188 280.875 217.28125 279.835938 218.140625 C 278.796875 219.003906 277.714844 219.8125 276.597656 220.566406 C 275.476562 221.320312 274.324219 222.019531 273.140625 222.660156 C 271.953125 223.300781 270.738281 223.878906 269.492188 224.398438 C 268.25 224.917969 266.984375 225.375 265.699219 225.769531 C 264.410156 226.164062 263.105469 226.496094 261.785156 226.761719 C 260.46875 227.023438 259.136719 227.222656 257.796875 227.355469 C 256.460938 227.492188 255.117188 227.558594 253.773438 227.558594 C 252.425781 227.558594 251.082031 227.492188 249.746094 227.355469 C 248.40625 227.222656 247.074219 227.023438 245.757812 226.761719 C 244.4375 226.496094 243.132812 226.164062 241.84375 225.769531 C 240.558594 225.375 239.292969 224.917969 238.050781 224.398438 C 236.804688 223.878906 235.589844 223.300781 234.402344 222.660156 C 233.21875 222.019531 232.066406 221.320312 230.945312 220.566406 C 229.828125 219.8125 228.746094 219.003906 227.707031 218.140625 C 226.667969 217.28125 225.671875 216.367188 224.71875 215.40625 C 223.769531 214.445312 222.867188 213.441406 222.011719 212.390625 C 221.160156 211.339844 220.359375 210.25 219.609375 209.121094 C 218.863281 207.992188 218.171875 206.828125 217.539062 205.628906 C 216.902344 204.433594 216.328125 203.207031 215.8125 201.949219 C 215.296875 200.695312 214.847656 199.417969 214.457031 198.117188 C 214.066406 196.816406 213.738281 195.5 213.476562 194.167969 C 213.214844 192.835938 213.015625 191.492188 212.882812 190.140625 C 212.753906 188.789062 212.6875 187.433594 212.6875 186.074219 C 212.6875 184.71875 212.753906 183.363281 212.882812 182.011719 C 213.015625 180.65625 213.214844 179.316406 213.476562 177.984375 C 213.738281 176.652344 214.066406 175.335938 214.457031 174.035156 C 214.847656 172.734375 215.296875 171.457031 215.8125 170.203125 C 216.328125 168.945312 216.902344 167.71875 217.539062 166.523438 C 218.171875 165.324219 218.863281 164.160156 219.609375 163.03125 C 220.359375 161.902344 221.160156 160.8125 222.011719 159.761719 C 222.867188 158.710938 223.769531 157.703125 224.71875 156.746094 C 225.671875 155.785156 226.667969 154.871094 227.707031 154.011719 C 228.746094 153.148438 229.828125 152.339844 230.945312 151.585938 C 232.066406 150.832031 233.21875 150.132812 234.402344 149.492188 C 235.589844 148.851562 236.804688 148.273438 238.050781 147.753906 C 239.292969 147.234375 240.558594 146.773438 241.84375 146.382812 C 243.132812 145.988281 244.4375 145.65625 245.757812 145.390625 C 247.074219 145.125 248.40625 144.929688 249.746094 144.792969 C 251.082031 144.660156 252.425781 144.59375 253.773438 144.59375 C 255.117188 144.59375 256.460938 144.660156 257.796875 144.792969 C 259.136719 144.929688 260.46875 145.125 261.785156 145.390625 C 263.105469 145.65625 264.410156 145.988281 265.699219 146.382812 C 266.984375 146.773438 268.25 147.234375 269.492188 147.753906 C 270.738281 148.273438 271.953125 148.851562 273.140625 149.492188 C 274.324219 150.132812 275.476562 150.832031 276.597656 151.585938 C 277.714844 152.339844 278.796875 153.148438 279.835938 154.011719 C 280.875 154.871094 281.871094 155.785156 282.824219 156.746094 C 283.773438 157.703125 284.675781 158.710938 285.53125 159.761719 C 286.382812 160.8125 287.183594 161.902344 287.933594 163.03125 C 288.679688 164.160156 289.371094 165.324219 290.003906 166.523438 C 290.640625 167.71875 291.214844 168.945312 291.730469 170.203125 C 292.246094 171.457031 292.695312 172.734375 293.085938 174.035156 C 293.476562 175.335938 293.804688 176.652344 294.066406 177.984375 C 294.328125 179.316406 294.527344 180.65625 294.660156 182.011719 C 294.789062 183.363281 294.855469 184.71875 294.855469 186.074219 Z M 294.855469 186.074219 " fill-opacity="1" fill-rule="nonzero"/><path fill="#ffffff" d="M 230.1875 262.546875 C 230.1875 263.902344 230.125 265.257812 229.992188 266.613281 C 229.859375 267.964844 229.660156 269.304688 229.398438 270.636719 C 229.136719 271.972656 228.808594 273.285156 228.417969 274.585938 C 228.027344 275.886719 227.578125 277.164062 227.0625 278.417969 C 226.546875 279.675781 225.972656 280.902344 225.335938 282.101562 C 224.703125 283.296875 224.011719 284.460938 223.265625 285.589844 C 222.515625 286.722656 221.714844 287.8125 220.863281 288.859375 C 220.007812 289.910156 219.105469 290.917969 218.15625 291.878906 C 217.203125 292.839844 216.207031 293.75 215.167969 294.609375 C 214.128906 295.472656 213.046875 296.28125 211.929688 297.035156 C 210.8125 297.789062 209.65625 298.488281 208.472656 299.128906 C 207.285156 299.769531 206.070312 300.347656 204.828125 300.871094 C 203.582031 301.390625 202.316406 301.847656 201.03125 302.242188 C 199.742188 302.636719 198.4375 302.964844 197.117188 303.230469 C 195.800781 303.496094 194.46875 303.695312 193.132812 303.828125 C 191.792969 303.960938 190.449219 304.027344 189.105469 304.027344 C 187.757812 304.027344 186.414062 303.960938 185.078125 303.828125 C 183.738281 303.695312 182.40625 303.496094 181.089844 303.230469 C 179.769531 302.964844 178.464844 302.636719 177.175781 302.242188 C 175.890625 301.847656 174.625 301.390625 173.382812 300.871094 C 172.136719 300.347656 170.921875 299.769531 169.738281 299.128906 C 168.550781 298.488281 167.398438 297.789062 166.277344 297.035156 C 165.160156 296.28125 164.078125 295.472656 163.039062 294.609375 C 162 293.75 161.003906 292.839844 160.050781 291.878906 C 159.101562 290.917969 158.199219 289.910156 157.34375 288.859375 C 156.492188 287.8125 155.691406 286.722656 154.941406 285.589844 C 154.195312 284.460938 153.503906 283.296875 152.871094 282.101562 C 152.234375 280.902344 151.660156 279.675781 151.144531 278.417969 C 150.632812 277.164062 150.179688 275.886719 149.789062 274.585938 C 149.398438 273.285156 149.070312 271.972656 148.808594 270.636719 C 148.546875 269.304688 148.347656 267.964844 148.214844 266.613281 C 148.085938 265.257812 148.019531 263.902344 148.019531 262.546875 C 148.019531 261.1875 148.085938 259.832031 148.214844 258.480469 C 148.347656 257.128906 148.546875 255.785156 148.808594 254.453125 C 149.070312 253.121094 149.398438 251.804688 149.789062 250.503906 C 150.179688 249.203125 150.632812 247.925781 151.144531 246.671875 C 151.660156 245.417969 152.234375 244.191406 152.871094 242.992188 C 153.503906 241.792969 154.195312 240.628906 154.941406 239.5 C 155.691406 238.371094 156.492188 237.28125 157.34375 236.230469 C 158.199219 235.179688 159.101562 234.175781 160.050781 233.214844 C 161.003906 232.253906 162 231.34375 163.039062 230.480469 C 164.078125 229.617188 165.160156 228.808594 166.277344 228.054688 C 167.398438 227.300781 168.550781 226.601562 169.738281 225.960938 C 170.921875 225.324219 172.136719 224.742188 173.382812 224.222656 C 174.625 223.703125 175.890625 223.246094 177.175781 222.851562 C 178.464844 222.457031 179.769531 222.125 181.089844 221.863281 C 182.40625 221.597656 183.738281 221.398438 185.078125 221.265625 C 186.414062 221.132812 187.757812 221.066406 189.105469 221.066406 C 190.449219 221.066406 191.792969 221.132812 193.132812 221.265625 C 194.46875 221.398438 195.800781 221.597656 197.117188 221.863281 C 198.4375 222.125 199.742188 222.457031 201.03125 222.851562 C 202.316406 223.246094 203.582031 223.703125 204.828125 224.222656 C 206.070312 224.742188 207.285156 225.324219 208.472656 225.960938 C 209.65625 226.601562 210.8125 227.300781 211.929688 228.054688 C 213.046875 228.808594 214.128906 229.617188 215.167969 230.480469 C 216.207031 231.34375 217.203125 232.253906 218.15625 233.214844 C 219.105469 234.175781 220.007812 235.179688 220.863281 236.230469 C 221.714844 237.28125 222.515625 238.371094 223.265625 239.5 C 224.011719 240.628906 224.703125 241.792969 225.335938 242.992188 C 225.972656 244.191406 226.546875 245.417969 227.0625 246.671875 C 227.578125 247.925781 228.03125 249.203125 228.417969 250.503906 C 228.808594 251.804688 229.136719 253.121094 229.398438 254.453125 C 229.660156 255.785156 229.859375 257.128906 229.992188 258.480469 C 230.125 259.832031 230.1875 261.1875 230.1875 262.546875 Z M 230.1875 262.546875 " fill-opacity="1" fill-rule="nonzero"/><path fill="#ffffff" d="M 230.1875 109.769531 C 230.1875 111.128906 230.125 112.484375 229.992188 113.835938 C 229.859375 115.1875 229.660156 116.53125 229.398438 117.863281 C 229.136719 119.195312 228.808594 120.511719 228.417969 121.8125 C 228.027344 123.113281 227.578125 124.390625 227.0625 125.644531 C 226.546875 126.898438 225.972656 128.125 225.335938 129.324219 C 224.703125 130.523438 224.011719 131.6875 223.265625 132.816406 C 222.515625 133.945312 221.714844 135.035156 220.863281 136.085938 C 220.007812 137.136719 219.105469 138.140625 218.15625 139.101562 C 217.203125 140.0625 216.207031 140.972656 215.167969 141.835938 C 214.128906 142.699219 213.046875 143.503906 211.929688 144.261719 C 210.8125 145.015625 209.65625 145.714844 208.472656 146.351562 C 207.285156 146.992188 206.070312 147.574219 204.828125 148.09375 C 203.582031 148.613281 202.316406 149.070312 201.03125 149.464844 C 199.742188 149.859375 198.4375 150.1875 197.117188 150.453125 C 195.800781 150.71875 194.46875 150.917969 193.132812 151.050781 C 191.792969 151.183594 190.449219 151.25 189.105469 151.25 C 187.757812 151.25 186.414062 151.183594 185.078125 151.050781 C 183.738281 150.917969 182.40625 150.71875 181.089844 150.453125 C 179.769531 150.1875 178.464844 149.859375 177.175781 149.464844 C 175.890625 149.070312 174.625 148.613281 173.382812 148.09375 C 172.136719 147.574219 170.921875 146.992188 169.738281 146.351562 C 168.550781 145.714844 167.398438 145.015625 166.277344 144.261719 C 165.160156 143.503906 164.078125 142.699219 163.039062 141.835938 C 162 140.972656 161.003906 140.0625 160.050781 139.101562 C 159.101562 138.140625 158.199219 137.136719 157.34375 136.085938 C 156.492188 135.035156 155.691406 133.945312 154.941406 132.816406 C 154.195312 131.6875 153.503906 130.523438 152.871094 129.324219 C 152.234375 128.125 151.660156 126.898438 151.144531 125.644531 C 150.632812 124.390625 150.179688 123.113281 149.789062 121.8125 C 149.398438 120.511719 149.070312 119.195312 148.808594 117.863281 C 148.546875 116.53125 148.347656 115.1875 148.214844 113.835938 C 148.085938 112.484375 148.019531 111.128906 148.019531 109.769531 C 148.019531 108.410156 148.085938 107.054688 148.214844 105.703125 C 148.347656 104.351562 148.546875 103.011719 148.808594 101.679688 C 149.070312 100.34375 149.398438 99.027344 149.789062 97.730469 C 150.179688 96.429688 150.632812 95.152344 151.144531 93.894531 C 151.660156 92.640625 152.234375 91.414062 152.871094 90.214844 C 153.503906 89.019531 154.195312 87.855469 154.941406 86.726562 C 155.691406 85.59375 156.492188 84.503906 157.34375 83.453125 C 158.199219 82.40625 159.101562 81.398438 160.050781 80.4375 C 161.003906 79.476562 162 78.566406 163.039062 77.703125 C 164.078125 76.84375 165.160156 76.035156 166.277344 75.28125 C 167.398438 74.523438 168.550781 73.828125 169.738281 73.1875 C 170.921875 72.546875 172.136719 71.964844 173.382812 71.445312 C 174.625 70.925781 175.890625 70.46875 177.175781 70.074219 C 178.464844 69.679688 179.769531 69.351562 181.089844 69.085938 C 182.40625 68.820312 183.738281 68.621094 185.078125 68.488281 C 186.414062 68.355469 187.757812 68.289062 189.105469 68.289062 C 190.449219 68.289062 191.792969 68.355469 193.132812 68.488281 C 194.46875 68.621094 195.800781 68.820312 197.117188 69.085938 C 198.4375 69.351562 199.742188 69.679688 201.03125 70.074219 C 202.316406 70.46875 203.582031 70.925781 204.828125 71.445312 C 206.070312 71.964844 207.285156 72.546875 208.472656 73.1875 C 209.65625 73.828125 210.8125 74.523438 211.929688 75.28125 C 213.046875 76.035156 214.128906 76.84375 215.167969 77.703125 C 216.207031 78.566406 217.203125 79.476562 218.15625 80.4375 C 219.105469 81.398438 220.007812 82.40625 220.863281 83.453125 C 221.714844 84.503906 222.515625 85.59375 223.265625 86.726562 C 224.011719 87.855469 224.703125 89.019531 225.335938 90.214844 C 225.972656 91.414062 226.546875 92.640625 227.0625 93.894531 C 227.578125 95.152344 228.03125 96.429688 228.417969 97.730469 C 228.808594 99.027344 229.136719 100.34375 229.398438 101.679688 C 229.660156 103.011719 229.859375 104.351562 229.992188 105.703125 C 230.125 107.054688 230.1875 108.410156 230.1875 109.769531 Z M 230.1875 109.769531 " fill-opacity="1" fill-rule="nonzero"/><path fill="#006cf4" d="M 142.511719 186.074219 C 142.511719 186.671875 142.484375 187.265625 142.425781 187.863281 C 142.367188 188.457031 142.28125 189.046875 142.164062 189.632812 C 142.050781 190.21875 141.90625 190.796875 141.734375 191.371094 C 141.5625 191.941406 141.363281 192.503906 141.136719 193.058594 C 140.910156 193.609375 140.65625 194.148438 140.378906 194.675781 C 140.097656 195.203125 139.796875 195.714844 139.464844 196.210938 C 139.136719 196.710938 138.785156 197.1875 138.410156 197.652344 C 138.035156 198.113281 137.636719 198.554688 137.21875 198.976562 C 136.800781 199.402344 136.363281 199.800781 135.902344 200.179688 C 135.445312 200.558594 134.972656 200.914062 134.480469 201.246094 C 133.988281 201.578125 133.480469 201.886719 132.957031 202.167969 C 132.433594 202.449219 131.902344 202.707031 131.355469 202.933594 C 130.808594 203.164062 130.25 203.363281 129.683594 203.539062 C 129.117188 203.710938 128.542969 203.855469 127.960938 203.972656 C 127.382812 204.089844 126.796875 204.175781 126.207031 204.234375 C 125.617188 204.292969 125.027344 204.324219 124.4375 204.324219 C 123.84375 204.324219 123.253906 204.292969 122.664062 204.234375 C 122.074219 204.175781 121.488281 204.089844 120.910156 203.972656 C 120.328125 203.855469 119.753906 203.710938 119.1875 203.539062 C 118.621094 203.363281 118.066406 203.164062 117.519531 202.933594 C 116.972656 202.707031 116.4375 202.449219 115.914062 202.167969 C 115.394531 201.886719 114.886719 201.578125 114.394531 201.246094 C 113.902344 200.914062 113.425781 200.558594 112.96875 200.179688 C 112.511719 199.800781 112.074219 199.402344 111.652344 198.976562 C 111.234375 198.554688 110.839844 198.113281 110.460938 197.652344 C 110.085938 197.1875 109.734375 196.710938 109.40625 196.210938 C 109.078125 195.714844 108.773438 195.203125 108.492188 194.675781 C 108.214844 194.148438 107.960938 193.609375 107.734375 193.058594 C 107.507812 192.503906 107.308594 191.941406 107.136719 191.371094 C 106.964844 190.796875 106.820312 190.21875 106.707031 189.632812 C 106.589844 189.046875 106.503906 188.457031 106.445312 187.863281 C 106.386719 187.265625 106.359375 186.671875 106.359375 186.074219 C 106.359375 185.476562 106.386719 184.878906 106.445312 184.285156 C 106.503906 183.6875 106.589844 183.097656 106.707031 182.511719 C 106.820312 181.925781 106.964844 181.347656 107.136719 180.773438 C 107.308594 180.203125 107.507812 179.640625 107.734375 179.089844 C 107.960938 178.535156 108.214844 177.996094 108.492188 177.46875 C 108.773438 176.941406 109.078125 176.429688 109.40625 175.933594 C 109.734375 175.4375 110.085938 174.957031 110.460938 174.496094 C 110.839844 174.03125 111.234375 173.589844 111.652344 173.167969 C 112.074219 172.746094 112.511719 172.34375 112.96875 171.964844 C 113.425781 171.585938 113.902344 171.230469 114.394531 170.898438 C 114.886719 170.566406 115.394531 170.257812 115.914062 169.976562 C 116.4375 169.695312 116.972656 169.441406 117.519531 169.210938 C 118.066406 168.984375 118.621094 168.78125 119.1875 168.609375 C 119.753906 168.433594 120.328125 168.289062 120.910156 168.171875 C 121.488281 168.054688 122.074219 167.96875 122.664062 167.910156 C 123.253906 167.851562 123.84375 167.820312 124.4375 167.820312 C 125.027344 167.820312 125.617188 167.851562 126.207031 167.910156 C 126.796875 167.96875 127.382812 168.054688 127.960938 168.171875 C 128.542969 168.289062 129.117188 168.433594 129.683594 168.609375 C 130.25 168.78125 130.808594 168.984375 131.355469 169.210938 C 131.902344 169.441406 132.433594 169.695312 132.957031 169.976562 C 133.480469 170.257812 133.988281 170.566406 134.480469 170.898438 C 134.972656 171.230469 135.445312 171.585938 135.902344 171.964844 C 136.363281 172.34375 136.800781 172.746094 137.21875 173.167969 C 137.636719 173.589844 138.035156 174.03125 138.410156 174.496094 C 138.785156 174.957031 139.136719 175.4375 139.464844 175.933594 C 139.796875 176.429688 140.097656 176.941406 140.378906 177.46875 C 140.65625 177.996094 140.910156 178.535156 141.136719 179.089844 C 141.363281 179.640625 141.5625 180.203125 141.734375 180.773438 C 141.90625 181.347656 142.050781 181.925781 142.164062 182.511719 C 142.28125 183.097656 142.367188 183.6875 142.425781 184.285156 C 142.484375 184.878906 142.511719 185.476562 142.511719 186.074219 Z M 142.511719 186.074219 " fill-opacity="1" fill-rule="nonzero"/><path fill="#006cf4" d="M 271.34375 186.074219 C 271.34375 186.671875 271.316406 187.265625 271.257812 187.863281 C 271.199219 188.457031 271.113281 189.046875 270.996094 189.632812 C 270.882812 190.21875 270.738281 190.796875 270.566406 191.371094 C 270.394531 191.941406 270.195312 192.503906 269.96875 193.058594 C 269.742188 193.609375 269.488281 194.148438 269.210938 194.675781 C 268.929688 195.203125 268.628906 195.714844 268.296875 196.210938 C 267.96875 196.710938 267.617188 197.1875 267.242188 197.652344 C 266.867188 198.113281 266.46875 198.554688 266.050781 198.976562 C 265.632812 199.402344 265.191406 199.800781 264.734375 200.179688 C 264.277344 200.558594 263.804688 200.914062 263.3125 201.246094 C 262.820312 201.578125 262.3125 201.886719 261.789062 202.167969 C 261.265625 202.449219 260.734375 202.707031 260.183594 202.933594 C 259.636719 203.164062 259.082031 203.363281 258.515625 203.539062 C 257.949219 203.710938 257.375 203.855469 256.792969 203.972656 C 256.214844 204.089844 255.628906 204.175781 255.039062 204.234375 C 254.449219 204.292969 253.859375 204.324219 253.269531 204.324219 C 252.675781 204.324219 252.085938 204.292969 251.496094 204.234375 C 250.90625 204.175781 250.320312 204.089844 249.742188 203.972656 C 249.160156 203.855469 248.585938 203.710938 248.019531 203.539062 C 247.453125 203.363281 246.898438 203.164062 246.351562 202.933594 C 245.804688 202.707031 245.269531 202.449219 244.746094 202.167969 C 244.222656 201.886719 243.71875 201.578125 243.226562 201.246094 C 242.734375 200.914062 242.257812 200.558594 241.800781 200.179688 C 241.34375 199.800781 240.90625 199.402344 240.484375 198.976562 C 240.066406 198.554688 239.671875 198.113281 239.292969 197.652344 C 238.917969 197.1875 238.566406 196.710938 238.238281 196.210938 C 237.910156 195.714844 237.605469 195.203125 237.324219 194.675781 C 237.046875 194.148438 236.792969 193.609375 236.566406 193.058594 C 236.339844 192.503906 236.140625 191.941406 235.96875 191.371094 C 235.796875 190.796875 235.652344 190.21875 235.539062 189.632812 C 235.421875 189.046875 235.335938 188.457031 235.277344 187.863281 C 235.21875 187.265625 235.191406 186.671875 235.191406 186.074219 C 235.191406 185.476562 235.21875 184.878906 235.277344 184.285156 C 235.335938 183.6875 235.421875 183.097656 235.539062 182.511719 C 235.652344 181.925781 235.796875 181.347656 235.96875 180.773438 C 236.140625 180.203125 236.339844 179.640625 236.566406 179.089844 C 236.792969 178.535156 237.046875 177.996094 237.324219 177.46875 C 237.605469 176.941406 237.910156 176.429688 238.238281 175.933594 C 238.566406 175.4375 238.917969 174.957031 239.292969 174.496094 C 239.671875 174.03125 240.066406 173.589844 240.484375 173.167969 C 240.90625 172.746094 241.34375 172.34375 241.800781 171.964844 C 242.257812 171.585938 242.734375 171.230469 243.226562 170.898438 C 243.71875 170.566406 244.222656 170.257812 244.746094 169.976562 C 245.269531 169.695312 245.804688 169.441406 246.351562 169.210938 C 246.898438 168.984375 247.453125 168.78125 248.019531 168.609375 C 248.585938 168.433594 249.160156 168.289062 249.742188 168.171875 C 250.320312 168.054688 250.90625 167.96875 251.496094 167.910156 C 252.085938 167.851562 252.675781 167.820312 253.269531 167.820312 C 253.859375 167.820312 254.449219 167.851562 255.039062 167.910156 C 255.628906 167.96875 256.214844 168.054688 256.792969 168.171875 C 257.375 168.289062 257.949219 168.433594 258.515625 168.609375 C 259.082031 168.78125 259.636719 168.984375 260.183594 169.210938 C 260.734375 169.441406 261.265625 169.695312 261.789062 169.976562 C 262.3125 170.257812 262.820312 170.566406 263.3125 170.898438 C 263.804688 171.230469 264.277344 171.585938 264.734375 171.964844 C 265.191406 172.34375 265.632812 172.746094 266.050781 173.167969 C 266.46875 173.589844 266.867188 174.03125 267.242188 174.496094 C 267.617188 174.957031 267.96875 175.4375 268.296875 175.933594 C 268.628906 176.429688 268.929688 176.941406 269.210938 177.46875 C 269.488281 177.996094 269.742188 178.535156 269.96875 179.089844 C 270.195312 179.640625 270.394531 180.203125 270.566406 180.773438 C 270.738281 181.347656 270.882812 181.925781 270.996094 182.511719 C 271.113281 183.097656 271.199219 183.6875 271.257812 184.285156 C 271.316406 184.878906 271.34375 185.476562 271.34375 186.074219 Z M 271.34375 186.074219 " fill-opacity="1" fill-rule="nonzero"/><path fill="#006cf4" d="M 210.085938 83.8125 L 215.507812 89.285156 L 168.121094 137.125 L 162.699219 131.652344 Z M 210.085938 83.8125 " fill-opacity="1" fill-rule="nonzero"/><path fill="#006cf4" d="M 162.699219 89.285156 L 168.121094 83.8125 L 215.507812 131.652344 L 210.085938 137.125 Z M 162.699219 89.285156 " fill-opacity="1" fill-rule="nonzero"/><path fill="#006cf4" d="M 210.085938 235.886719 L 215.503906 241.359375 L 168.121094 289.203125 L 162.699219 283.726562 Z M 210.085938 235.886719 " fill-opacity="1" fill-rule="nonzero"/><path fill="#006cf4" d="M 162.699219 241.359375 L 168.121094 235.886719 L 215.507812 283.726562 L 210.085938 289.199219 Z M 162.699219 241.359375 " fill-opacity="1" fill-rule="nonzero"/></svg>