<svg xmlns="http://www.w3.org/2000/svg" xmlns:xlink="http://www.w3.org/1999/xlink" width="500" zoomAndPan="magnify" viewBox="0 0 375 374.999991" height="500" preserveAspectRatio="xMidYMid meet" version="1.0"><path fill="#000000" d="M 132.964844 25.652344 C 106.988281 38.503906 87.167969 61.941406 73.820312 87.164062 C 58.636719 115.851562 61.652344 145.3125 71.113281 175.46875 C 81.789062 209.390625 92.441406 244.027344 112.898438 273.546875 C 123.597656 289.042969 135.578125 303.726562 147.382812 318.386719 C 158.953125 332.730469 168.839844 348.273438 180.492188 362.53125 C 183.785156 366.605469 187.539062 370.191406 191.496094 373.605469 C 193.367188 375.203125 196.378906 375.144531 197.6875 372.816406 C 210.855469 348.957031 230.371094 329.53125 245.507812 307.011719 C 261.054688 283.878906 274.554688 259.417969 286.019531 234.039062 C 310.464844 178.925781 337.40625 111.816406 292.972656 59.351562 C 255.59375 15.242188 184.503906 0.144531 132.964844 25.652344 " fill-opacity="1" fill-rule="nonzero"/><path fill="#d9534f
" d="M 120.007812 261.546875 C 120.558594 261.359375 120.429688 259.371094 119.535156 256.324219 C 118.59375 253.3125 116.699219 249.359375 114.15625 245.367188 C 111.636719 241.402344 109.179688 238.027344 107.328125 235.636719 C 105.527344 233.203125 104.164062 231.757812 103.609375 232.050781 C 103.09375 232.332031 103.457031 234.273438 104.609375 237.132812 C 105.835938 240.074219 107.941406 243.816406 110.4375 247.722656 C 112.875 251.582031 115.074219 255.0625 116.699219 257.617188 C 118.242188 260.183594 119.394531 261.757812 120.007812 261.546875 Z M 125.433594 72.351562 C 127.5625 69.789062 128.925781 68.046875 128.527344 67.527344 C 128.1875 67.058594 126.113281 67.953125 123.230469 70.128906 C 120.394531 72.410156 117.0625 76.152344 114.050781 80.566406 C 111.085938 84.988281 108.601562 88.976562 106.8125 91.800781 C 104.917969 94.660156 103.800781 96.601562 104.269531 97.027344 C 104.71875 97.414062 106.601562 96.296875 109.179688 93.847656 C 111.765625 91.308594 114.757812 87.425781 117.699219 83.070312 C 120.664062 78.753906 123.359375 75 125.433594 72.351562 Z M 217.355469 243.261719 C 220.378906 241.332031 221.957031 239.757812 221.636719 239.261719 C 221.296875 238.710938 219.191406 239.308594 216.070312 240.414062 C 212.882812 241.355469 208.550781 242.59375 203.558594 243.191406 C 193.625 244.214844 185.046875 243.792969 184.917969 245.15625 C 184.871094 245.757812 186.917969 246.523438 190.34375 247.179688 C 193.800781 247.78125 198.6875 248.203125 204.113281 247.59375 C 209.574219 246.910156 214.269531 245.027344 217.355469 243.261719 Z M 228.957031 313.398438 C 231.867188 309.28125 233.253906 306.457031 232.785156 306.117188 C 232.253906 305.75 230.007812 307.867188 226.570312 311.386719 C 223.050781 314.871094 218.203125 319.648438 212.929688 325.117188 C 207.65625 330.660156 203.21875 336.046875 200.523438 340.484375 C 197.921875 344.8125 196.933594 347.753906 197.367188 348.0625 C 197.921875 348.425781 199.921875 345.988281 203.125 342.214844 C 206.265625 338.578125 210.902344 333.648438 216.128906 328.164062 C 221.378906 322.707031 225.957031 317.492188 228.957031 313.398438 Z M 276.050781 86.542969 C 276.554688 86.199219 276.027344 84.4375 274.789062 81.917969 C 273.566406 79.375 271.601562 76 268.894531 72.503906 C 266.140625 69.046875 263.019531 66.375 260.371094 64.859375 C 257.828125 63.492188 256.078125 63.128906 255.722656 63.597656 C 255.359375 64.117188 256.617188 65.480469 258.582031 67.421875 C 260.371094 69.339844 262.84375 72.035156 265.433594 75.257812 C 267.976562 78.507812 270.316406 81.578125 272.199219 83.683594 C 274.121094 85.777344 275.554688 86.882812 276.050781 86.542969 Z M 287.195312 142.171875 C 287.230469 129.085938 283.5 115.402344 278.050781 103.601562 C 276.980469 101.320312 275.957031 99.226562 274.90625 97.261719 C 270.730469 89.34375 266.457031 83.648438 259.089844 76.199219 C 253.453125 70.457031 247.074219 65.457031 240.152344 61.316406 C 226.464844 53.164062 210.832031 48.65625 194.910156 48.019531 C 143.34375 45.996094 97.890625 91.390625 96.585938 142.148438 C 95.960938 166.738281 109.800781 189.128906 124.703125 207.566406 C 140.296875 226.863281 164.90625 236.296875 189.140625 237.792969 C 242.246094 241.0625 287.125 193.292969 287.195312 142.171875 Z M 279.570312 56.832031 C 331.945312 104.308594 303.226562 175.960938 279.203125 230.050781 C 267.738281 255.511719 254.109375 279.738281 238.703125 303.046875 C 224.628906 324.363281 206.417969 342.636719 193.308594 364.605469 C 184 355.613281 176.785156 344.835938 169.367188 334.222656 C 160.363281 321.316406 150.089844 309.363281 140.332031 297.019531 C 118.085938 268.851562 101.539062 240.957031 89.6875 206.988281 C 79.589844 177.984375 66.820312 146.207031 71.585938 114.980469 C 75.917969 86.847656 99.492188 58.5625 121.5 41.984375 C 168.664062 6.488281 237.738281 18.925781 279.570312 56.832031 " fill-opacity="1" fill-rule="nonzero"/><path fill="#ffde59" d="M 198.664062 135.253906 C 205.324219 135.277344 211.964844 135.488281 218.589844 135.617188 C 201.464844 155.535156 189.871094 179.328125 175.710938 201.398438 C 177.761719 185.773438 183.210938 170.410156 189.824219 156.359375 C 190.210938 155.511719 190.320312 154.679688 190.1875 153.949219 C 190.210938 151.949219 188.953125 149.773438 186.433594 149.511719 C 180.007812 148.808594 173.476562 147.890625 167.027344 148.101562 C 181.691406 129.535156 191.261719 107.589844 204.40625 87.976562 C 201.417969 101.636719 198.863281 115.402344 195.542969 129.003906 C 194.050781 131.289062 195.0625 135.253906 198.664062 135.253906 " fill-opacity="1" fill-rule="nonzero"/><path fill="#ffffff" d="M 229.6875 135.039062 C 232.359375 132.265625 229.792969 128.382812 226.851562 128.300781 C 226.324219 128.039062 225.757812 127.851562 225.015625 127.851562 C 218.011719 127.828125 210.988281 127.59375 203.984375 127.488281 C 208.363281 108.769531 211.480469 89.765625 216.578125 71.199219 C 217.882812 66.445312 210.808594 64.351562 209.148438 68.683594 C 209.125 68.742188 209.101562 68.742188 209.066406 68.789062 C 187.929688 93.636719 177.546875 125.675781 155.410156 149.726562 C 154.960938 150.195312 154.679688 150.691406 154.492188 151.21875 C 152.820312 153.867188 154.914062 158.371094 158.765625 157.21875 C 165.980469 155.101562 173.59375 155.855469 181.03125 156.75 C 173.003906 174.738281 166.980469 194.375 166.957031 214.140625 C 166.957031 217.046875 169.546875 218.285156 171.769531 217.859375 C 173.027344 217.894531 174.324219 217.414062 175.242188 216.132812 C 194.203125 189.597656 206.84375 158.738281 229.6875 135.039062 Z M 194.910156 55.890625 C 242.011719 55.726562 277.660156 97.15625 279.332031 142.171875 C 279.25 191.222656 238.023438 230.34375 189.140625 229.921875 C 143.945312 229.554688 105.835938 185.882812 104.457031 142.148438 C 102.90625 93.636719 148.855469 56.046875 194.910156 55.890625 " fill-opacity="1" fill-rule="nonzero"/><path fill="#000000" d="M 279.203125 230.050781 C 303.226562 175.960938 331.945312 104.308594 279.570312 56.832031 C 237.738281 18.925781 168.664062 6.488281 121.5 41.984375 C 99.492188 58.5625 75.917969 86.847656 71.585938 114.980469 C 66.820312 146.207031 79.589844 177.984375 89.6875 206.988281 C 101.539062 240.957031 118.085938 268.851562 140.332031 297.019531 C 150.089844 309.363281 160.363281 321.316406 169.367188 334.222656 C 176.785156 344.835938 184 355.613281 193.308594 364.605469 C 206.417969 342.636719 224.628906 324.363281 238.703125 303.046875 C 254.109375 279.738281 267.738281 255.511719 279.203125 230.050781 Z M 292.972656 59.351562 C 337.40625 111.816406 310.464844 178.925781 286.019531 234.039062 C 274.554688 259.417969 261.054688 283.878906 245.507812 307.011719 C 230.371094 329.53125 210.855469 348.957031 197.6875 372.816406 C 196.378906 375.144531 193.367188 375.203125 191.496094 373.605469 C 187.539062 370.191406 183.785156 366.605469 180.492188 362.53125 C 168.839844 348.273438 158.953125 332.730469 147.382812 318.386719 C 135.578125 303.726562 123.597656 289.042969 112.898438 273.546875 C 92.441406 244.027344 81.789062 209.390625 71.113281 175.46875 C 61.652344 145.3125 58.636719 115.851562 73.820312 87.164062 C 87.167969 61.941406 106.988281 38.503906 132.964844 25.652344 C 184.492188 0.144531 255.59375 15.242188 292.972656 59.351562 " fill-opacity="1" fill-rule="nonzero"/><path fill="#000000" d="M 279.332031 142.171875 C 277.660156 97.15625 242.011719 55.726562 194.910156 55.890625 C 148.855469 56.046875 102.90625 93.636719 104.457031 142.148438 C 105.835938 185.882812 143.945312 229.554688 189.140625 229.921875 C 238.023438 230.34375 279.25 191.222656 279.332031 142.171875 Z M 278.050781 103.601562 C 283.5 115.402344 287.230469 129.085938 287.195312 142.171875 C 287.125 193.292969 242.246094 241.0625 189.140625 237.792969 C 164.90625 236.296875 140.296875 226.863281 124.703125 207.566406 C 109.800781 189.128906 95.960938 166.738281 96.585938 142.148438 C 97.890625 91.390625 143.34375 45.996094 194.910156 48.019531 C 210.832031 48.65625 226.464844 53.164062 240.152344 61.316406 C 247.074219 65.457031 253.453125 70.457031 259.089844 76.199219 C 266.457031 83.648438 270.730469 89.34375 274.90625 97.261719 C 275.957031 99.226562 276.980469 101.320312 278.050781 103.601562 " fill-opacity="1" fill-rule="nonzero"/><path fill="#000000" d="M 274.789062 81.917969 C 276.027344 84.4375 276.554688 86.199219 276.050781 86.542969 C 275.554688 86.882812 274.121094 85.777344 272.199219 83.683594 C 270.316406 81.578125 267.976562 78.507812 265.433594 75.257812 C 262.84375 72.035156 260.371094 69.339844 258.582031 67.421875 C 256.617188 65.480469 255.359375 64.117188 255.722656 63.597656 C 256.078125 63.128906 257.828125 63.492188 260.371094 64.859375 C 263.019531 66.375 266.140625 69.046875 268.894531 72.503906 C 271.601562 76 273.566406 79.375 274.789062 81.917969 " fill-opacity="1" fill-rule="nonzero"/><path fill="#000000" d="M 232.785156 306.117188 C 233.253906 306.457031 231.867188 309.28125 228.957031 313.398438 C 225.957031 317.492188 221.378906 322.707031 216.128906 328.164062 C 210.902344 333.648438 206.265625 338.578125 203.125 342.214844 C 199.921875 345.988281 197.921875 348.425781 197.367188 348.0625 C 196.933594 347.753906 197.921875 344.8125 200.523438 340.484375 C 203.21875 336.046875 207.65625 330.660156 212.929688 325.117188 C 218.203125 319.648438 223.050781 314.871094 226.570312 311.386719 C 230.007812 307.867188 232.253906 305.75 232.785156 306.117188 " fill-opacity="1" fill-rule="nonzero"/><path fill="#000000" d="M 218.589844 135.617188 C 211.964844 135.488281 205.324219 135.277344 198.664062 135.253906 C 195.0625 135.253906 194.050781 131.289062 195.542969 129.003906 C 198.863281 115.402344 201.417969 101.636719 204.40625 87.976562 C 191.261719 107.589844 181.691406 129.535156 167.027344 148.101562 C 173.476562 147.890625 180.007812 148.808594 186.433594 149.511719 C 188.953125 149.773438 190.210938 151.949219 190.1875 153.949219 C 190.320312 154.679688 190.210938 155.511719 189.824219 156.359375 C 183.210938 170.410156 177.761719 185.773438 175.710938 201.398438 C 189.871094 179.328125 201.464844 155.535156 218.589844 135.617188 Z M 226.851562 128.300781 C 229.792969 128.382812 232.359375 132.265625 229.6875 135.039062 C 206.84375 158.738281 194.203125 189.597656 175.242188 216.132812 C 174.324219 217.414062 173.027344 217.894531 171.769531 217.859375 C 169.546875 218.285156 166.957031 217.046875 166.957031 214.140625 C 166.980469 194.375 173.003906 174.738281 181.03125 156.75 C 173.59375 155.855469 165.980469 155.101562 158.765625 157.21875 C 154.914062 158.371094 152.820312 153.867188 154.492188 151.21875 C 154.679688 150.691406 154.960938 150.195312 155.410156 149.726562 C 177.546875 125.675781 187.929688 93.636719 209.066406 68.789062 C 209.101562 68.742188 209.125 68.742188 209.148438 68.683594 C 210.808594 64.351562 217.882812 66.445312 216.578125 71.199219 C 211.480469 89.765625 208.363281 108.769531 203.984375 127.488281 C 210.988281 127.59375 218.011719 127.828125 225.015625 127.851562 C 225.757812 127.851562 226.324219 128.039062 226.851562 128.300781 " fill-opacity="1" fill-rule="nonzero"/><path fill="#000000" d="M 221.636719 239.261719 C 221.957031 239.757812 220.378906 241.332031 217.355469 243.261719 C 214.269531 245.027344 209.574219 246.910156 204.113281 247.59375 C 198.6875 248.203125 193.800781 247.78125 190.34375 247.179688 C 186.917969 246.523438 184.871094 245.757812 184.917969 245.15625 C 185.046875 243.792969 193.625 244.214844 203.558594 243.191406 C 208.550781 242.59375 212.882812 241.355469 216.070312 240.414062 C 219.191406 239.308594 221.296875 238.710938 221.636719 239.261719 " fill-opacity="1" fill-rule="nonzero"/><path fill="#000000" d="M 128.527344 67.527344 C 128.925781 68.046875 127.5625 69.789062 125.433594 72.351562 C 123.359375 75 120.664062 78.753906 117.699219 83.070312 C 114.757812 87.425781 111.765625 91.308594 109.179688 93.847656 C 106.601562 96.296875 104.71875 97.414062 104.269531 97.027344 C 103.800781 96.601562 104.917969 94.660156 106.8125 91.800781 C 108.601562 88.976562 111.085938 84.988281 114.050781 80.566406 C 117.0625 76.152344 120.394531 72.410156 123.230469 70.128906 C 126.113281 67.953125 128.1875 67.058594 128.527344 67.527344 " fill-opacity="1" fill-rule="nonzero"/><path fill="#000000" d="M 119.535156 256.324219 C 120.429688 259.371094 120.558594 261.359375 120.007812 261.546875 C 119.394531 261.757812 118.242188 260.183594 116.699219 257.617188 C 115.074219 255.0625 112.875 251.582031 110.4375 247.722656 C 107.941406 243.816406 105.835938 240.074219 104.609375 237.132812 C 103.457031 234.273438 103.09375 232.332031 103.609375 232.050781 C 104.164062 231.757812 105.527344 233.203125 107.328125 235.636719 C 109.179688 238.027344 111.636719 241.402344 114.15625 245.367188 C 116.699219 249.359375 118.59375 253.3125 119.535156 256.324219 " fill-opacity="1" fill-rule="nonzero"/></svg>
