<?xml version="1.0" standalone="no"?>
<!DOCTYPE svg PUBLIC "-//W3C//DTD SVG 20010904//EN"
 "http://www.w3.org/TR/2001/REC-SVG-20010904/DTD/svg10.dtd">
<svg version="1.0" xmlns="http://www.w3.org/2000/svg"
 width="500.000000pt" height="500.000000pt" viewBox="0 0 500.000000 500.000000"
 preserveAspectRatio="xMidYMid meet">
<metadata>
Created by potrace 1.14, written by Peter Selinger 2001-2017
</metadata>
<g transform="translate(0.000000,500.000000) scale(0.100000,-0.100000)"
fill="#000000" stroke="none">
<path d="M2957 4647 c-18 -22 -34 -44 -36 -51 -2 -6 -7 -13 -12 -16 -7 -5 -79
-138 -146 -270 -15 -30 -34 -61 -40 -68 -7 -7 -13 -17 -13 -22 0 -5 -6 -15
-12 -22 -7 -7 -23 -33 -36 -58 -33 -67 -74 -140 -105 -187 -15 -24 -27 -45
-27 -48 0 -3 -18 -38 -40 -77 -23 -39 -39 -77 -36 -85 3 -7 -1 -13 -10 -13 -8
0 -19 -12 -24 -26 -10 -25 -43 -79 -121 -197 -22 -32 -39 -59 -39 -62 0 -2
-26 -47 -57 -100 -74 -122 -131 -225 -139 -247 -4 -10 -10 -18 -15 -18 -5 0
-9 -7 -9 -16 0 -14 -38 -93 -51 -104 -9 -8 -126 -251 -148 -308 -48 -122 -61
-171 -52 -195 10 -26 62 -53 86 -43 8 3 15 2 15 -3 0 -15 102 -61 136 -61 19
0 34 -4 34 -8 0 -7 9 -9 65 -14 14 -1 25 -5 25 -9 0 -4 9 -9 20 -12 23 -6 26
-29 7 -49 -7 -7 -20 -26 -29 -43 -35 -69 -67 -126 -86 -152 -11 -16 -42 -73
-70 -128 -55 -111 -114 -222 -147 -275 -20 -32 -60 -104 -104 -185 -9 -16 -21
-37 -27 -45 -14 -18 -91 -170 -135 -265 -17 -38 -51 -110 -76 -159 -24 -49
-42 -95 -39 -102 3 -7 -1 -18 -9 -24 -8 -6 -17 -25 -20 -41 -4 -16 -11 -31
-16 -34 -5 -4 -9 -14 -9 -24 0 -10 -8 -33 -17 -52 -14 -25 -18 -57 -17 -124 1
-126 4 -136 48 -151 41 -15 68 -6 94 29 8 10 30 35 50 56 125 130 247 266 245
273 -2 4 2 8 7 8 6 0 46 37 88 81 42 45 101 106 130 136 28 30 52 59 52 64 0
6 4 8 9 4 12 -7 33 29 24 39 -3 3 0 6 9 6 8 0 23 9 33 20 10 11 15 20 12 20
-3 0 22 28 56 63 71 72 100 105 142 162 17 22 33 42 36 45 4 3 24 28 44 55 21
28 41 52 44 55 3 3 18 23 33 45 15 22 41 55 57 74 17 19 27 39 24 44 -3 6 -2
7 4 4 14 -9 76 80 67 95 -5 8 -2 9 9 5 10 -3 17 -3 17 2 0 4 16 26 36 49 29
34 35 48 29 69 l-6 26 -16 -24 c-9 -13 -20 -26 -23 -29 -3 -3 -19 -23 -36 -45
-16 -22 -32 -44 -36 -50 -20 -27 -129 -162 -145 -180 -10 -11 -29 -36 -43 -57
-14 -20 -39 -51 -55 -70 -17 -18 -38 -46 -48 -61 -33 -51 -113 -141 -352 -394
-44 -47 -85 -95 -92 -106 -7 -12 -12 -18 -13 -14 0 5 -11 -4 -24 -20 -13 -15
-73 -79 -134 -141 -61 -62 -126 -131 -144 -154 -18 -22 -45 -52 -60 -66 -15
-14 -25 -28 -23 -33 3 -4 -3 -10 -14 -14 -11 -3 -22 -12 -24 -20 -5 -11 -13
-11 -41 -3 -38 12 -42 22 -40 108 1 79 12 125 50 208 19 41 34 76 34 78 0 6
43 97 135 289 53 110 88 174 224 410 85 147 201 375 201 394 0 8 7 19 14 25 8
6 33 45 54 86 22 41 52 97 66 124 14 27 26 60 26 73 0 13 4 21 10 18 13 -8 0
26 -16 42 -7 7 -21 14 -31 16 -10 2 -26 7 -35 11 -9 4 -22 5 -28 1 -5 -3 -10
-1 -10 5 0 6 -4 8 -10 5 -5 -3 -10 -1 -10 5 0 7 -7 10 -15 6 -8 -3 -15 -1 -15
5 0 6 -8 8 -18 5 -10 -4 -39 5 -65 18 -49 26 -124 51 -144 47 -25 -4 5 78 101
282 31 65 56 123 56 128 0 5 4 9 9 9 5 0 12 14 16 30 4 17 12 36 18 43 7 6 27
41 45 77 30 61 49 94 128 232 17 29 43 76 59 103 15 28 45 76 66 107 20 31 40
66 44 77 3 12 10 21 15 21 4 0 15 15 24 33 9 17 26 46 36 62 11 17 25 41 30
55 6 13 14 27 18 30 4 3 16 23 27 45 10 22 28 53 40 70 11 16 25 37 30 47 33
56 130 226 139 243 6 11 16 27 22 35 16 21 47 76 114 206 91 176 117 211 159
217 20 2 43 1 51 -4 9 -4 23 -3 32 2 10 6 27 5 45 -2 15 -6 57 -13 93 -15 60
-5 90 -12 145 -34 34 -14 119 -35 129 -32 12 4 69 -19 77 -31 3 -4 22 -10 43
-13 20 -2 52 -6 71 -8 19 -2 42 -11 51 -20 8 -9 22 -16 30 -16 8 0 23 -8 34
-18 17 -16 18 -21 6 -42 -7 -14 -34 -65 -60 -114 -26 -50 -50 -95 -54 -100 -3
-6 -7 -17 -9 -25 -1 -8 -5 -17 -10 -20 -5 -3 -14 -17 -21 -31 -34 -70 -116
-217 -128 -231 -8 -8 -14 -20 -14 -26 0 -6 -6 -16 -14 -22 -8 -7 -17 -24 -21
-38 -3 -15 -12 -32 -20 -37 -7 -6 -22 -27 -32 -46 -21 -39 -52 -88 -198 -310
-56 -85 -107 -166 -114 -178 -15 -28 -7 -72 13 -72 8 0 21 -7 30 -15 8 -9 17
-15 18 -15 2 1 10 -1 18 -4 8 -2 32 -7 53 -11 20 -3 37 -9 37 -13 0 -4 34 -23
75 -42 76 -36 87 -48 60 -70 -8 -6 -17 -21 -21 -33 -4 -12 -18 -33 -31 -47
-13 -14 -30 -35 -36 -46 -7 -12 -36 -56 -65 -100 -29 -43 -50 -84 -47 -92 2
-7 1 -10 -5 -7 -5 3 -27 -22 -48 -56 -22 -34 -45 -69 -51 -78 -12 -17 -191
-286 -251 -377 -55 -83 -94 -139 -101 -142 -9 -4 1 -42 12 -42 4 0 16 14 26
30 9 17 21 30 25 30 4 0 8 6 8 13 1 6 14 28 30 47 17 19 30 38 30 43 0 4 5 13
10 20 26 30 58 76 116 165 35 54 69 103 75 110 6 7 16 23 23 35 6 12 24 41 39
64 15 24 27 45 27 49 0 3 14 23 30 44 17 21 30 41 30 45 0 5 11 23 25 41 14
18 26 44 27 57 1 14 7 23 13 21 6 -3 28 25 49 61 21 36 42 68 47 71 5 3 9 16
9 30 0 13 5 23 11 22 15 -4 42 68 35 95 -6 24 -10 27 -108 71 -31 14 -59 30
-62 35 -3 5 -22 9 -42 9 -20 0 -41 5 -47 11 -6 6 -19 11 -28 11 -29 0 -31 16
-7 57 12 21 25 40 28 43 18 15 70 106 70 122 0 10 6 18 13 18 10 0 62 72 76
105 2 6 7 12 10 15 7 5 59 87 128 200 57 94 131 226 195 350 13 25 26 47 31
48 4 2 7 8 7 13 0 9 97 218 120 261 18 32 12 57 -15 64 -14 3 -25 10 -25 15 0
5 -6 9 -14 9 -8 0 -22 8 -31 17 -14 13 -21 14 -36 5 -26 -16 -34 -15 -19 3 10
12 10 15 -4 15 -9 0 -16 4 -16 9 0 8 -109 49 -145 55 -5 1 -15 5 -22 9 -7 4
-30 10 -53 12 -22 2 -48 9 -59 14 -10 6 -31 10 -47 10 -38 0 -120 8 -164 17
-19 3 -77 7 -128 8 l-93 1 -32 -38z"/>
<path d="M3020 4523 c-20 -8 -36 -32 -86 -128 -63 -123 -78 -150 -86 -153 -5
-2 -8 -7 -8 -12 0 -8 -68 -138 -142 -270 -14 -25 -50 -93 -81 -151 -62 -118
-101 -189 -129 -234 -10 -16 -25 -43 -33 -60 -9 -16 -20 -37 -25 -45 -21 -32
-104 -178 -143 -250 -22 -41 -54 -100 -72 -130 -18 -30 -53 -93 -77 -140 -25
-47 -54 -101 -65 -120 -93 -163 -127 -231 -131 -258 -3 -26 49 -82 76 -82 10
0 23 -5 30 -12 6 -6 22 -13 34 -15 68 -9 80 -12 91 -20 7 -5 31 -15 55 -22 23
-6 42 -16 42 -22 0 -6 4 -8 8 -5 4 2 14 1 22 -4 11 -7 6 -24 -27 -92 -108
-219 -207 -418 -233 -468 -16 -30 -27 -56 -25 -59 2 -2 -7 -18 -20 -35 -13
-17 -41 -69 -64 -116 -22 -47 -65 -130 -95 -185 -31 -55 -60 -111 -66 -125 -6
-14 -26 -54 -43 -90 -17 -36 -32 -67 -32 -70 0 -3 -24 -52 -52 -110 -28 -58
-61 -130 -74 -160 -13 -30 -31 -70 -41 -88 -19 -35 -23 -88 -9 -111 13 -20 44
-6 77 36 16 20 39 47 51 59 12 13 24 33 28 44 4 11 10 18 15 15 4 -3 30 23 58
57 27 35 62 77 78 93 16 17 49 55 74 84 25 30 60 71 78 91 17 21 32 43 32 49
0 6 4 11 9 11 10 0 60 50 104 104 18 21 47 55 64 75 18 20 33 41 33 46 0 6 9
17 20 25 11 8 20 18 20 23 0 5 12 21 28 37 15 15 34 38 42 50 8 12 27 35 41
50 14 15 36 43 50 60 13 18 38 49 55 69 17 20 41 52 54 71 14 19 35 46 47 60
13 14 23 28 23 31 0 3 9 17 21 30 32 37 63 78 123 159 88 121 178 239 229 301
26 32 47 61 47 65 0 4 6 15 14 23 8 9 16 22 18 29 2 8 18 29 36 48 17 19 32
41 32 50 0 8 4 13 9 10 4 -3 23 18 42 47 18 29 44 63 56 77 13 14 23 30 23 36
0 6 7 17 15 24 8 7 15 21 15 31 0 11 4 19 9 19 13 0 22 46 15 75 -3 14 -10 22
-15 20 -5 -3 -22 1 -38 10 -17 8 -41 15 -56 15 -14 0 -25 5 -25 10 0 6 -8 10
-17 10 -17 0 -83 35 -93 50 -8 11 -102 40 -111 34 -20 -12 -7 16 29 62 20 27
42 56 47 65 6 8 42 61 80 118 39 56 79 119 90 139 11 20 22 39 25 42 25 25 70
92 70 104 0 9 4 16 9 16 5 0 21 23 35 52 14 29 26 48 26 43 0 -6 12 13 26 40
15 28 32 57 38 65 7 8 18 29 26 45 8 17 21 34 27 38 7 4 13 13 13 19 0 5 14
30 30 55 17 25 43 68 58 95 15 28 32 58 37 67 45 73 75 132 77 152 3 34 -28
76 -60 82 -15 3 -37 15 -49 26 -21 20 -23 20 -32 3 -6 -10 -11 -12 -11 -4 0
17 -34 29 -100 36 -29 3 -55 8 -58 10 -2 3 -15 1 -28 -4 -13 -5 -24 -6 -24 -2
0 4 -12 9 -26 10 -15 1 -32 6 -38 11 -21 17 -68 32 -60 19 4 -6 3 -8 -3 -5
-41 26 -149 43 -183 30z m-930 -1853 c0 -5 -5 -10 -11 -10 -5 0 -7 5 -4 10 3
6 8 10 11 10 2 0 4 -4 4 -10z"/>
</g>
</svg>
