<svg xmlns="http://www.w3.org/2000/svg" xmlns:xlink="http://www.w3.org/1999/xlink" width="500" zoomAndPan="magnify" viewBox="0 0 375 374.999991" height="500" preserveAspectRatio="xMidYMid meet" version="1.0"><path fill="#1370f0" d="M 280.578125 67.703125 L 104.414062 67.703125 C 45.734375 106.660156 19.460938 179.558594 39.753906 247.105469 C 60.050781 314.65625 122.113281 360.894531 192.496094 360.894531 C 262.878906 360.894531 324.945312 314.65625 345.238281 247.105469 C 365.53125 179.558594 339.257812 106.660156 280.578125 67.703125 Z M 280.578125 67.703125 " fill-opacity="1" fill-rule="nonzero"/><path fill="#04589b" d="M 274.300781 104.695312 L 110.691406 104.695312 C 70.398438 139.0625 55.761719 194.96875 74.03125 244.738281 C 92.296875 294.507812 139.589844 327.574219 192.496094 327.574219 C 245.40625 327.574219 292.699219 294.507812 310.964844 244.738281 C 329.230469 194.96875 314.597656 139.0625 274.304688 104.695312 Z M 274.300781 104.695312 " fill-opacity="1" fill-rule="nonzero"/><path fill="#ffffff" d="M 260.265625 255.753906 C 260.265625 256.695312 260.21875 257.632812 260.128906 258.570312 C 260.035156 259.503906 259.898438 260.433594 259.714844 261.355469 C 259.53125 262.28125 259.304688 263.191406 259.03125 264.09375 C 258.757812 264.992188 258.441406 265.875 258.082031 266.746094 C 257.726562 267.617188 257.324219 268.464844 256.882812 269.292969 C 256.4375 270.125 255.957031 270.929688 255.433594 271.710938 C 254.914062 272.496094 254.355469 273.25 253.761719 273.976562 C 253.164062 274.703125 252.535156 275.398438 251.871094 276.066406 C 251.207031 276.730469 250.511719 277.363281 249.789062 277.957031 C 249.0625 278.554688 248.308594 279.117188 247.527344 279.636719 C 246.746094 280.160156 245.945312 280.644531 245.117188 281.085938 C 244.289062 281.53125 243.441406 281.933594 242.574219 282.292969 C 241.707031 282.652344 240.824219 282.96875 239.925781 283.242188 C 239.027344 283.515625 238.117188 283.742188 237.195312 283.925781 C 236.277344 284.109375 235.347656 284.25 234.414062 284.339844 C 233.480469 284.433594 232.542969 284.480469 231.605469 284.480469 C 230.667969 284.480469 229.730469 284.433594 228.796875 284.339844 C 227.863281 284.25 226.933594 284.109375 226.015625 283.925781 C 225.09375 283.742188 224.183594 283.515625 223.285156 283.242188 C 222.386719 282.96875 221.503906 282.652344 220.636719 282.292969 C 219.769531 281.933594 218.921875 281.53125 218.09375 281.085938 C 217.265625 280.644531 216.464844 280.160156 215.683594 279.636719 C 214.902344 279.117188 214.148438 278.554688 213.421875 277.957031 C 212.699219 277.363281 212.003906 276.730469 211.339844 276.066406 C 210.675781 275.398438 210.046875 274.703125 209.449219 273.976562 C 208.855469 273.25 208.296875 272.496094 207.777344 271.710938 C 207.253906 270.929688 206.773438 270.125 206.328125 269.292969 C 205.886719 268.464844 205.484375 267.617188 205.128906 266.746094 C 204.769531 265.875 204.453125 264.992188 204.179688 264.09375 C 203.90625 263.191406 203.679688 262.28125 203.496094 261.355469 C 203.3125 260.433594 203.175781 259.503906 203.082031 258.570312 C 202.992188 257.632812 202.945312 256.695312 202.945312 255.753906 C 202.945312 254.8125 202.992188 253.875 203.082031 252.9375 C 203.175781 252 203.3125 251.070312 203.496094 250.148438 C 203.679688 249.226562 203.90625 248.316406 204.179688 247.414062 C 204.453125 246.515625 204.769531 245.628906 205.128906 244.761719 C 205.484375 243.890625 205.886719 243.042969 206.328125 242.210938 C 206.773438 241.382812 207.253906 240.574219 207.777344 239.792969 C 208.296875 239.011719 208.855469 238.257812 209.449219 237.527344 C 210.046875 236.800781 210.675781 236.105469 211.339844 235.441406 C 212.003906 234.773438 212.699219 234.144531 213.421875 233.546875 C 214.148438 232.949219 214.902344 232.390625 215.683594 231.867188 C 216.464844 231.34375 217.265625 230.863281 218.09375 230.417969 C 218.921875 229.976562 219.769531 229.574219 220.636719 229.214844 C 221.503906 228.851562 222.386719 228.535156 223.285156 228.261719 C 224.183594 227.992188 225.09375 227.761719 226.015625 227.578125 C 226.933594 227.394531 227.863281 227.257812 228.796875 227.164062 C 229.730469 227.074219 230.667969 227.027344 231.605469 227.027344 C 232.542969 227.027344 233.480469 227.074219 234.414062 227.164062 C 235.347656 227.257812 236.277344 227.394531 237.195312 227.578125 C 238.117188 227.761719 239.027344 227.992188 239.925781 228.261719 C 240.824219 228.535156 241.707031 228.851562 242.574219 229.214844 C 243.441406 229.574219 244.289062 229.976562 245.117188 230.417969 C 245.945312 230.863281 246.746094 231.34375 247.527344 231.867188 C 248.308594 232.390625 249.0625 232.949219 249.789062 233.546875 C 250.511719 234.144531 251.207031 234.773438 251.871094 235.441406 C 252.535156 236.105469 253.164062 236.800781 253.761719 237.527344 C 254.355469 238.257812 254.914062 239.011719 255.433594 239.792969 C 255.957031 240.574219 256.4375 241.382812 256.882812 242.210938 C 257.324219 243.042969 257.726562 243.890625 258.082031 244.761719 C 258.441406 245.628906 258.757812 246.515625 259.03125 247.414062 C 259.304688 248.316406 259.53125 249.226562 259.714844 250.148438 C 259.898438 251.070312 260.035156 252 260.128906 252.9375 C 260.21875 253.875 260.265625 254.8125 260.265625 255.753906 Z M 260.265625 255.753906 " fill-opacity="1" fill-rule="nonzero"/><path fill="#ffffff" d="M 300.988281 194.328125 C 300.988281 195.269531 300.941406 196.207031 300.847656 197.144531 C 300.757812 198.082031 300.621094 199.011719 300.4375 199.933594 C 300.253906 200.855469 300.027344 201.769531 299.753906 202.667969 C 299.480469 203.566406 299.164062 204.453125 298.804688 205.320312 C 298.445312 206.191406 298.046875 207.039062 297.601562 207.871094 C 297.160156 208.699219 296.679688 209.507812 296.15625 210.289062 C 295.636719 211.070312 295.078125 211.824219 294.480469 212.554688 C 293.886719 213.28125 293.257812 213.976562 292.59375 214.640625 C 291.929688 215.308594 291.234375 215.9375 290.507812 216.535156 C 289.785156 217.132812 289.03125 217.691406 288.25 218.214844 C 287.46875 218.738281 286.664062 219.21875 285.835938 219.664062 C 285.011719 220.105469 284.164062 220.507812 283.296875 220.867188 C 282.429688 221.230469 281.546875 221.546875 280.648438 221.820312 C 279.75 222.089844 278.839844 222.320312 277.917969 222.503906 C 277 222.6875 276.070312 222.824219 275.136719 222.917969 C 274.203125 223.007812 273.265625 223.054688 272.328125 223.054688 C 271.390625 223.054688 270.453125 223.007812 269.519531 222.917969 C 268.585938 222.824219 267.65625 222.6875 266.734375 222.503906 C 265.816406 222.320312 264.90625 222.089844 264.007812 221.820312 C 263.109375 221.546875 262.226562 221.230469 261.359375 220.867188 C 260.492188 220.507812 259.644531 220.105469 258.816406 219.664062 C 257.988281 219.21875 257.183594 218.738281 256.40625 218.214844 C 255.625 217.691406 254.871094 217.132812 254.144531 216.535156 C 253.421875 215.9375 252.726562 215.308594 252.0625 214.640625 C 251.398438 213.976562 250.769531 213.28125 250.171875 212.554688 C 249.578125 211.824219 249.019531 211.070312 248.496094 210.289062 C 247.976562 209.507812 247.492188 208.699219 247.050781 207.871094 C 246.609375 207.039062 246.207031 206.191406 245.847656 205.320312 C 245.488281 204.453125 245.175781 203.566406 244.902344 202.667969 C 244.628906 201.769531 244.402344 200.855469 244.21875 199.933594 C 244.035156 199.011719 243.898438 198.082031 243.804688 197.144531 C 243.714844 196.207031 243.667969 195.269531 243.667969 194.328125 C 243.667969 193.386719 243.714844 192.449219 243.804688 191.511719 C 243.898438 190.578125 244.035156 189.648438 244.21875 188.726562 C 244.402344 187.800781 244.628906 186.890625 244.902344 185.992188 C 245.175781 185.089844 245.488281 184.207031 245.847656 183.335938 C 246.207031 182.46875 246.609375 181.617188 247.050781 180.789062 C 247.492188 179.957031 247.976562 179.152344 248.496094 178.371094 C 249.019531 177.585938 249.578125 176.832031 250.171875 176.105469 C 250.769531 175.378906 251.398438 174.683594 252.0625 174.015625 C 252.726562 173.351562 253.421875 172.71875 254.144531 172.125 C 254.871094 171.527344 255.625 170.964844 256.40625 170.445312 C 257.183594 169.921875 257.988281 169.4375 258.816406 168.996094 C 259.644531 168.550781 260.492188 168.148438 261.359375 167.789062 C 262.226562 167.429688 263.109375 167.113281 264.007812 166.839844 C 264.90625 166.566406 265.816406 166.339844 266.734375 166.15625 C 267.65625 165.972656 268.585938 165.832031 269.519531 165.742188 C 270.453125 165.648438 271.390625 165.601562 272.328125 165.601562 C 273.265625 165.601562 274.203125 165.648438 275.136719 165.742188 C 276.070312 165.832031 277 165.972656 277.917969 166.15625 C 278.839844 166.339844 279.75 166.566406 280.648438 166.839844 C 281.546875 167.113281 282.429688 167.429688 283.296875 167.789062 C 284.164062 168.148438 285.011719 168.550781 285.835938 168.996094 C 286.664062 169.4375 287.46875 169.921875 288.25 170.445312 C 289.03125 170.964844 289.785156 171.527344 290.507812 172.125 C 291.234375 172.71875 291.929688 173.351562 292.59375 174.015625 C 293.257812 174.683594 293.886719 175.378906 294.480469 176.105469 C 295.078125 176.832031 295.636719 177.585938 296.15625 178.371094 C 296.679688 179.152344 297.160156 179.957031 297.601562 180.789062 C 298.046875 181.617188 298.445312 182.46875 298.804688 183.335938 C 299.164062 184.207031 299.480469 185.089844 299.753906 185.992188 C 300.027344 186.890625 300.253906 187.800781 300.4375 188.726562 C 300.621094 189.648438 300.757812 190.578125 300.847656 191.511719 C 300.941406 192.449219 300.988281 193.386719 300.988281 194.328125 Z M 300.988281 194.328125 " fill-opacity="1" fill-rule="nonzero"/><path fill="#ffffff" d="M 147.765625 194.328125 C 147.765625 195.269531 147.71875 196.207031 147.628906 197.144531 C 147.535156 198.082031 147.398438 199.011719 147.214844 199.933594 C 147.03125 200.855469 146.804688 201.769531 146.53125 202.667969 C 146.257812 203.566406 145.941406 204.453125 145.582031 205.320312 C 145.222656 206.191406 144.824219 207.039062 144.382812 207.871094 C 143.9375 208.699219 143.457031 209.507812 142.933594 210.289062 C 142.414062 211.070312 141.855469 211.824219 141.257812 212.554688 C 140.664062 213.28125 140.035156 213.976562 139.371094 214.640625 C 138.707031 215.308594 138.011719 215.9375 137.285156 216.535156 C 136.5625 217.132812 135.808594 217.691406 135.027344 218.214844 C 134.246094 218.738281 133.441406 219.21875 132.617188 219.664062 C 131.789062 220.105469 130.941406 220.507812 130.074219 220.867188 C 129.207031 221.230469 128.324219 221.546875 127.425781 221.820312 C 126.527344 222.089844 125.617188 222.320312 124.695312 222.503906 C 123.777344 222.6875 122.847656 222.824219 121.914062 222.917969 C 120.980469 223.007812 120.042969 223.054688 119.105469 223.054688 C 118.167969 223.054688 117.230469 223.007812 116.296875 222.917969 C 115.363281 222.824219 114.433594 222.6875 113.515625 222.503906 C 112.59375 222.320312 111.683594 222.089844 110.785156 221.820312 C 109.886719 221.546875 109.003906 221.230469 108.136719 220.867188 C 107.269531 220.507812 106.421875 220.105469 105.59375 219.664062 C 104.765625 219.21875 103.964844 218.738281 103.183594 218.214844 C 102.402344 217.691406 101.648438 217.132812 100.921875 216.535156 C 100.199219 215.9375 99.503906 215.308594 98.839844 214.640625 C 98.175781 213.976562 97.546875 213.28125 96.949219 212.554688 C 96.355469 211.824219 95.796875 211.070312 95.273438 210.289062 C 94.753906 209.507812 94.273438 208.699219 93.828125 207.871094 C 93.386719 207.039062 92.984375 206.191406 92.625 205.320312 C 92.265625 204.453125 91.953125 203.566406 91.679688 202.667969 C 91.40625 201.769531 91.179688 200.855469 90.996094 199.933594 C 90.8125 199.011719 90.675781 198.082031 90.582031 197.144531 C 90.492188 196.207031 90.445312 195.269531 90.445312 194.328125 C 90.445312 193.386719 90.492188 192.449219 90.582031 191.511719 C 90.675781 190.578125 90.8125 189.648438 90.996094 188.726562 C 91.179688 187.800781 91.40625 186.890625 91.679688 185.992188 C 91.953125 185.089844 92.265625 184.207031 92.625 183.335938 C 92.984375 182.46875 93.386719 181.617188 93.828125 180.789062 C 94.273438 179.957031 94.753906 179.152344 95.273438 178.371094 C 95.796875 177.585938 96.355469 176.832031 96.949219 176.105469 C 97.546875 175.378906 98.175781 174.683594 98.839844 174.015625 C 99.503906 173.351562 100.199219 172.71875 100.921875 172.125 C 101.648438 171.527344 102.402344 170.964844 103.183594 170.445312 C 103.964844 169.921875 104.765625 169.4375 105.59375 168.996094 C 106.421875 168.550781 107.269531 168.148438 108.136719 167.789062 C 109.003906 167.429688 109.886719 167.113281 110.785156 166.839844 C 111.683594 166.566406 112.59375 166.339844 113.515625 166.15625 C 114.433594 165.972656 115.363281 165.832031 116.296875 165.742188 C 117.230469 165.648438 118.167969 165.601562 119.105469 165.601562 C 120.042969 165.601562 120.980469 165.648438 121.914062 165.742188 C 122.847656 165.832031 123.777344 165.972656 124.695312 166.15625 C 125.617188 166.339844 126.527344 166.566406 127.425781 166.839844 C 128.324219 167.113281 129.207031 167.429688 130.074219 167.789062 C 130.941406 168.148438 131.789062 168.550781 132.617188 168.996094 C 133.441406 169.4375 134.246094 169.921875 135.027344 170.445312 C 135.808594 170.964844 136.5625 171.527344 137.285156 172.125 C 138.011719 172.71875 138.707031 173.351562 139.371094 174.015625 C 140.035156 174.683594 140.664062 175.378906 141.257812 176.105469 C 141.855469 176.832031 142.414062 177.585938 142.933594 178.371094 C 143.457031 179.152344 143.9375 179.957031 144.382812 180.789062 C 144.824219 181.617188 145.222656 182.46875 145.582031 183.335938 C 145.941406 184.207031 146.257812 185.089844 146.53125 185.992188 C 146.804688 186.890625 147.03125 187.800781 147.214844 188.726562 C 147.398438 189.648438 147.535156 190.578125 147.628906 191.511719 C 147.71875 192.449219 147.765625 193.386719 147.765625 194.328125 Z M 147.765625 194.328125 " fill-opacity="1" fill-rule="nonzero"/><path fill="#ffffff" d="M 182.4375 255.753906 C 182.4375 256.695312 182.390625 257.632812 182.296875 258.570312 C 182.207031 259.503906 182.070312 260.433594 181.886719 261.355469 C 181.703125 262.28125 181.476562 263.191406 181.203125 264.09375 C 180.929688 264.992188 180.613281 265.875 180.253906 266.746094 C 179.894531 267.617188 179.496094 268.464844 179.050781 269.292969 C 178.609375 270.125 178.128906 270.929688 177.605469 271.710938 C 177.085938 272.496094 176.527344 273.25 175.929688 273.976562 C 175.335938 274.703125 174.707031 275.398438 174.042969 276.066406 C 173.378906 276.730469 172.683594 277.363281 171.957031 277.957031 C 171.234375 278.554688 170.480469 279.117188 169.699219 279.636719 C 168.917969 280.160156 168.113281 280.644531 167.285156 281.085938 C 166.460938 281.53125 165.613281 281.933594 164.746094 282.292969 C 163.878906 282.652344 162.996094 282.96875 162.097656 283.242188 C 161.199219 283.515625 160.289062 283.742188 159.367188 283.925781 C 158.449219 284.109375 157.519531 284.25 156.585938 284.339844 C 155.652344 284.433594 154.714844 284.480469 153.777344 284.480469 C 152.839844 284.480469 151.902344 284.433594 150.96875 284.339844 C 150.035156 284.25 149.105469 284.109375 148.183594 283.925781 C 147.265625 283.742188 146.355469 283.515625 145.457031 283.242188 C 144.558594 282.96875 143.675781 282.652344 142.808594 282.292969 C 141.941406 281.933594 141.09375 281.53125 140.265625 281.085938 C 139.4375 280.644531 138.632812 280.160156 137.855469 279.636719 C 137.074219 279.117188 136.320312 278.554688 135.59375 277.957031 C 134.871094 277.363281 134.175781 276.730469 133.511719 276.066406 C 132.847656 275.398438 132.21875 274.703125 131.621094 273.976562 C 131.027344 273.25 130.46875 272.496094 129.945312 271.710938 C 129.425781 270.929688 128.941406 270.125 128.5 269.292969 C 128.058594 268.464844 127.65625 267.617188 127.296875 266.746094 C 126.9375 265.875 126.625 264.992188 126.351562 264.09375 C 126.078125 263.191406 125.851562 262.28125 125.667969 261.355469 C 125.484375 260.433594 125.347656 259.503906 125.253906 258.570312 C 125.164062 257.632812 125.117188 256.695312 125.117188 255.753906 C 125.117188 254.8125 125.164062 253.875 125.253906 252.9375 C 125.347656 252 125.484375 251.070312 125.667969 250.148438 C 125.851562 249.226562 126.078125 248.316406 126.351562 247.414062 C 126.625 246.515625 126.9375 245.628906 127.296875 244.761719 C 127.65625 243.890625 128.058594 243.042969 128.5 242.210938 C 128.941406 241.382812 129.425781 240.574219 129.945312 239.792969 C 130.46875 239.011719 131.027344 238.257812 131.621094 237.527344 C 132.21875 236.800781 132.847656 236.105469 133.511719 235.441406 C 134.175781 234.773438 134.871094 234.144531 135.59375 233.546875 C 136.320312 232.949219 137.074219 232.390625 137.855469 231.867188 C 138.632812 231.34375 139.4375 230.863281 140.265625 230.417969 C 141.09375 229.976562 141.941406 229.574219 142.808594 229.214844 C 143.675781 228.851562 144.558594 228.535156 145.457031 228.261719 C 146.355469 227.992188 147.265625 227.761719 148.183594 227.578125 C 149.105469 227.394531 150.035156 227.257812 150.96875 227.164062 C 151.902344 227.074219 152.839844 227.027344 153.777344 227.027344 C 154.714844 227.027344 155.652344 227.074219 156.585938 227.164062 C 157.519531 227.257812 158.449219 227.394531 159.367188 227.578125 C 160.289062 227.761719 161.199219 227.992188 162.097656 228.261719 C 162.996094 228.535156 163.878906 228.851562 164.746094 229.214844 C 165.613281 229.574219 166.460938 229.976562 167.285156 230.417969 C 168.113281 230.863281 168.917969 231.34375 169.699219 231.867188 C 170.480469 232.390625 171.234375 232.949219 171.957031 233.546875 C 172.683594 234.144531 173.378906 234.773438 174.042969 235.441406 C 174.707031 236.105469 175.335938 236.800781 175.929688 237.527344 C 176.527344 238.257812 177.085938 239.011719 177.605469 239.792969 C 178.128906 240.574219 178.609375 241.382812 179.050781 242.210938 C 179.496094 243.042969 179.894531 243.890625 180.253906 244.761719 C 180.613281 245.628906 180.929688 246.515625 181.203125 247.414062 C 181.476562 248.316406 181.703125 249.226562 181.886719 250.148438 C 182.070312 251.070312 182.207031 252 182.296875 252.9375 C 182.390625 253.875 182.4375 254.8125 182.4375 255.753906 Z M 182.4375 255.753906 " fill-opacity="1" fill-rule="nonzero"/><path fill="#ffffff" d="M 221.367188 195.5625 C 221.367188 196.5 221.320312 197.441406 221.230469 198.375 C 221.136719 199.3125 221 200.242188 220.816406 201.164062 C 220.632812 202.085938 220.40625 203 220.132812 203.898438 C 219.859375 204.800781 219.546875 205.683594 219.1875 206.554688 C 218.828125 207.421875 218.425781 208.273438 217.984375 209.101562 C 217.539062 209.933594 217.058594 210.738281 216.539062 211.519531 C 216.015625 212.300781 215.457031 213.058594 214.863281 213.785156 C 214.265625 214.511719 213.636719 215.207031 212.972656 215.875 C 212.308594 216.539062 211.613281 217.167969 210.890625 217.765625 C 210.164062 218.363281 209.410156 218.921875 208.628906 219.445312 C 207.847656 219.96875 207.046875 220.453125 206.21875 220.894531 C 205.390625 221.339844 204.542969 221.742188 203.675781 222.101562 C 202.808594 222.460938 201.925781 222.777344 201.027344 223.050781 C 200.128906 223.324219 199.21875 223.550781 198.296875 223.734375 C 197.378906 223.917969 196.449219 224.054688 195.515625 224.148438 C 194.582031 224.242188 193.644531 224.285156 192.707031 224.285156 C 191.769531 224.285156 190.832031 224.242188 189.898438 224.148438 C 188.964844 224.054688 188.035156 223.917969 187.117188 223.734375 C 186.195312 223.550781 185.285156 223.324219 184.386719 223.050781 C 183.488281 222.777344 182.605469 222.460938 181.738281 222.101562 C 180.871094 221.742188 180.023438 221.339844 179.195312 220.894531 C 178.371094 220.453125 177.566406 219.96875 176.785156 219.445312 C 176.003906 218.921875 175.25 218.363281 174.527344 217.765625 C 173.800781 217.167969 173.105469 216.539062 172.441406 215.875 C 171.777344 215.207031 171.148438 214.511719 170.554688 213.785156 C 169.957031 213.058594 169.398438 212.300781 168.878906 211.519531 C 168.355469 210.738281 167.875 209.933594 167.429688 209.101562 C 166.988281 208.273438 166.589844 207.421875 166.230469 206.554688 C 165.871094 205.683594 165.554688 204.800781 165.28125 203.898438 C 165.007812 203 164.78125 202.085938 164.597656 201.164062 C 164.414062 200.242188 164.277344 199.3125 164.183594 198.375 C 164.09375 197.441406 164.046875 196.5 164.046875 195.5625 C 164.046875 194.621094 164.09375 193.679688 164.183594 192.746094 C 164.277344 191.808594 164.414062 190.878906 164.597656 189.957031 C 164.78125 189.035156 165.007812 188.121094 165.28125 187.222656 C 165.554688 186.320312 165.871094 185.4375 166.230469 184.566406 C 166.589844 183.699219 166.988281 182.847656 167.429688 182.019531 C 167.875 181.1875 168.355469 180.382812 168.878906 179.601562 C 169.398438 178.820312 169.957031 178.0625 170.554688 177.335938 C 171.148438 176.609375 171.777344 175.914062 172.441406 175.246094 C 173.105469 174.582031 173.800781 173.953125 174.527344 173.355469 C 175.25 172.757812 176.003906 172.199219 176.785156 171.675781 C 177.566406 171.152344 178.371094 170.667969 179.195312 170.226562 C 180.023438 169.78125 180.871094 169.382812 181.738281 169.019531 C 182.605469 168.660156 183.488281 168.34375 184.386719 168.070312 C 185.285156 167.796875 186.195312 167.570312 187.117188 167.386719 C 188.035156 167.203125 188.964844 167.066406 189.898438 166.972656 C 190.832031 166.878906 191.769531 166.835938 192.707031 166.835938 C 193.644531 166.835938 194.582031 166.878906 195.515625 166.972656 C 196.449219 167.066406 197.378906 167.203125 198.296875 167.386719 C 199.21875 167.570312 200.128906 167.796875 201.027344 168.070312 C 201.925781 168.34375 202.808594 168.660156 203.675781 169.019531 C 204.542969 169.382812 205.390625 169.78125 206.21875 170.226562 C 207.046875 170.667969 207.847656 171.152344 208.628906 171.675781 C 209.410156 172.199219 210.164062 172.757812 210.890625 173.355469 C 211.613281 173.953125 212.308594 174.582031 212.972656 175.246094 C 213.636719 175.914062 214.265625 176.609375 214.863281 177.335938 C 215.457031 178.0625 216.015625 178.820312 216.539062 179.601562 C 217.058594 180.382812 217.539062 181.1875 217.984375 182.019531 C 218.425781 182.847656 218.828125 183.699219 219.1875 184.566406 C 219.546875 185.4375 219.859375 186.320312 220.132812 187.222656 C 220.40625 188.121094 220.632812 189.035156 220.816406 189.957031 C 221 190.878906 221.136719 191.808594 221.230469 192.746094 C 221.320312 193.679688 221.367188 194.621094 221.367188 195.5625 Z M 221.367188 195.5625 " fill-opacity="1" fill-rule="nonzero"/><path fill="#ffffff" d="M 247.210938 145.949219 C 247.210938 146.546875 247.183594 147.140625 247.125 147.734375 C 247.066406 148.328125 246.976562 148.917969 246.863281 149.5 C 246.746094 150.085938 246.601562 150.664062 246.429688 151.234375 C 246.257812 151.804688 246.058594 152.363281 245.828125 152.914062 C 245.601562 153.464844 245.347656 154.003906 245.066406 154.53125 C 244.785156 155.054688 244.480469 155.566406 244.152344 156.0625 C 243.820312 156.558594 243.46875 157.035156 243.089844 157.496094 C 242.710938 157.957031 242.3125 158.398438 241.894531 158.820312 C 241.472656 159.242188 241.03125 159.640625 240.574219 160.019531 C 240.113281 160.398438 239.636719 160.753906 239.140625 161.082031 C 238.648438 161.414062 238.136719 161.71875 237.613281 162 C 237.089844 162.28125 236.550781 162.535156 236.003906 162.765625 C 235.453125 162.992188 234.894531 163.195312 234.324219 163.367188 C 233.753906 163.539062 233.179688 163.683594 232.597656 163.800781 C 232.011719 163.917969 231.425781 164.003906 230.832031 164.0625 C 230.242188 164.121094 229.648438 164.152344 229.054688 164.152344 C 228.460938 164.152344 227.867188 164.121094 227.273438 164.0625 C 226.683594 164.003906 226.09375 163.917969 225.511719 163.800781 C 224.929688 163.683594 224.351562 163.539062 223.78125 163.367188 C 223.214844 163.195312 222.65625 162.992188 222.105469 162.765625 C 221.554688 162.535156 221.019531 162.28125 220.496094 162 C 219.96875 161.71875 219.460938 161.414062 218.964844 161.082031 C 218.472656 160.753906 217.996094 160.398438 217.535156 160.019531 C 217.074219 159.640625 216.636719 159.242188 216.214844 158.820312 C 215.792969 158.398438 215.394531 157.957031 215.019531 157.496094 C 214.640625 157.035156 214.285156 156.558594 213.957031 156.0625 C 213.625 155.566406 213.320312 155.054688 213.039062 154.53125 C 212.761719 154.003906 212.503906 153.464844 212.277344 152.914062 C 212.050781 152.363281 211.851562 151.804688 211.679688 151.234375 C 211.503906 150.664062 211.359375 150.085938 211.246094 149.5 C 211.128906 148.917969 211.042969 148.328125 210.984375 147.734375 C 210.925781 147.140625 210.894531 146.546875 210.894531 145.949219 C 210.894531 145.355469 210.925781 144.761719 210.984375 144.167969 C 211.042969 143.574219 211.128906 142.984375 211.246094 142.398438 C 211.359375 141.816406 211.503906 141.238281 211.679688 140.667969 C 211.851562 140.097656 212.050781 139.535156 212.277344 138.984375 C 212.503906 138.433594 212.761719 137.898438 213.039062 137.371094 C 213.320312 136.84375 213.625 136.335938 213.957031 135.839844 C 214.285156 135.34375 214.640625 134.867188 215.019531 134.40625 C 215.394531 133.945312 215.792969 133.503906 216.214844 133.082031 C 216.636719 132.660156 217.074219 132.261719 217.535156 131.882812 C 217.996094 131.503906 218.472656 131.148438 218.964844 130.816406 C 219.460938 130.488281 219.96875 130.179688 220.496094 129.898438 C 221.019531 129.617188 221.554688 129.363281 222.105469 129.136719 C 222.65625 128.90625 223.214844 128.707031 223.78125 128.535156 C 224.351562 128.363281 224.929688 128.21875 225.511719 128.101562 C 226.09375 127.984375 226.683594 127.898438 227.273438 127.839844 C 227.867188 127.78125 228.460938 127.75 229.054688 127.75 C 229.648438 127.75 230.242188 127.78125 230.832031 127.839844 C 231.425781 127.898438 232.011719 127.984375 232.597656 128.101562 C 233.179688 128.21875 233.753906 128.363281 234.324219 128.535156 C 234.894531 128.707031 235.453125 128.90625 236.003906 129.136719 C 236.550781 129.363281 237.089844 129.617188 237.613281 129.898438 C 238.136719 130.179688 238.648438 130.488281 239.140625 130.816406 C 239.636719 131.148438 240.113281 131.503906 240.574219 131.882812 C 241.03125 132.261719 241.472656 132.660156 241.894531 133.082031 C 242.3125 133.503906 242.710938 133.945312 243.089844 134.40625 C 243.46875 134.867188 243.820312 135.34375 244.152344 135.839844 C 244.480469 136.335938 244.785156 136.84375 245.066406 137.371094 C 245.347656 137.898438 245.601562 138.433594 245.828125 138.984375 C 246.058594 139.535156 246.257812 140.097656 246.429688 140.667969 C 246.601562 141.238281 246.746094 141.816406 246.863281 142.398438 C 246.976562 142.984375 247.066406 143.574219 247.125 144.167969 C 247.183594 144.761719 247.210938 145.355469 247.210938 145.949219 Z M 247.210938 145.949219 " fill-opacity="1" fill-rule="nonzero"/><path fill="#ffffff" d="M 182.203125 145.949219 C 182.203125 146.546875 182.175781 147.140625 182.117188 147.734375 C 182.058594 148.328125 181.972656 148.917969 181.855469 149.5 C 181.738281 150.085938 181.597656 150.664062 181.421875 151.234375 C 181.25 151.804688 181.050781 152.363281 180.824219 152.914062 C 180.59375 153.464844 180.339844 154.003906 180.0625 154.53125 C 179.78125 155.054688 179.476562 155.566406 179.144531 156.0625 C 178.816406 156.558594 178.460938 157.035156 178.082031 157.496094 C 177.707031 157.957031 177.308594 158.398438 176.886719 158.820312 C 176.464844 159.242188 176.027344 159.640625 175.566406 160.019531 C 175.105469 160.398438 174.628906 160.753906 174.136719 161.082031 C 173.640625 161.414062 173.132812 161.71875 172.605469 162 C 172.082031 162.28125 171.546875 162.535156 170.996094 162.765625 C 170.445312 162.992188 169.886719 163.195312 169.316406 163.367188 C 168.75 163.539062 168.171875 163.683594 167.589844 163.800781 C 167.007812 163.917969 166.417969 164.003906 165.828125 164.0625 C 165.234375 164.121094 164.640625 164.152344 164.046875 164.152344 C 163.453125 164.152344 162.859375 164.121094 162.269531 164.0625 C 161.675781 164.003906 161.089844 163.917969 160.503906 163.800781 C 159.921875 163.683594 159.34375 163.539062 158.777344 163.367188 C 158.207031 163.195312 157.648438 162.992188 157.097656 162.765625 C 156.550781 162.535156 156.011719 162.28125 155.488281 162 C 154.964844 161.71875 154.453125 161.414062 153.960938 161.082031 C 153.464844 160.753906 152.988281 160.398438 152.527344 160.019531 C 152.070312 159.640625 151.628906 159.242188 151.207031 158.820312 C 150.789062 158.398438 150.386719 157.957031 150.011719 157.496094 C 149.632812 157.035156 149.28125 156.558594 148.949219 156.0625 C 148.621094 155.566406 148.3125 155.054688 148.035156 154.53125 C 147.753906 154.003906 147.5 153.464844 147.273438 152.914062 C 147.042969 152.363281 146.84375 151.804688 146.671875 151.234375 C 146.5 150.664062 146.355469 150.085938 146.238281 149.5 C 146.121094 148.917969 146.035156 148.328125 145.976562 147.734375 C 145.917969 147.140625 145.890625 146.546875 145.890625 145.949219 C 145.890625 145.355469 145.917969 144.761719 145.976562 144.167969 C 146.035156 143.574219 146.121094 142.984375 146.238281 142.398438 C 146.355469 141.816406 146.5 141.238281 146.671875 140.667969 C 146.84375 140.097656 147.042969 139.535156 147.273438 138.984375 C 147.5 138.433594 147.753906 137.898438 148.035156 137.371094 C 148.3125 136.84375 148.621094 136.335938 148.949219 135.839844 C 149.28125 135.34375 149.632812 134.867188 150.011719 134.40625 C 150.386719 133.945312 150.789062 133.503906 151.207031 133.082031 C 151.628906 132.660156 152.070312 132.261719 152.527344 131.882812 C 152.988281 131.503906 153.464844 131.148438 153.960938 130.816406 C 154.453125 130.488281 154.964844 130.179688 155.488281 129.898438 C 156.011719 129.617188 156.550781 129.363281 157.097656 129.136719 C 157.648438 128.90625 158.207031 128.707031 158.777344 128.535156 C 159.34375 128.363281 159.921875 128.21875 160.503906 128.101562 C 161.089844 127.984375 161.675781 127.898438 162.269531 127.839844 C 162.859375 127.78125 163.453125 127.75 164.046875 127.75 C 164.640625 127.75 165.234375 127.78125 165.828125 127.839844 C 166.417969 127.898438 167.007812 127.984375 167.589844 128.101562 C 168.171875 128.21875 168.75 128.363281 169.316406 128.535156 C 169.886719 128.707031 170.445312 128.90625 170.996094 129.136719 C 171.546875 129.363281 172.082031 129.617188 172.605469 129.898438 C 173.132812 130.179688 173.640625 130.488281 174.136719 130.816406 C 174.628906 131.148438 175.105469 131.503906 175.566406 131.882812 C 176.027344 132.261719 176.464844 132.660156 176.886719 133.082031 C 177.308594 133.503906 177.707031 133.945312 178.082031 134.40625 C 178.460938 134.867188 178.816406 135.34375 179.144531 135.839844 C 179.476562 136.335938 179.78125 136.84375 180.0625 137.371094 C 180.339844 137.898438 180.59375 138.433594 180.824219 138.984375 C 181.050781 139.535156 181.25 140.097656 181.421875 140.667969 C 181.597656 141.238281 181.738281 141.816406 181.855469 142.398438 C 181.972656 142.984375 182.058594 143.574219 182.117188 144.167969 C 182.175781 144.761719 182.203125 145.355469 182.203125 145.949219 Z M 182.203125 145.949219 " fill-opacity="1" fill-rule="nonzero"/></svg>