<svg xmlns="http://www.w3.org/2000/svg" xmlns:xlink="http://www.w3.org/1999/xlink" width="500" zoomAndPan="magnify" viewBox="0 0 375 374.999991" height="500" preserveAspectRatio="xMidYMid meet" version="1.0"><path fill="#1370f0" d="M 336.488281 188.960938 C 336.488281 191.335938 336.429688 193.707031 336.316406 196.078125 C 336.199219 198.453125 336.023438 200.820312 335.792969 203.179688 C 335.558594 205.542969 335.269531 207.898438 334.921875 210.25 C 334.574219 212.597656 334.167969 214.933594 333.707031 217.265625 C 333.246094 219.59375 332.726562 221.910156 332.148438 224.210938 C 331.574219 226.515625 330.941406 228.800781 330.253906 231.074219 C 329.566406 233.347656 328.824219 235.597656 328.023438 237.835938 C 327.226562 240.070312 326.371094 242.285156 325.464844 244.476562 C 324.558594 246.671875 323.597656 248.839844 322.585938 250.988281 C 321.574219 253.132812 320.507812 255.253906 319.390625 257.347656 C 318.273438 259.441406 317.105469 261.507812 315.886719 263.542969 C 314.667969 265.582031 313.402344 267.585938 312.082031 269.558594 C 310.765625 271.535156 309.402344 273.472656 307.992188 275.382812 C 306.578125 277.289062 305.121094 279.160156 303.617188 280.996094 C 302.113281 282.828125 300.566406 284.628906 298.976562 286.386719 C 297.382812 288.144531 295.75 289.863281 294.074219 291.542969 C 292.398438 293.222656 290.683594 294.859375 288.925781 296.453125 C 287.171875 298.046875 285.375 299.597656 283.542969 301.105469 C 281.710938 302.609375 279.84375 304.070312 277.941406 305.484375 C 276.039062 306.898438 274.101562 308.265625 272.128906 309.585938 C 270.160156 310.902344 268.15625 312.171875 266.125 313.394531 C 264.09375 314.613281 262.03125 315.785156 259.941406 316.902344 C 257.851562 318.023438 255.734375 319.089844 253.59375 320.105469 C 251.449219 321.121094 249.285156 322.082031 247.09375 322.992188 C 244.90625 323.898438 242.695312 324.753906 240.460938 325.554688 C 238.230469 326.351562 235.980469 327.097656 233.714844 327.785156 C 231.445312 328.476562 229.164062 329.109375 226.863281 329.6875 C 224.5625 330.261719 222.253906 330.78125 219.929688 331.246094 C 217.605469 331.710938 215.269531 332.117188 212.925781 332.464844 C 210.582031 332.8125 208.230469 333.101562 205.871094 333.335938 C 203.511719 333.566406 201.148438 333.742188 198.78125 333.859375 C 196.414062 333.976562 194.046875 334.035156 191.675781 334.035156 C 189.308594 334.035156 186.9375 333.976562 184.570312 333.859375 C 182.203125 333.742188 179.839844 333.566406 177.484375 333.335938 C 175.125 333.101562 172.773438 332.8125 170.429688 332.464844 C 168.085938 332.117188 165.75 331.710938 163.425781 331.246094 C 161.101562 330.78125 158.789062 330.261719 156.492188 329.6875 C 154.191406 329.109375 151.90625 328.476562 149.640625 327.785156 C 147.371094 327.097656 145.121094 326.351562 142.890625 325.554688 C 140.660156 324.753906 138.449219 323.898438 136.257812 322.992188 C 134.070312 322.082031 131.902344 321.121094 129.761719 320.105469 C 127.621094 319.089844 125.503906 318.023438 123.414062 316.902344 C 121.324219 315.785156 119.261719 314.613281 117.230469 313.394531 C 115.195312 312.171875 113.195312 310.902344 111.222656 309.585938 C 109.253906 308.265625 107.316406 306.898438 105.414062 305.484375 C 103.507812 304.070312 101.640625 302.609375 99.808594 301.105469 C 97.976562 299.597656 96.183594 298.046875 94.425781 296.453125 C 92.671875 294.859375 90.953125 293.222656 89.277344 291.542969 C 87.601562 289.863281 85.96875 288.144531 84.378906 286.386719 C 82.785156 284.628906 81.238281 282.828125 79.734375 280.996094 C 78.230469 279.160156 76.773438 277.289062 75.363281 275.382812 C 73.949219 273.472656 72.585938 271.535156 71.269531 269.558594 C 69.953125 267.585938 68.6875 265.582031 67.46875 263.542969 C 66.25 261.507812 65.082031 259.441406 63.964844 257.347656 C 62.847656 255.253906 61.78125 253.132812 60.769531 250.988281 C 59.753906 248.839844 58.792969 246.671875 57.886719 244.476562 C 56.980469 242.285156 56.128906 240.070312 55.328125 237.835938 C 54.53125 235.597656 53.789062 233.347656 53.101562 231.074219 C 52.414062 228.800781 51.78125 226.515625 51.203125 224.210938 C 50.628906 221.910156 50.109375 219.59375 49.648438 217.265625 C 49.183594 214.933594 48.78125 212.597656 48.433594 210.25 C 48.085938 207.898438 47.792969 205.542969 47.5625 203.179688 C 47.328125 200.820312 47.15625 198.453125 47.039062 196.078125 C 46.921875 193.707031 46.863281 191.335938 46.863281 188.960938 C 46.863281 186.585938 46.921875 184.214844 47.039062 181.84375 C 47.15625 179.472656 47.328125 177.105469 47.5625 174.742188 C 47.792969 172.378906 48.085938 170.023438 48.433594 167.675781 C 48.78125 165.328125 49.183594 162.988281 49.648438 160.660156 C 50.109375 158.332031 50.628906 156.015625 51.203125 153.710938 C 51.78125 151.410156 52.414062 149.121094 53.101562 146.847656 C 53.789062 144.578125 54.53125 142.324219 55.328125 140.089844 C 56.128906 137.851562 56.980469 135.636719 57.886719 133.445312 C 58.792969 131.25 59.753906 129.082031 60.769531 126.933594 C 61.78125 124.789062 62.847656 122.667969 63.964844 120.574219 C 65.082031 118.480469 66.25 116.417969 67.46875 114.378906 C 68.6875 112.34375 69.953125 110.339844 71.269531 108.363281 C 72.585938 106.390625 73.949219 104.449219 75.363281 102.542969 C 76.773438 100.636719 78.230469 98.765625 79.734375 96.929688 C 81.238281 95.09375 82.785156 93.296875 84.378906 91.539062 C 85.96875 89.777344 87.601562 88.058594 89.277344 86.378906 C 90.953125 84.703125 92.671875 83.066406 94.425781 81.46875 C 96.183594 79.875 97.976562 78.324219 99.808594 76.820312 C 101.640625 75.3125 103.507812 73.851562 105.414062 72.4375 C 107.316406 71.023438 109.253906 69.65625 111.222656 68.339844 C 113.195312 67.019531 115.195312 65.75 117.230469 64.527344 C 119.261719 63.308594 121.324219 62.140625 123.414062 61.019531 C 125.503906 59.898438 127.621094 58.832031 129.761719 57.816406 C 131.902344 56.804688 134.070312 55.839844 136.257812 54.933594 C 138.449219 54.023438 140.660156 53.167969 142.890625 52.371094 C 145.121094 51.570312 147.371094 50.824219 149.640625 50.136719 C 151.90625 49.445312 154.191406 48.8125 156.492188 48.238281 C 158.789062 47.660156 161.101562 47.140625 163.425781 46.675781 C 165.75 46.214844 168.085938 45.808594 170.429688 45.460938 C 172.773438 45.113281 175.125 44.820312 177.484375 44.589844 C 179.839844 44.355469 182.203125 44.179688 184.570312 44.0625 C 186.9375 43.949219 189.308594 43.890625 191.675781 43.890625 C 194.046875 43.890625 196.414062 43.949219 198.78125 44.0625 C 201.148438 44.179688 203.511719 44.355469 205.871094 44.589844 C 208.230469 44.820312 210.582031 45.113281 212.925781 45.460938 C 215.269531 45.808594 217.605469 46.214844 219.929688 46.675781 C 222.253906 47.140625 224.5625 47.660156 226.863281 48.238281 C 229.164062 48.8125 231.445312 49.445312 233.714844 50.136719 C 235.980469 50.824219 238.230469 51.570312 240.460938 52.371094 C 242.695312 53.167969 244.90625 54.023438 247.09375 54.933594 C 249.285156 55.839844 251.449219 56.804688 253.59375 57.816406 C 255.734375 58.832031 257.851562 59.898438 259.941406 61.019531 C 262.03125 62.140625 264.09375 63.308594 266.125 64.527344 C 268.15625 65.75 270.160156 67.019531 272.128906 68.339844 C 274.101562 69.65625 276.039062 71.023438 277.941406 72.4375 C 279.84375 73.851562 281.710938 75.3125 283.542969 76.820312 C 285.375 78.324219 287.171875 79.875 288.925781 81.46875 C 290.683594 83.066406 292.398438 84.703125 294.074219 86.378906 C 295.75 88.058594 297.382812 89.777344 298.976562 91.539062 C 300.566406 93.296875 302.113281 95.09375 303.617188 96.929688 C 305.121094 98.765625 306.578125 100.636719 307.992188 102.542969 C 309.402344 104.449219 310.765625 106.390625 312.082031 108.363281 C 313.402344 110.339844 314.667969 112.34375 315.886719 114.378906 C 317.105469 116.417969 318.273438 118.480469 319.390625 120.574219 C 320.507812 122.667969 321.574219 124.789062 322.585938 126.933594 C 323.597656 129.082031 324.558594 131.25 325.464844 133.445312 C 326.371094 135.636719 327.226562 137.851562 328.023438 140.089844 C 328.824219 142.324219 329.566406 144.578125 330.253906 146.847656 C 330.941406 149.121094 331.574219 151.410156 332.148438 153.710938 C 332.726562 156.015625 333.246094 158.332031 333.707031 160.660156 C 334.167969 162.988281 334.574219 165.328125 334.921875 167.675781 C 335.269531 170.023438 335.558594 172.378906 335.792969 174.742188 C 336.023438 177.105469 336.199219 179.472656 336.316406 181.84375 C 336.429688 184.214844 336.488281 186.585938 336.488281 188.960938 Z M 336.488281 188.960938 " fill-opacity="1" fill-rule="nonzero"/><path fill="#04589b" d="M 306.269531 188.960938 C 306.269531 190.839844 306.222656 192.71875 306.132812 194.59375 C 306.039062 196.472656 305.902344 198.34375 305.71875 200.214844 C 305.535156 202.082031 305.304688 203.949219 305.03125 205.804688 C 304.753906 207.664062 304.433594 209.515625 304.066406 211.359375 C 303.703125 213.199219 303.292969 215.035156 302.835938 216.855469 C 302.378906 218.679688 301.878906 220.488281 301.335938 222.285156 C 300.792969 224.085938 300.203125 225.867188 299.570312 227.636719 C 298.941406 229.40625 298.265625 231.15625 297.546875 232.894531 C 296.828125 234.628906 296.070312 236.347656 295.269531 238.046875 C 294.464844 239.742188 293.625 241.421875 292.738281 243.078125 C 291.855469 244.734375 290.929688 246.371094 289.964844 247.980469 C 289.003906 249.59375 288 251.179688 286.957031 252.742188 C 285.914062 254.304688 284.835938 255.839844 283.71875 257.347656 C 282.601562 258.855469 281.449219 260.335938 280.257812 261.789062 C 279.070312 263.242188 277.84375 264.664062 276.585938 266.058594 C 275.324219 267.449219 274.03125 268.808594 272.707031 270.136719 C 271.378906 271.464844 270.023438 272.761719 268.632812 274.023438 C 267.242188 275.285156 265.824219 276.511719 264.375 277.703125 C 262.925781 278.894531 261.445312 280.050781 259.941406 281.171875 C 258.433594 282.289062 256.902344 283.371094 255.339844 284.414062 C 253.78125 285.457031 252.199219 286.464844 250.589844 287.429688 C 248.980469 288.394531 247.351562 289.320312 245.695312 290.207031 C 244.042969 291.09375 242.367188 291.9375 240.671875 292.738281 C 238.976562 293.542969 237.261719 294.304688 235.53125 295.023438 C 233.796875 295.742188 232.046875 296.417969 230.28125 297.050781 C 228.515625 297.683594 226.734375 298.273438 224.941406 298.820312 C 223.148438 299.363281 221.339844 299.863281 219.519531 300.320312 C 217.703125 300.777344 215.871094 301.1875 214.03125 301.554688 C 212.195312 301.921875 210.347656 302.242188 208.492188 302.519531 C 206.636719 302.792969 204.773438 303.023438 202.910156 303.207031 C 201.042969 303.394531 199.171875 303.53125 197.300781 303.625 C 195.425781 303.714844 193.550781 303.761719 191.675781 303.761719 C 189.800781 303.761719 187.925781 303.714844 186.054688 303.625 C 184.179688 303.53125 182.3125 303.394531 180.445312 303.207031 C 178.578125 303.023438 176.71875 302.792969 174.863281 302.519531 C 173.007812 302.242188 171.160156 301.921875 169.320312 301.554688 C 167.480469 301.1875 165.652344 300.777344 163.832031 300.320312 C 162.015625 299.863281 160.207031 299.363281 158.414062 298.820312 C 156.617188 298.273438 154.835938 297.683594 153.070312 297.050781 C 151.304688 296.417969 149.558594 295.742188 147.824219 295.023438 C 146.089844 294.304688 144.378906 293.542969 142.683594 292.738281 C 140.988281 291.9375 139.3125 291.09375 137.65625 290.207031 C 136.003906 289.320312 134.371094 288.394531 132.765625 287.429688 C 131.15625 286.464844 129.570312 285.457031 128.011719 284.414062 C 126.453125 283.371094 124.921875 282.289062 123.414062 281.171875 C 121.90625 280.050781 120.429688 278.894531 118.980469 277.703125 C 117.53125 276.511719 116.109375 275.285156 114.722656 274.023438 C 113.332031 272.761719 111.972656 271.464844 110.648438 270.136719 C 109.320312 268.808594 108.027344 267.449219 106.769531 266.058594 C 105.507812 264.664062 104.285156 263.242188 103.09375 261.789062 C 101.90625 260.335938 100.753906 258.855469 99.636719 257.347656 C 98.519531 255.839844 97.4375 254.304688 96.394531 252.742188 C 95.355469 251.179688 94.351562 249.59375 93.386719 247.980469 C 92.421875 246.371094 91.5 244.734375 90.613281 243.078125 C 89.730469 241.421875 88.886719 239.742188 88.085938 238.046875 C 87.285156 236.347656 86.523438 234.628906 85.808594 232.894531 C 85.089844 231.15625 84.414062 229.40625 83.78125 227.636719 C 83.152344 225.867188 82.5625 224.085938 82.019531 222.285156 C 81.472656 220.488281 80.972656 218.679688 80.519531 216.855469 C 80.0625 215.035156 79.652344 213.199219 79.285156 211.359375 C 78.917969 209.515625 78.597656 207.664062 78.324219 205.804688 C 78.050781 203.949219 77.820312 202.082031 77.636719 200.214844 C 77.453125 198.34375 77.3125 196.472656 77.222656 194.59375 C 77.128906 192.71875 77.082031 190.839844 77.082031 188.960938 C 77.082031 187.082031 77.128906 185.207031 77.222656 183.328125 C 77.3125 181.453125 77.453125 179.578125 77.636719 177.710938 C 77.820312 175.839844 78.050781 173.976562 78.324219 172.117188 C 78.597656 170.257812 78.917969 168.40625 79.285156 166.566406 C 79.652344 164.722656 80.0625 162.890625 80.519531 161.066406 C 80.972656 159.246094 81.472656 157.433594 82.019531 155.636719 C 82.5625 153.839844 83.152344 152.054688 83.78125 150.285156 C 84.414062 148.519531 85.089844 146.765625 85.808594 145.03125 C 86.523438 143.292969 87.285156 141.578125 88.085938 139.878906 C 88.886719 138.179688 89.730469 136.503906 90.613281 134.84375 C 91.5 133.1875 92.421875 131.554688 93.386719 129.941406 C 94.351562 128.332031 95.355469 126.746094 96.394531 125.183594 C 97.4375 123.621094 98.519531 122.085938 99.636719 120.574219 C 100.753906 119.066406 101.90625 117.585938 103.09375 116.132812 C 104.285156 114.679688 105.507812 113.257812 106.769531 111.867188 C 108.027344 110.472656 109.320312 109.113281 110.648438 107.785156 C 111.972656 106.457031 113.332031 105.164062 114.722656 103.902344 C 116.109375 102.640625 117.53125 101.410156 118.980469 100.21875 C 120.429688 99.027344 121.90625 97.871094 123.414062 96.753906 C 124.921875 95.632812 126.453125 94.550781 128.011719 93.507812 C 129.570312 92.464844 131.15625 91.460938 132.765625 90.496094 C 134.371094 89.527344 136.003906 88.601562 137.65625 87.71875 C 139.3125 86.832031 140.988281 85.988281 142.683594 85.183594 C 144.378906 84.378906 146.089844 83.621094 147.824219 82.898438 C 149.558594 82.179688 151.304688 81.503906 153.070312 80.871094 C 154.835938 80.238281 156.617188 79.648438 158.414062 79.105469 C 160.207031 78.558594 162.015625 78.058594 163.832031 77.601562 C 165.652344 77.144531 167.480469 76.734375 169.320312 76.367188 C 171.160156 76 173.007812 75.679688 174.863281 75.402344 C 176.71875 75.128906 178.578125 74.898438 180.445312 74.714844 C 182.3125 74.53125 184.179688 74.390625 186.054688 74.300781 C 187.925781 74.207031 189.800781 74.160156 191.675781 74.160156 C 193.550781 74.160156 195.425781 74.207031 197.300781 74.300781 C 199.171875 74.390625 201.042969 74.53125 202.910156 74.714844 C 204.773438 74.898438 206.636719 75.128906 208.492188 75.402344 C 210.347656 75.679688 212.195312 76 214.03125 76.367188 C 215.871094 76.734375 217.703125 77.144531 219.519531 77.601562 C 221.339844 78.058594 223.148438 78.558594 224.941406 79.105469 C 226.734375 79.648438 228.515625 80.238281 230.28125 80.871094 C 232.046875 81.503906 233.796875 82.179688 235.53125 82.898438 C 237.261719 83.621094 238.976562 84.378906 240.671875 85.183594 C 242.367188 85.988281 244.042969 86.832031 245.695312 87.71875 C 247.351562 88.601562 248.980469 89.527344 250.589844 90.496094 C 252.199219 91.460938 253.78125 92.464844 255.339844 93.507812 C 256.902344 94.550781 258.433594 95.632812 259.941406 96.753906 C 261.445312 97.871094 262.925781 99.027344 264.375 100.21875 C 265.824219 101.410156 267.242188 102.640625 268.632812 103.902344 C 270.023438 105.164062 271.378906 106.457031 272.707031 107.785156 C 274.03125 109.113281 275.324219 110.472656 276.585938 111.867188 C 277.84375 113.257812 279.070312 114.679688 280.257812 116.132812 C 281.449219 117.585938 282.601562 119.066406 283.71875 120.574219 C 284.835938 122.085938 285.914062 123.621094 286.957031 125.183594 C 288 126.746094 289.003906 128.332031 289.964844 129.941406 C 290.929688 131.554688 291.855469 133.1875 292.738281 134.84375 C 293.625 136.503906 294.464844 138.179688 295.269531 139.878906 C 296.070312 141.578125 296.828125 143.292969 297.546875 145.03125 C 298.265625 146.765625 298.941406 148.519531 299.570312 150.285156 C 300.203125 152.054688 300.792969 153.839844 301.335938 155.636719 C 301.878906 157.433594 302.378906 159.246094 302.835938 161.066406 C 303.292969 162.890625 303.703125 164.722656 304.066406 166.566406 C 304.433594 168.40625 304.753906 170.257812 305.03125 172.117188 C 305.304688 173.976562 305.535156 175.839844 305.71875 177.710938 C 305.902344 179.578125 306.039062 181.453125 306.132812 183.328125 C 306.222656 185.207031 306.269531 187.082031 306.269531 188.960938 Z M 306.269531 188.960938 " fill-opacity="1" fill-rule="nonzero"/><path fill="#ffffff" d="M 181.734375 153.019531 C 181.734375 153.933594 181.6875 154.84375 181.597656 155.753906 C 181.511719 156.660156 181.375 157.5625 181.199219 158.460938 C 181.019531 159.355469 180.800781 160.238281 180.535156 161.113281 C 180.269531 161.988281 179.964844 162.847656 179.613281 163.691406 C 179.265625 164.535156 178.875 165.359375 178.445312 166.164062 C 178.015625 166.96875 177.550781 167.75 177.042969 168.511719 C 176.535156 169.269531 175.992188 170 175.414062 170.707031 C 174.835938 171.414062 174.226562 172.089844 173.582031 172.734375 C 172.9375 173.382812 172.261719 173.992188 171.558594 174.574219 C 170.851562 175.152344 170.121094 175.695312 169.363281 176.203125 C 168.605469 176.710938 167.824219 177.179688 167.019531 177.609375 C 166.21875 178.039062 165.394531 178.429688 164.550781 178.777344 C 163.710938 179.128906 162.851562 179.4375 161.980469 179.699219 C 161.109375 179.964844 160.226562 180.1875 159.332031 180.367188 C 158.4375 180.542969 157.535156 180.679688 156.628906 180.765625 C 155.722656 180.855469 154.8125 180.902344 153.902344 180.902344 C 152.988281 180.902344 152.082031 180.855469 151.171875 180.765625 C 150.265625 180.679688 149.367188 180.542969 148.472656 180.367188 C 147.578125 180.1875 146.695312 179.964844 145.820312 179.699219 C 144.949219 179.4375 144.09375 179.128906 143.25 178.777344 C 142.410156 178.429688 141.585938 178.039062 140.78125 177.609375 C 139.976562 177.179688 139.195312 176.710938 138.4375 176.203125 C 137.679688 175.695312 136.949219 175.152344 136.246094 174.574219 C 135.539062 173.992188 134.867188 173.382812 134.222656 172.734375 C 133.578125 172.089844 132.964844 171.414062 132.386719 170.707031 C 131.808594 170 131.265625 169.269531 130.761719 168.511719 C 130.253906 167.75 129.785156 166.96875 129.355469 166.164062 C 128.925781 165.359375 128.535156 164.535156 128.1875 163.691406 C 127.839844 162.847656 127.53125 161.988281 127.269531 161.113281 C 127.003906 160.238281 126.78125 159.355469 126.605469 158.460938 C 126.425781 157.5625 126.292969 156.660156 126.203125 155.753906 C 126.113281 154.84375 126.070312 153.933594 126.070312 153.019531 C 126.070312 152.105469 126.113281 151.195312 126.203125 150.285156 C 126.292969 149.378906 126.425781 148.476562 126.605469 147.578125 C 126.78125 146.683594 127.003906 145.800781 127.269531 144.925781 C 127.53125 144.050781 127.839844 143.191406 128.1875 142.347656 C 128.535156 141.507812 128.925781 140.679688 129.355469 139.875 C 129.785156 139.070312 130.253906 138.289062 130.761719 137.527344 C 131.265625 136.769531 131.808594 136.039062 132.386719 135.332031 C 132.964844 134.625 133.578125 133.949219 134.222656 133.304688 C 134.867188 132.660156 135.539062 132.046875 136.246094 131.464844 C 136.949219 130.886719 137.679688 130.34375 138.4375 129.835938 C 139.195312 129.328125 139.976562 128.859375 140.78125 128.429688 C 141.585938 128 142.410156 127.609375 143.25 127.261719 C 144.09375 126.910156 144.949219 126.601562 145.820312 126.339844 C 146.695312 126.074219 147.578125 125.851562 148.472656 125.671875 C 149.367188 125.496094 150.265625 125.359375 151.171875 125.273438 C 152.082031 125.183594 152.988281 125.136719 153.902344 125.136719 C 154.8125 125.136719 155.722656 125.183594 156.628906 125.273438 C 157.535156 125.359375 158.4375 125.496094 159.332031 125.671875 C 160.226562 125.851562 161.109375 126.074219 161.980469 126.339844 C 162.851562 126.601562 163.710938 126.910156 164.550781 127.261719 C 165.394531 127.609375 166.21875 128 167.019531 128.429688 C 167.824219 128.859375 168.605469 129.328125 169.363281 129.835938 C 170.121094 130.34375 170.851562 130.886719 171.558594 131.464844 C 172.261719 132.046875 172.9375 132.660156 173.582031 133.304688 C 174.226562 133.949219 174.835938 134.625 175.414062 135.332031 C 175.992188 136.039062 176.535156 136.769531 177.042969 137.527344 C 177.550781 138.289062 178.015625 139.070312 178.445312 139.875 C 178.875 140.679688 179.265625 141.507812 179.613281 142.347656 C 179.964844 143.191406 180.269531 144.050781 180.535156 144.925781 C 180.800781 145.800781 181.019531 146.683594 181.199219 147.578125 C 181.375 148.476562 181.511719 149.378906 181.597656 150.285156 C 181.6875 151.195312 181.734375 152.105469 181.734375 153.019531 Z M 181.734375 153.019531 " fill-opacity="1" fill-rule="nonzero"/><path fill="#ffffff" d="M 257.3125 153.019531 C 257.3125 153.933594 257.265625 154.84375 257.175781 155.753906 C 257.089844 156.660156 256.953125 157.5625 256.777344 158.460938 C 256.597656 159.355469 256.378906 160.238281 256.113281 161.113281 C 255.847656 161.988281 255.542969 162.847656 255.191406 163.691406 C 254.84375 164.535156 254.453125 165.359375 254.023438 166.164062 C 253.59375 166.96875 253.128906 167.75 252.621094 168.511719 C 252.113281 169.269531 251.570312 170 250.992188 170.707031 C 250.414062 171.414062 249.804688 172.089844 249.160156 172.734375 C 248.515625 173.382812 247.839844 173.992188 247.136719 174.574219 C 246.429688 175.152344 245.699219 175.695312 244.941406 176.203125 C 244.183594 176.710938 243.402344 177.179688 242.597656 177.609375 C 241.796875 178.039062 240.972656 178.429688 240.128906 178.777344 C 239.289062 179.128906 238.429688 179.4375 237.558594 179.699219 C 236.6875 179.964844 235.804688 180.1875 234.910156 180.367188 C 234.015625 180.542969 233.113281 180.679688 232.207031 180.765625 C 231.300781 180.855469 230.390625 180.902344 229.480469 180.902344 C 228.566406 180.902344 227.660156 180.855469 226.75 180.765625 C 225.84375 180.679688 224.945312 180.542969 224.050781 180.367188 C 223.15625 180.1875 222.273438 179.964844 221.398438 179.699219 C 220.527344 179.4375 219.671875 179.128906 218.828125 178.777344 C 217.988281 178.429688 217.164062 178.039062 216.359375 177.609375 C 215.554688 177.179688 214.773438 176.710938 214.015625 176.203125 C 213.257812 175.695312 212.527344 175.152344 211.824219 174.574219 C 211.117188 173.992188 210.445312 173.382812 209.800781 172.734375 C 209.15625 172.089844 208.542969 171.414062 207.964844 170.707031 C 207.386719 170 206.84375 169.269531 206.339844 168.511719 C 205.832031 167.75 205.363281 166.96875 204.933594 166.164062 C 204.503906 165.359375 204.113281 164.535156 203.765625 163.691406 C 203.417969 162.847656 203.109375 161.988281 202.847656 161.113281 C 202.582031 160.238281 202.359375 159.355469 202.183594 158.460938 C 202.003906 157.5625 201.871094 156.660156 201.78125 155.753906 C 201.691406 154.84375 201.648438 153.933594 201.648438 153.019531 C 201.648438 152.105469 201.691406 151.195312 201.78125 150.285156 C 201.871094 149.378906 202.003906 148.476562 202.183594 147.578125 C 202.359375 146.683594 202.582031 145.800781 202.847656 144.925781 C 203.109375 144.050781 203.417969 143.191406 203.765625 142.347656 C 204.113281 141.507812 204.503906 140.679688 204.933594 139.875 C 205.363281 139.070312 205.832031 138.289062 206.339844 137.527344 C 206.84375 136.769531 207.386719 136.039062 207.964844 135.332031 C 208.542969 134.625 209.15625 133.949219 209.800781 133.304688 C 210.445312 132.660156 211.117188 132.046875 211.824219 131.464844 C 212.527344 130.886719 213.257812 130.34375 214.015625 129.835938 C 214.773438 129.328125 215.554688 128.859375 216.359375 128.429688 C 217.164062 128 217.988281 127.609375 218.828125 127.261719 C 219.671875 126.910156 220.527344 126.601562 221.398438 126.339844 C 222.273438 126.074219 223.15625 125.851562 224.050781 125.671875 C 224.945312 125.496094 225.84375 125.359375 226.75 125.273438 C 227.660156 125.183594 228.566406 125.136719 229.480469 125.136719 C 230.390625 125.136719 231.300781 125.183594 232.207031 125.273438 C 233.113281 125.359375 234.015625 125.496094 234.910156 125.671875 C 235.804688 125.851562 236.6875 126.074219 237.558594 126.339844 C 238.429688 126.601562 239.289062 126.910156 240.128906 127.261719 C 240.972656 127.609375 241.796875 128 242.597656 128.429688 C 243.402344 128.859375 244.183594 129.328125 244.941406 129.835938 C 245.699219 130.34375 246.429688 130.886719 247.136719 131.464844 C 247.839844 132.046875 248.515625 132.660156 249.160156 133.304688 C 249.804688 133.949219 250.414062 134.625 250.992188 135.332031 C 251.570312 136.039062 252.113281 136.769531 252.621094 137.527344 C 253.128906 138.289062 253.59375 139.070312 254.023438 139.875 C 254.453125 140.679688 254.84375 141.507812 255.191406 142.347656 C 255.542969 143.191406 255.847656 144.050781 256.113281 144.925781 C 256.378906 145.800781 256.597656 146.683594 256.777344 147.578125 C 256.953125 148.476562 257.089844 149.378906 257.175781 150.285156 C 257.265625 151.195312 257.3125 152.105469 257.3125 153.019531 Z M 257.3125 153.019531 " fill-opacity="1" fill-rule="nonzero"/><path fill="#ffffff" d="M 219.507812 239.324219 C 219.507812 240.234375 219.464844 241.148438 219.375 242.054688 C 219.285156 242.964844 219.152344 243.867188 218.972656 244.761719 C 218.796875 245.65625 218.574219 246.542969 218.308594 247.417969 C 218.046875 248.289062 217.738281 249.148438 217.390625 249.992188 C 217.042969 250.835938 216.652344 251.660156 216.222656 252.464844 C 215.792969 253.269531 215.324219 254.054688 214.816406 254.8125 C 214.3125 255.570312 213.769531 256.304688 213.191406 257.011719 C 212.613281 257.714844 212 258.390625 211.355469 259.039062 C 210.710938 259.683594 210.039062 260.296875 209.332031 260.875 C 208.628906 261.453125 207.898438 262 207.140625 262.503906 C 206.382812 263.011719 205.601562 263.480469 204.796875 263.914062 C 203.992188 264.34375 203.167969 264.734375 202.328125 265.082031 C 201.484375 265.429688 200.628906 265.738281 199.757812 266.003906 C 198.882812 266.269531 198 266.492188 197.105469 266.667969 C 196.210938 266.847656 195.3125 266.980469 194.40625 267.070312 C 193.496094 267.160156 192.589844 267.203125 191.675781 267.203125 C 190.765625 267.203125 189.855469 267.160156 188.949219 267.070312 C 188.042969 266.980469 187.140625 266.847656 186.246094 266.667969 C 185.351562 266.492188 184.46875 266.269531 183.597656 266.003906 C 182.726562 265.738281 181.867188 265.429688 181.027344 265.082031 C 180.183594 264.734375 179.359375 264.34375 178.558594 263.914062 C 177.753906 263.480469 176.972656 263.011719 176.214844 262.503906 C 175.457031 262 174.726562 261.453125 174.019531 260.875 C 173.316406 260.296875 172.640625 259.683594 171.996094 259.039062 C 171.351562 258.390625 170.742188 257.714844 170.164062 257.011719 C 169.585938 256.304688 169.042969 255.570312 168.535156 254.8125 C 168.027344 254.054688 167.5625 253.269531 167.132812 252.464844 C 166.703125 251.660156 166.3125 250.835938 165.964844 249.992188 C 165.613281 249.148438 165.308594 248.289062 165.042969 247.417969 C 164.777344 246.542969 164.558594 245.65625 164.378906 244.761719 C 164.203125 243.867188 164.066406 242.964844 163.980469 242.054688 C 163.890625 241.148438 163.84375 240.234375 163.84375 239.324219 C 163.84375 238.410156 163.890625 237.5 163.980469 236.589844 C 164.066406 235.679688 164.203125 234.777344 164.378906 233.882812 C 164.558594 232.988281 164.777344 232.101562 165.042969 231.230469 C 165.308594 230.355469 165.613281 229.496094 165.964844 228.652344 C 166.3125 227.808594 166.703125 226.984375 167.132812 226.179688 C 167.5625 225.375 168.027344 224.589844 168.535156 223.832031 C 169.042969 223.074219 169.585938 222.339844 170.164062 221.632812 C 170.742188 220.929688 171.351562 220.253906 171.996094 219.605469 C 172.640625 218.960938 173.316406 218.347656 174.019531 217.769531 C 174.726562 217.191406 175.457031 216.648438 176.214844 216.140625 C 176.972656 215.632812 177.753906 215.164062 178.558594 214.734375 C 179.359375 214.300781 180.183594 213.914062 181.027344 213.5625 C 181.867188 213.214844 182.726562 212.90625 183.597656 212.640625 C 184.46875 212.375 185.351562 212.152344 186.246094 211.976562 C 187.140625 211.796875 188.042969 211.664062 188.949219 211.574219 C 189.855469 211.484375 190.765625 211.441406 191.675781 211.441406 C 192.589844 211.441406 193.496094 211.484375 194.40625 211.574219 C 195.3125 211.664062 196.210938 211.796875 197.105469 211.976562 C 198 212.152344 198.882812 212.375 199.757812 212.640625 C 200.628906 212.90625 201.484375 213.214844 202.328125 213.5625 C 203.167969 213.914062 203.992188 214.300781 204.796875 214.734375 C 205.601562 215.164062 206.382812 215.632812 207.140625 216.140625 C 207.898438 216.648438 208.628906 217.191406 209.332031 217.769531 C 210.039062 218.347656 210.710938 218.960938 211.355469 219.605469 C 212 220.253906 212.613281 220.929688 213.191406 221.632812 C 213.769531 222.339844 214.3125 223.074219 214.816406 223.832031 C 215.324219 224.589844 215.792969 225.375 216.222656 226.179688 C 216.652344 226.984375 217.042969 227.808594 217.390625 228.652344 C 217.738281 229.496094 218.046875 230.355469 218.308594 231.230469 C 218.574219 232.101562 218.796875 232.988281 218.972656 233.882812 C 219.152344 234.777344 219.285156 235.679688 219.375 236.589844 C 219.464844 237.5 219.507812 238.410156 219.507812 239.324219 Z M 219.507812 239.324219 " fill-opacity="1" fill-rule="nonzero"/><path fill="#ffffff" d="M 150.570312 216.253906 C 150.570312 216.832031 150.539062 217.410156 150.484375 217.988281 C 150.425781 218.5625 150.34375 219.132812 150.230469 219.703125 C 150.117188 220.269531 149.976562 220.828125 149.808594 221.382812 C 149.640625 221.9375 149.445312 222.480469 149.226562 223.015625 C 149.003906 223.550781 148.757812 224.070312 148.488281 224.582031 C 148.214844 225.09375 147.917969 225.585938 147.597656 226.070312 C 147.277344 226.550781 146.933594 227.015625 146.566406 227.460938 C 146.199219 227.910156 145.8125 228.335938 145.402344 228.746094 C 144.996094 229.15625 144.570312 229.542969 144.121094 229.910156 C 143.675781 230.277344 143.210938 230.621094 142.734375 230.941406 C 142.253906 231.261719 141.757812 231.5625 141.25 231.832031 C 140.738281 232.105469 140.21875 232.351562 139.683594 232.574219 C 139.152344 232.796875 138.609375 232.992188 138.054688 233.160156 C 137.503906 233.328125 136.941406 233.464844 136.375 233.578125 C 135.808594 233.691406 135.238281 233.777344 134.664062 233.832031 C 134.089844 233.890625 133.515625 233.917969 132.9375 233.917969 C 132.359375 233.917969 131.785156 233.890625 131.207031 233.832031 C 130.632812 233.777344 130.0625 233.691406 129.496094 233.578125 C 128.929688 233.464844 128.371094 233.328125 127.820312 233.160156 C 127.265625 232.992188 126.722656 232.796875 126.191406 232.574219 C 125.65625 232.351562 125.136719 232.105469 124.625 231.832031 C 124.117188 231.5625 123.621094 231.261719 123.140625 230.941406 C 122.660156 230.621094 122.199219 230.277344 121.75 229.910156 C 121.304688 229.542969 120.878906 229.15625 120.46875 228.746094 C 120.0625 228.335938 119.675781 227.910156 119.308594 227.460938 C 118.941406 227.015625 118.597656 226.550781 118.277344 226.070312 C 117.957031 225.585938 117.660156 225.09375 117.386719 224.582031 C 117.113281 224.070312 116.867188 223.550781 116.648438 223.015625 C 116.425781 222.480469 116.230469 221.9375 116.066406 221.382812 C 115.898438 220.828125 115.757812 220.269531 115.644531 219.703125 C 115.53125 219.132812 115.445312 218.5625 115.390625 217.988281 C 115.332031 217.410156 115.304688 216.832031 115.304688 216.253906 C 115.304688 215.675781 115.332031 215.101562 115.390625 214.523438 C 115.445312 213.949219 115.53125 213.375 115.644531 212.808594 C 115.757812 212.242188 115.898438 211.679688 116.066406 211.128906 C 116.230469 210.574219 116.425781 210.03125 116.648438 209.496094 C 116.867188 208.960938 117.113281 208.4375 117.386719 207.929688 C 117.660156 207.417969 117.957031 206.921875 118.277344 206.441406 C 118.597656 205.960938 118.941406 205.496094 119.308594 205.050781 C 119.675781 204.601562 120.0625 204.175781 120.46875 203.765625 C 120.878906 203.355469 121.304688 202.96875 121.75 202.601562 C 122.199219 202.234375 122.660156 201.890625 123.140625 201.570312 C 123.621094 201.246094 124.117188 200.949219 124.625 200.675781 C 125.136719 200.40625 125.65625 200.15625 126.191406 199.9375 C 126.722656 199.714844 127.265625 199.519531 127.820312 199.351562 C 128.371094 199.183594 128.929688 199.042969 129.496094 198.929688 C 130.0625 198.820312 130.632812 198.734375 131.207031 198.675781 C 131.785156 198.621094 132.359375 198.59375 132.9375 198.59375 C 133.515625 198.59375 134.089844 198.621094 134.664062 198.675781 C 135.238281 198.734375 135.808594 198.820312 136.375 198.929688 C 136.941406 199.042969 137.503906 199.183594 138.054688 199.351562 C 138.609375 199.519531 139.152344 199.714844 139.683594 199.9375 C 140.21875 200.15625 140.738281 200.40625 141.25 200.675781 C 141.757812 200.949219 142.253906 201.246094 142.734375 201.570312 C 143.210938 201.890625 143.675781 202.234375 144.121094 202.601562 C 144.570312 202.96875 144.996094 203.355469 145.402344 203.765625 C 145.8125 204.175781 146.199219 204.601562 146.566406 205.050781 C 146.933594 205.496094 147.277344 205.960938 147.597656 206.441406 C 147.917969 206.921875 148.214844 207.417969 148.488281 207.929688 C 148.757812 208.4375 149.003906 208.960938 149.226562 209.496094 C 149.445312 210.03125 149.640625 210.574219 149.808594 211.128906 C 149.976562 211.679688 150.117188 212.242188 150.230469 212.808594 C 150.34375 213.375 150.425781 213.949219 150.484375 214.523438 C 150.539062 215.101562 150.570312 215.675781 150.570312 216.253906 Z M 150.570312 216.253906 " fill-opacity="1" fill-rule="nonzero"/><path fill="#ffffff" d="M 268.046875 216.253906 C 268.046875 216.832031 268.019531 217.410156 267.964844 217.988281 C 267.90625 218.5625 267.820312 219.132812 267.710938 219.703125 C 267.597656 220.269531 267.457031 220.828125 267.289062 221.382812 C 267.121094 221.9375 266.925781 222.480469 266.707031 223.015625 C 266.484375 223.550781 266.238281 224.070312 265.964844 224.582031 C 265.695312 225.09375 265.398438 225.585938 265.078125 226.070312 C 264.757812 226.550781 264.414062 227.015625 264.046875 227.460938 C 263.679688 227.910156 263.292969 228.335938 262.882812 228.746094 C 262.476562 229.15625 262.046875 229.542969 261.601562 229.910156 C 261.15625 230.277344 260.691406 230.621094 260.210938 230.941406 C 259.730469 231.261719 259.238281 231.5625 258.726562 231.832031 C 258.21875 232.105469 257.699219 232.351562 257.164062 232.574219 C 256.628906 232.796875 256.085938 232.992188 255.535156 233.160156 C 254.984375 233.328125 254.421875 233.464844 253.855469 233.578125 C 253.289062 233.691406 252.71875 233.777344 252.144531 233.832031 C 251.570312 233.890625 250.996094 233.917969 250.417969 233.917969 C 249.839844 233.917969 249.261719 233.890625 248.6875 233.832031 C 248.113281 233.777344 247.542969 233.691406 246.976562 233.578125 C 246.410156 233.464844 245.851562 233.328125 245.296875 233.160156 C 244.746094 232.992188 244.203125 232.796875 243.667969 232.574219 C 243.136719 232.351562 242.613281 232.105469 242.105469 231.832031 C 241.597656 231.5625 241.101562 231.261719 240.621094 230.941406 C 240.140625 230.621094 239.679688 230.277344 239.230469 229.910156 C 238.785156 229.542969 238.359375 229.15625 237.949219 228.746094 C 237.542969 228.335938 237.152344 227.910156 236.789062 227.460938 C 236.421875 227.015625 236.078125 226.550781 235.757812 226.070312 C 235.4375 225.585938 235.140625 225.09375 234.867188 224.582031 C 234.59375 224.070312 234.347656 223.550781 234.128906 223.015625 C 233.90625 222.480469 233.710938 221.9375 233.542969 221.382812 C 233.378906 220.828125 233.238281 220.269531 233.125 219.703125 C 233.011719 219.132812 232.925781 218.5625 232.871094 217.988281 C 232.8125 217.410156 232.785156 216.832031 232.785156 216.253906 C 232.785156 215.675781 232.8125 215.101562 232.871094 214.523438 C 232.925781 213.949219 233.011719 213.375 233.125 212.808594 C 233.238281 212.242188 233.378906 211.679688 233.542969 211.128906 C 233.710938 210.574219 233.90625 210.03125 234.128906 209.496094 C 234.347656 208.960938 234.59375 208.4375 234.867188 207.929688 C 235.140625 207.417969 235.4375 206.921875 235.757812 206.441406 C 236.078125 205.960938 236.421875 205.496094 236.789062 205.050781 C 237.152344 204.601562 237.542969 204.175781 237.949219 203.765625 C 238.359375 203.355469 238.785156 202.96875 239.230469 202.601562 C 239.679688 202.234375 240.140625 201.890625 240.621094 201.570312 C 241.101562 201.246094 241.597656 200.949219 242.105469 200.675781 C 242.613281 200.40625 243.136719 200.15625 243.667969 199.9375 C 244.203125 199.714844 244.746094 199.519531 245.296875 199.351562 C 245.851562 199.183594 246.410156 199.042969 246.976562 198.929688 C 247.542969 198.820312 248.113281 198.734375 248.6875 198.675781 C 249.261719 198.621094 249.839844 198.59375 250.417969 198.59375 C 250.996094 198.59375 251.570312 198.621094 252.144531 198.675781 C 252.71875 198.734375 253.289062 198.820312 253.855469 198.929688 C 254.421875 199.042969 254.984375 199.183594 255.535156 199.351562 C 256.085938 199.519531 256.628906 199.714844 257.164062 199.9375 C 257.699219 200.15625 258.21875 200.40625 258.726562 200.675781 C 259.238281 200.949219 259.730469 201.246094 260.210938 201.570312 C 260.691406 201.890625 261.15625 202.234375 261.601562 202.601562 C 262.046875 202.96875 262.476562 203.355469 262.882812 203.765625 C 263.292969 204.175781 263.679688 204.601562 264.046875 205.050781 C 264.414062 205.496094 264.757812 205.960938 265.078125 206.441406 C 265.398438 206.921875 265.695312 207.417969 265.964844 207.929688 C 266.238281 208.4375 266.484375 208.960938 266.707031 209.496094 C 266.925781 210.03125 267.121094 210.574219 267.289062 211.128906 C 267.457031 211.679688 267.597656 212.242188 267.710938 212.808594 C 267.820312 213.375 267.90625 213.949219 267.964844 214.523438 C 268.019531 215.101562 268.046875 215.675781 268.046875 216.253906 Z M 268.046875 216.253906 " fill-opacity="1" fill-rule="nonzero"/><path fill="#1370f0" d="M 152.488281 327.617188 L 231.371094 327.617188 L 231.371094 357.667969 L 152.488281 357.667969 Z M 152.488281 327.617188 " fill-opacity="1" fill-rule="nonzero"/><path fill="#1370f0" d="M 166.589844 53.304688 L 141.660156 53.304688 L 152.488281 23.253906 L 166.589844 23.253906 Z M 166.589844 53.304688 " fill-opacity="1" fill-rule="nonzero"/><path fill="#1370f0" d="M 236.457031 53.304688 L 212.292969 53.304688 L 212.292969 23.253906 L 226.316406 23.253906 Z M 236.457031 53.304688 " fill-opacity="1" fill-rule="nonzero"/><path fill="#1370f0" d="M 152.488281 13.695312 L 226.316406 13.695312 L 226.316406 28.71875 L 152.488281 28.71875 Z M 152.488281 13.695312 " fill-opacity="1" fill-rule="nonzero"/></svg>