<svg xmlns="http://www.w3.org/2000/svg" xmlns:xlink="http://www.w3.org/1999/xlink" width="500" zoomAndPan="magnify" viewBox="0 0 375 374.999991" height="500" preserveAspectRatio="xMidYMid meet" version="1.0"><defs><clipPath id="4621a28c00"><path d="M 28.6875 18.109375 L 367.6875 18.109375 L 367.6875 357.109375 L 28.6875 357.109375 Z M 28.6875 18.109375 " clip-rule="nonzero"/></clipPath><clipPath id="ae0ad336ee"><path d="M 178.828125 101.167969 L 217.078125 101.167969 L 217.078125 139.417969 L 178.828125 139.417969 Z M 178.828125 101.167969 " clip-rule="nonzero"/></clipPath><clipPath id="febe03c96d"><path d="M 88.574219 161.320312 L 141.074219 161.320312 L 141.074219 213.820312 L 88.574219 213.820312 Z M 88.574219 161.320312 " clip-rule="nonzero"/></clipPath><clipPath id="f36b06c585"><path d="M 255.507812 161.320312 L 308.007812 161.320312 L 308.007812 213.820312 L 255.507812 213.820312 Z M 255.507812 161.320312 " clip-rule="nonzero"/></clipPath></defs><g clip-path="url(#4621a28c00)"><path fill="#1370f0" d="M 198.1875 18.109375 C 104.539062 18.109375 28.6875 93.960938 28.6875 187.609375 C 28.6875 281.257812 104.539062 357.109375 198.1875 357.109375 C 291.835938 357.109375 367.6875 281.257812 367.6875 187.609375 C 367.6875 93.960938 291.835938 18.109375 198.1875 18.109375 Z M 198.1875 323.207031 C 123.265625 323.207031 62.585938 262.527344 62.585938 187.609375 C 62.585938 112.691406 123.265625 52.007812 198.1875 52.007812 C 273.105469 52.007812 333.785156 112.691406 333.785156 187.609375 C 333.785156 262.527344 273.105469 323.207031 198.1875 323.207031 Z M 198.1875 323.207031 " fill-opacity="1" fill-rule="nonzero"/></g><g clip-path="url(#ae0ad336ee)"><path fill="#04589b" d="M 217.078125 120.292969 C 217.078125 120.921875 217.046875 121.546875 216.988281 122.167969 C 216.925781 122.792969 216.832031 123.410156 216.710938 124.027344 C 216.589844 124.640625 216.4375 125.246094 216.253906 125.847656 C 216.074219 126.445312 215.863281 127.035156 215.621094 127.613281 C 215.382812 128.191406 215.117188 128.757812 214.820312 129.308594 C 214.523438 129.863281 214.203125 130.398438 213.855469 130.921875 C 213.507812 131.441406 213.136719 131.941406 212.738281 132.425781 C 212.339844 132.910156 211.921875 133.375 211.476562 133.816406 C 211.035156 134.261719 210.570312 134.679688 210.085938 135.078125 C 209.601562 135.476562 209.101562 135.847656 208.578125 136.195312 C 208.058594 136.542969 207.523438 136.867188 206.96875 137.160156 C 206.417969 137.457031 205.851562 137.722656 205.273438 137.964844 C 204.695312 138.203125 204.105469 138.414062 203.503906 138.597656 C 202.90625 138.777344 202.300781 138.929688 201.683594 139.050781 C 201.070312 139.175781 200.453125 139.265625 199.828125 139.328125 C 199.203125 139.390625 198.582031 139.417969 197.953125 139.417969 C 197.328125 139.417969 196.703125 139.390625 196.078125 139.328125 C 195.457031 139.265625 194.835938 139.175781 194.222656 139.050781 C 193.609375 138.929688 193 138.777344 192.402344 138.597656 C 191.804688 138.414062 191.214844 138.203125 190.636719 137.964844 C 190.054688 137.722656 189.492188 137.457031 188.9375 137.160156 C 188.386719 136.867188 187.847656 136.542969 187.328125 136.195312 C 186.808594 135.847656 186.304688 135.476562 185.820312 135.078125 C 185.335938 134.679688 184.875 134.261719 184.429688 133.816406 C 183.988281 133.375 183.566406 132.910156 183.171875 132.425781 C 182.773438 131.941406 182.398438 131.441406 182.050781 130.921875 C 181.703125 130.398438 181.382812 129.863281 181.085938 129.308594 C 180.792969 128.757812 180.523438 128.191406 180.285156 127.613281 C 180.046875 127.035156 179.835938 126.445312 179.652344 125.847656 C 179.46875 125.246094 179.320312 124.640625 179.195312 124.027344 C 179.074219 123.410156 178.980469 122.792969 178.921875 122.167969 C 178.859375 121.546875 178.828125 120.921875 178.828125 120.292969 C 178.828125 119.667969 178.859375 119.042969 178.921875 118.421875 C 178.980469 117.796875 179.074219 117.179688 179.195312 116.5625 C 179.320312 115.949219 179.46875 115.34375 179.652344 114.742188 C 179.835938 114.144531 180.046875 113.554688 180.285156 112.976562 C 180.523438 112.398438 180.792969 111.832031 181.085938 111.277344 C 181.382812 110.726562 181.703125 110.191406 182.050781 109.667969 C 182.398438 109.148438 182.773438 108.644531 183.171875 108.160156 C 183.566406 107.675781 183.988281 107.214844 184.429688 106.769531 C 184.875 106.328125 185.335938 105.910156 185.820312 105.511719 C 186.304688 105.113281 186.808594 104.742188 187.328125 104.394531 C 187.847656 104.042969 188.386719 103.722656 188.9375 103.429688 C 189.492188 103.132812 190.054688 102.863281 190.636719 102.625 C 191.214844 102.386719 191.804688 102.175781 192.402344 101.992188 C 193 101.8125 193.609375 101.660156 194.222656 101.539062 C 194.835938 101.414062 195.457031 101.324219 196.078125 101.261719 C 196.703125 101.199219 197.328125 101.167969 197.953125 101.167969 C 198.582031 101.167969 199.203125 101.199219 199.828125 101.261719 C 200.453125 101.324219 201.070312 101.414062 201.683594 101.539062 C 202.300781 101.660156 202.90625 101.8125 203.503906 101.992188 C 204.105469 102.175781 204.695312 102.386719 205.273438 102.625 C 205.851562 102.863281 206.417969 103.132812 206.96875 103.429688 C 207.523438 103.722656 208.058594 104.042969 208.578125 104.394531 C 209.101562 104.742188 209.601562 105.113281 210.085938 105.511719 C 210.570312 105.910156 211.035156 106.328125 211.476562 106.769531 C 211.921875 107.214844 212.339844 107.675781 212.738281 108.160156 C 213.136719 108.644531 213.507812 109.148438 213.855469 109.667969 C 214.203125 110.191406 214.523438 110.726562 214.820312 111.277344 C 215.117188 111.832031 215.382812 112.398438 215.621094 112.976562 C 215.863281 113.554688 216.074219 114.144531 216.253906 114.742188 C 216.4375 115.34375 216.589844 115.949219 216.710938 116.5625 C 216.832031 117.179688 216.925781 117.796875 216.988281 118.421875 C 217.046875 119.042969 217.078125 119.667969 217.078125 120.292969 Z M 217.078125 120.292969 " fill-opacity="1" fill-rule="nonzero"/></g><g clip-path="url(#febe03c96d)"><path fill="#04589b" d="M 141.074219 187.570312 C 141.074219 188.429688 141.035156 189.289062 140.949219 190.144531 C 140.863281 191 140.738281 191.847656 140.570312 192.691406 C 140.402344 193.535156 140.195312 194.367188 139.945312 195.191406 C 139.695312 196.011719 139.40625 196.820312 139.078125 197.617188 C 138.75 198.410156 138.382812 199.1875 137.976562 199.945312 C 137.570312 200.703125 137.128906 201.4375 136.652344 202.152344 C 136.175781 202.867188 135.664062 203.558594 135.117188 204.222656 C 134.570312 204.886719 133.996094 205.523438 133.386719 206.132812 C 132.777344 206.738281 132.144531 207.316406 131.476562 207.863281 C 130.8125 208.40625 130.125 208.917969 129.410156 209.394531 C 128.695312 209.875 127.957031 210.316406 127.199219 210.71875 C 126.441406 211.125 125.664062 211.492188 124.871094 211.820312 C 124.078125 212.152344 123.269531 212.441406 122.445312 212.691406 C 121.621094 212.9375 120.789062 213.148438 119.945312 213.316406 C 119.101562 213.484375 118.253906 213.609375 117.398438 213.695312 C 116.542969 213.777344 115.683594 213.820312 114.824219 213.820312 C 113.964844 213.820312 113.109375 213.777344 112.253906 213.695312 C 111.398438 213.609375 110.546875 213.484375 109.703125 213.316406 C 108.859375 213.148438 108.027344 212.9375 107.207031 212.691406 C 106.382812 212.441406 105.574219 212.152344 104.78125 211.820312 C 103.984375 211.492188 103.210938 211.125 102.453125 210.71875 C 101.691406 210.316406 100.957031 209.875 100.242188 209.394531 C 99.527344 208.917969 98.835938 208.40625 98.171875 207.863281 C 97.507812 207.316406 96.871094 206.738281 96.265625 206.132812 C 95.65625 205.523438 95.078125 204.886719 94.535156 204.222656 C 93.988281 203.558594 93.476562 202.867188 93 202.152344 C 92.523438 201.4375 92.082031 200.703125 91.675781 199.945312 C 91.269531 199.1875 90.902344 198.410156 90.574219 197.617188 C 90.246094 196.820312 89.957031 196.011719 89.707031 195.191406 C 89.457031 194.367188 89.246094 193.535156 89.078125 192.691406 C 88.914062 191.847656 88.785156 191 88.703125 190.144531 C 88.617188 189.289062 88.574219 188.429688 88.574219 187.570312 C 88.574219 186.710938 88.617188 185.851562 88.703125 184.996094 C 88.785156 184.140625 88.914062 183.292969 89.078125 182.449219 C 89.246094 181.605469 89.457031 180.773438 89.707031 179.949219 C 89.957031 179.128906 90.246094 178.320312 90.574219 177.523438 C 90.902344 176.730469 91.269531 175.953125 91.675781 175.195312 C 92.082031 174.4375 92.523438 173.699219 93 172.984375 C 93.476562 172.269531 93.988281 171.582031 94.535156 170.917969 C 95.078125 170.253906 95.65625 169.617188 96.265625 169.007812 C 96.871094 168.402344 97.507812 167.824219 98.171875 167.277344 C 98.835938 166.734375 99.527344 166.222656 100.242188 165.742188 C 100.957031 165.265625 101.691406 164.824219 102.453125 164.417969 C 103.210938 164.015625 103.984375 163.648438 104.78125 163.316406 C 105.574219 162.988281 106.382812 162.699219 107.207031 162.449219 C 108.027344 162.199219 108.859375 161.992188 109.703125 161.824219 C 110.546875 161.65625 111.398438 161.53125 112.253906 161.445312 C 113.109375 161.363281 113.964844 161.320312 114.824219 161.320312 C 115.683594 161.320312 116.542969 161.363281 117.398438 161.445312 C 118.253906 161.53125 119.101562 161.65625 119.945312 161.824219 C 120.789062 161.992188 121.621094 162.199219 122.445312 162.449219 C 123.269531 162.699219 124.078125 162.988281 124.871094 163.316406 C 125.664062 163.648438 126.441406 164.015625 127.199219 164.417969 C 127.957031 164.824219 128.695312 165.265625 129.410156 165.742188 C 130.125 166.222656 130.8125 166.734375 131.476562 167.277344 C 132.144531 167.824219 132.777344 168.402344 133.386719 169.007812 C 133.996094 169.617188 134.570312 170.253906 135.117188 170.917969 C 135.664062 171.582031 136.175781 172.269531 136.652344 172.984375 C 137.128906 173.699219 137.570312 174.4375 137.976562 175.195312 C 138.382812 175.953125 138.75 176.730469 139.078125 177.523438 C 139.40625 178.320312 139.695312 179.128906 139.945312 179.949219 C 140.195312 180.773438 140.402344 181.605469 140.570312 182.449219 C 140.738281 183.292969 140.863281 184.140625 140.949219 184.996094 C 141.035156 185.851562 141.074219 186.710938 141.074219 187.570312 Z M 141.074219 187.570312 " fill-opacity="1" fill-rule="nonzero"/></g><g clip-path="url(#f36b06c585)"><path fill="#04589b" d="M 308.007812 187.570312 C 308.007812 188.429688 307.964844 189.289062 307.878906 190.144531 C 307.796875 191 307.671875 191.847656 307.503906 192.691406 C 307.335938 193.535156 307.125 194.367188 306.875 195.191406 C 306.625 196.011719 306.335938 196.820312 306.007812 197.617188 C 305.679688 198.410156 305.3125 199.1875 304.90625 199.945312 C 304.5 200.703125 304.058594 201.4375 303.582031 202.152344 C 303.105469 202.867188 302.59375 203.558594 302.046875 204.222656 C 301.503906 204.886719 300.925781 205.523438 300.316406 206.132812 C 299.710938 206.738281 299.074219 207.316406 298.410156 207.863281 C 297.746094 208.40625 297.054688 208.917969 296.339844 209.394531 C 295.625 209.875 294.890625 210.316406 294.128906 210.71875 C 293.371094 211.125 292.597656 211.492188 291.800781 211.820312 C 291.007812 212.152344 290.199219 212.441406 289.375 212.691406 C 288.554688 212.9375 287.722656 213.148438 286.878906 213.316406 C 286.035156 213.484375 285.183594 213.609375 284.328125 213.695312 C 283.472656 213.777344 282.617188 213.820312 281.757812 213.820312 C 280.898438 213.820312 280.039062 213.777344 279.183594 213.695312 C 278.328125 213.609375 277.480469 213.484375 276.636719 213.316406 C 275.792969 213.148438 274.960938 212.9375 274.136719 212.691406 C 273.3125 212.441406 272.503906 212.152344 271.710938 211.820312 C 270.917969 211.492188 270.140625 211.125 269.382812 210.71875 C 268.625 210.316406 267.886719 209.875 267.171875 209.394531 C 266.457031 208.917969 265.769531 208.40625 265.105469 207.863281 C 264.4375 207.316406 263.804688 206.738281 263.195312 206.132812 C 262.585938 205.523438 262.011719 204.886719 261.464844 204.222656 C 260.917969 203.558594 260.410156 202.867188 259.929688 202.152344 C 259.453125 201.4375 259.011719 200.703125 258.605469 199.945312 C 258.199219 199.1875 257.832031 198.410156 257.503906 197.617188 C 257.175781 196.820312 256.886719 196.011719 256.636719 195.191406 C 256.386719 194.367188 256.179688 193.535156 256.011719 192.691406 C 255.84375 191.847656 255.71875 191 255.632812 190.144531 C 255.546875 189.289062 255.507812 188.429688 255.507812 187.570312 C 255.507812 186.710938 255.546875 185.851562 255.632812 184.996094 C 255.71875 184.140625 255.84375 183.292969 256.011719 182.449219 C 256.179688 181.605469 256.386719 180.773438 256.636719 179.949219 C 256.886719 179.128906 257.175781 178.320312 257.503906 177.523438 C 257.832031 176.730469 258.199219 175.953125 258.605469 175.195312 C 259.011719 174.4375 259.453125 173.699219 259.929688 172.984375 C 260.410156 172.269531 260.917969 171.582031 261.464844 170.917969 C 262.011719 170.253906 262.585938 169.617188 263.195312 169.007812 C 263.804688 168.402344 264.4375 167.824219 265.105469 167.277344 C 265.769531 166.734375 266.457031 166.222656 267.171875 165.742188 C 267.886719 165.265625 268.625 164.824219 269.382812 164.417969 C 270.140625 164.015625 270.917969 163.648438 271.710938 163.316406 C 272.503906 162.988281 273.3125 162.699219 274.136719 162.449219 C 274.960938 162.199219 275.792969 161.992188 276.636719 161.824219 C 277.480469 161.65625 278.328125 161.53125 279.183594 161.445312 C 280.039062 161.363281 280.898438 161.320312 281.757812 161.320312 C 282.617188 161.320312 283.472656 161.363281 284.328125 161.445312 C 285.183594 161.53125 286.035156 161.65625 286.878906 161.824219 C 287.722656 161.992188 288.554688 162.199219 289.375 162.449219 C 290.199219 162.699219 291.007812 162.988281 291.800781 163.316406 C 292.597656 163.648438 293.371094 164.015625 294.128906 164.417969 C 294.890625 164.824219 295.625 165.265625 296.339844 165.742188 C 297.054688 166.222656 297.746094 166.734375 298.410156 167.277344 C 299.074219 167.824219 299.710938 168.402344 300.316406 169.007812 C 300.925781 169.617188 301.503906 170.253906 302.046875 170.917969 C 302.59375 171.582031 303.105469 172.269531 303.582031 172.984375 C 304.058594 173.699219 304.5 174.4375 304.90625 175.195312 C 305.3125 175.953125 305.679688 176.730469 306.007812 177.523438 C 306.335938 178.320312 306.625 179.128906 306.875 179.949219 C 307.125 180.773438 307.335938 181.605469 307.503906 182.449219 C 307.671875 183.292969 307.796875 184.140625 307.878906 184.996094 C 307.964844 185.851562 308.007812 186.710938 308.007812 187.570312 Z M 308.007812 187.570312 " fill-opacity="1" fill-rule="nonzero"/></g></svg>